<?xml version="1.0" encoding="UTF-8" standalone="no"?>
<svg
   width="192.97504"
   height="191.03644"
   viewBox="0 0 192.97504 191.03644"
   version="1.1"
   id="svg1074"
   sodipodi:docname="Isometric 1.svg"
   inkscape:version="1.1.1 (3bf5ae0d25, 2021-09-20)"
   xmlns:inkscape="http://www.inkscape.org/namespaces/inkscape"
   xmlns:sodipodi="http://sodipodi.sourceforge.net/DTD/sodipodi-0.dtd"
   xmlns="http://www.w3.org/2000/svg"
   xmlns:svg="http://www.w3.org/2000/svg"
   xmlns:rdf="http://www.w3.org/1999/02/22-rdf-syntax-ns#"
   xmlns:cc="http://creativecommons.org/ns#"
   xmlns:dc="http://purl.org/dc/elements/1.1/">
  <defs
     id="defs1078" />
  <sodipodi:namedview
     id="namedview1076"
     pagecolor="#ffffff"
     bordercolor="#666666"
     borderopacity="1.0"
     inkscape:pageshadow="2"
     inkscape:pageopacity="0.0"
     inkscape:pagecheckerboard="0"
     showgrid="false"
     inkscape:zoom="2.5566667"
     inkscape:cx="-36.96219"
     inkscape:cy="123.794"
     inkscape:window-width="1920"
     inkscape:window-height="1017"
     inkscape:window-x="-8"
     inkscape:window-y="-8"
     inkscape:window-maximized="1"
     inkscape:current-layer="svg1074" />
  <title
     id="title952">Produce by Acme CAD Converter</title>
  <desc
     id="desc954">Produce by Acme CAD Converter</desc>
  <polyline
     points="342.07,247.23 388.76,274.19"
     style="fill:none;stroke:#000000;stroke-width:0.5"
     id="polyline956"
     transform="translate(-321.64,-160.94355)" />
  <polyline
     points="342.07,301.15 388.76,328.11"
     style="fill:none;stroke:#000000;stroke-width:0.5"
     id="polyline958"
     transform="translate(-321.64,-160.94355)" />
  <polyline
     points="388.76,274.19 388.76,328.11"
     style="fill:none;stroke:#000000;stroke-width:0.5"
     id="polyline960"
     transform="translate(-321.64,-160.94355)" />
  <polyline
     points="482.15,220.28 482.15,274.19"
     style="fill:none;stroke:#000000;stroke-width:0.5"
     id="polyline962"
     transform="translate(-321.64,-160.94355)" />
  <polyline
     points="342.07,247.23 342.07,301.15"
     style="fill:none;stroke:#000000;stroke-width:0.5"
     id="polyline964"
     transform="translate(-321.64,-160.94355)" />
  <polyline
     points="388.76,328.11 438.99,299.11"
     style="fill:none;stroke:#000000;stroke-width:0.5"
     id="polyline966"
     transform="translate(-321.64,-160.94355)" />
  <polyline
     points="467.34,282.74 482.15,274.19"
     style="fill:none;stroke:#000000;stroke-width:0.5"
     id="polyline968"
     transform="translate(-321.64,-160.94355)" />
  <polyline
     points="388.76,274.19 482.15,220.28"
     style="fill:none;stroke:#000000;stroke-width:0.5"
     id="polyline970"
     transform="translate(-321.64,-160.94355)" />
  <polyline
     points="482.15,220.28 435.45,193.32"
     style="fill:none;stroke:#000000;stroke-width:0.5"
     id="polyline972"
     transform="translate(-321.64,-160.94355)" />
  <polyline
     points="342.07,247.23 384.09,222.97"
     style="fill:none;stroke:#000000;stroke-width:0.5"
     id="polyline974"
     transform="translate(-321.64,-160.94355)" />
  <polyline
     points="416.78,204.1 435.45,193.32"
     style="fill:none;stroke:#000000;stroke-width:0.5"
     id="polyline976"
     transform="translate(-321.64,-160.94355)" />
  <polyline
     points="445.36,257.04 443.92,256.42 442.32,256.13 440.59,256.18 438.77,256.56 436.88,257.28 434.97,258.3 433.07,259.63 431.21,261.22 429.44,263.06 427.77,265.1 426.25,267.32 424.89,269.66 423.74,272.08 422.8,274.55 422.1,277.01 421.65,279.41 421.45,281.72 421.52,283.89 421.84,285.88 422.42,287.65 423.24,289.17 424.29,290.41 425.55,291.35"
     style="fill:none;stroke:#000000;stroke-width:0.5"
     id="polyline978"
     transform="translate(-321.64,-160.94355)" />
  <polyline
     points="444.22,302.13 445.7,302.76 447.34,303.04 449.11,302.97 450.98,302.56 452.91,301.79 454.86,300.71 456.8,299.31 458.69,297.64 460.49,295.72 462.16,293.59 463.68,291.29 465.02,288.87 466.14,286.37 467.02,283.85 467.66,281.35 468.03,278.92 468.14,276.61 467.96,274.46 467.53,272.51 466.82,270.81 465.88,269.38 464.7,268.26 463.32,267.46 461.76,267.01 460.05,266.9 458.22,267.14 456.32,267.73 454.37,268.66 452.42,269.91 450.5,271.45 448.66,273.25 446.91,275.28 445.31,277.5 443.88,279.86 442.65,282.32 441.65,284.84 440.88,287.36 440.38,289.83 440.14,292.21 440.17,294.44 440.48,296.49 441.05,298.32 441.88,299.89 442.94,301.17 444.22,302.13"
     style="fill:none;stroke:#000000;stroke-width:0.5"
     id="polyline980"
     transform="translate(-321.64,-160.94355)" />
  <polyline
     points="464.03,267.82 445.36,257.04"
     style="fill:none;stroke:#000000;stroke-width:0.5"
     id="polyline982"
     transform="translate(-321.64,-160.94355)" />
  <polyline
     points="425.55,291.35 444.22,302.13"
     style="fill:none;stroke:#000000;stroke-width:0.5"
     id="polyline984"
     transform="translate(-321.64,-160.94355)" />
  <polyline
     points="402.77,239.15 384.09,228.36"
     style="fill:none;stroke:#000000;stroke-width:0.5"
     id="polyline986"
     transform="translate(-321.64,-160.94355)" />
  <polyline
     points="402.77,239.15 421.44,228.36"
     style="fill:none;stroke:#000000;stroke-width:0.5"
     id="polyline988"
     transform="translate(-321.64,-160.94355)" />
  <polyline
     points="402.77,217.58 421.44,206.8"
     style="fill:none;stroke:#000000;stroke-width:0.5"
     id="polyline990"
     transform="translate(-321.64,-160.94355)" />
  <polyline
     points="421.44,228.36 421.44,206.8"
     style="fill:none;stroke:#000000;stroke-width:0.5"
     id="polyline992"
     transform="translate(-321.64,-160.94355)" />
  <polyline
     points="384.09,228.36 384.09,206.8"
     style="fill:none;stroke:#000000;stroke-width:0.5"
     id="polyline994"
     transform="translate(-321.64,-160.94355)" />
  <polyline
     points="402.77,239.15 402.77,217.58"
     style="fill:none;stroke:#000000;stroke-width:0.5"
     id="polyline996"
     transform="translate(-321.64,-160.94355)" />
  <polyline
     points="402.77,217.58 384.09,206.8"
     style="fill:none;stroke:#000000;stroke-width:0.5"
     id="polyline998"
     transform="translate(-321.64,-160.94355)" />
  <polyline
     points="421.44,206.8 402.77,196.01"
     style="fill:none;stroke:#000000;stroke-width:0.5"
     id="polyline1000"
     transform="translate(-321.64,-160.94355)" />
  <polyline
     points="384.09,206.8 402.77,196.01"
     style="fill:none;stroke:#000000;stroke-width:0.5"
     id="polyline1002"
     transform="translate(-321.64,-160.94355)" />
  <polyline
     points="365.41,287.67 333.06,306.35"
     style="fill:none;stroke:#000000;stroke-width:0.5"
     id="polyline1004"
     transform="translate(-321.64,-160.94355)" />
  <polyline
     points="365.41,287.67 357.92,287.67"
     style="fill:none;stroke:#000000;stroke-width:0.5"
     id="polyline1006"
     transform="translate(-321.64,-160.94355)" />
  <polyline
     points="357.92,287.67 361.67,294.16"
     style="fill:none;stroke:#000000;stroke-width:0.5"
     id="polyline1008"
     transform="translate(-321.64,-160.94355)" />
  <polyline
     points="365.41,287.67 361.67,294.16"
     style="fill:none;stroke:#000000;stroke-width:0.5"
     id="polyline1010"
     transform="translate(-321.64,-160.94355)" />
  <polyline
     points="482.15,220.28 514.49,201.6"
     style="fill:none;stroke:#000000;stroke-width:0.5"
     id="polyline1012"
     transform="translate(-321.64,-160.94355)" />
  <polyline
     points="482.15,220.28 489.64,220.28"
     style="fill:none;stroke:#000000;stroke-width:0.5"
     id="polyline1014"
     transform="translate(-321.64,-160.94355)" />
  <polyline
     points="489.64,220.28 485.89,213.79"
     style="fill:none;stroke:#000000;stroke-width:0.5"
     id="polyline1016"
     transform="translate(-321.64,-160.94355)" />
  <polyline
     points="482.15,220.28 485.89,213.79"
     style="fill:none;stroke:#000000;stroke-width:0.5"
     id="polyline1018"
     transform="translate(-321.64,-160.94355)" />
  <polyline
     points="454.13,284.98 486.48,303.65"
     style="fill:none;stroke:#000000;stroke-width:0.5"
     id="polyline1020"
     transform="translate(-321.64,-160.94355)" />
  <polyline
     points="454.13,284.98 456.48,289.04"
     style="fill:none;stroke:#000000;stroke-width:0.5"
     id="polyline1022"
     transform="translate(-321.64,-160.94355)" />
  <polyline
     points="456.48,289.04 460.88,286.5"
     style="fill:none;stroke:#000000;stroke-width:0.5"
     id="polyline1024"
     transform="translate(-321.64,-160.94355)" />
  <polyline
     points="454.13,284.98 460.88,286.5"
     style="fill:none;stroke:#000000;stroke-width:0.5"
     id="polyline1026"
     transform="translate(-321.64,-160.94355)" />
  <polyline
     points="365.41,233.76 333.06,215.08"
     style="fill:none;stroke:#000000;stroke-width:0.5"
     id="polyline1028"
     transform="translate(-321.64,-160.94355)" />
  <polyline
     points="365.41,233.76 363.07,229.69"
     style="fill:none;stroke:#000000;stroke-width:0.5"
     id="polyline1030"
     transform="translate(-321.64,-160.94355)" />
  <polyline
     points="363.07,229.69 358.66,232.23"
     style="fill:none;stroke:#000000;stroke-width:0.5"
     id="polyline1032"
     transform="translate(-321.64,-160.94355)" />
  <polyline
     points="365.41,233.76 358.66,232.23"
     style="fill:none;stroke:#000000;stroke-width:0.5"
     id="polyline1034"
     transform="translate(-321.64,-160.94355)" />
  <polyline
     points="412.11,212.19 412.11,174.83"
     style="fill:none;stroke:#000000;stroke-width:0.5"
     id="polyline1036"
     transform="translate(-321.64,-160.94355)" />
  <polyline
     points="412.11,212.19 409.85,202.5"
     style="fill:none;stroke:#000000;stroke-width:0.5"
     id="polyline1038"
     transform="translate(-321.64,-160.94355)" />
  <polyline
     points="409.85,202.5 414.11,200.04"
     style="fill:none;stroke:#000000;stroke-width:0.5"
     id="polyline1040"
     transform="translate(-321.64,-160.94355)" />
  <polyline
     points="414.11,200.04 412.11,212.19"
     style="fill:none;stroke:#000000;stroke-width:0.5"
     id="polyline1042"
     transform="translate(-321.64,-160.94355)" />
  <polyline
     points="412.11,314.63 412.11,351.98"
     style="fill:none;stroke:#000000;stroke-width:0.5"
     id="polyline1044"
     transform="translate(-321.64,-160.94355)" />
  <polyline
     points="412.11,314.63 414.22,324.4"
     style="fill:none;stroke:#000000;stroke-width:0.5"
     id="polyline1046"
     transform="translate(-321.64,-160.94355)" />
  <polyline
     points="414.22,324.4 410.27,326.68"
     style="fill:none;stroke:#000000;stroke-width:0.5"
     id="polyline1048"
     transform="translate(-321.64,-160.94355)" />
  <polyline
     points="410.27,326.68 412.11,314.63"
     style="fill:none;stroke:#000000;stroke-width:0.5"
     id="polyline1050"
     transform="translate(-321.64,-160.94355)" />
  <polyline
     points="484.18,293.53 487.26,284.52 490.34,297.08"
     style="fill:none;stroke:#000000;stroke-width:0.5"
     id="polyline1052"
     transform="translate(-321.64,-160.94355)" />
  <polyline
     points="485.33,290.6 489.19,292.82"
     style="fill:none;stroke:#000000;stroke-width:0.5"
     id="polyline1054"
     transform="translate(-321.64,-160.94355)" />
  <polyline
     points="418.49,350.39 418.49,339.61 421.95,337.61 423.11,337.46 423.5,337.75 423.88,338.55 423.88,339.58 423.5,340.83 423.11,341.56 421.95,342.74"
     style="fill:none;stroke:#000000;stroke-width:0.5"
     id="polyline1056"
     transform="translate(-321.64,-160.94355)" />
  <polyline
     points="418.49,344.75 421.95,342.74 423.11,342.59 423.5,342.88 423.88,343.69 423.88,345.23 423.5,346.48 423.11,347.21 421.95,348.39 418.49,350.39"
     style="fill:none;stroke:#000000;stroke-width:0.5"
     id="polyline1058"
     transform="translate(-321.64,-160.94355)" />
  <polyline
     points="327.67,300.96 327.28,300.16 326.51,299.58 325.74,299.51 324.2,300.4 323.43,301.36 322.66,302.83 322.27,304.08 321.89,305.84 321.89,308.41 322.27,309.73 322.66,310.53 323.43,311.11 324.2,311.18 325.74,310.29 326.51,309.33 327.28,307.86 327.67,306.61"
     style="fill:none;stroke:#000000;stroke-width:0.5"
     id="polyline1060"
     transform="translate(-321.64,-160.94355)" />
  <polyline
     points="339.77,211.5 339.77,200.72 342.47,202.27 343.62,203.45 344.39,204.93 344.78,206.18 345.16,207.94 345.16,210.51 344.78,211.82 344.39,212.63 343.62,213.21 342.47,213.06 339.77,211.5"
     style="fill:none;stroke:#000000;stroke-width:0.5"
     id="polyline1062"
     transform="translate(-321.64,-160.94355)" />
  <polyline
     points="416.78,174.83 416.78,164.05 421.78,161.16"
     style="fill:none;stroke:#000000;stroke-width:0.5"
     id="polyline1064"
     transform="translate(-321.64,-160.94355)" />
  <polyline
     points="416.78,169.19 419.86,167.41"
     style="fill:none;stroke:#000000;stroke-width:0.5"
     id="polyline1066"
     transform="translate(-321.64,-160.94355)" />
  <polyline
     points="416.78,174.83 421.78,171.94"
     style="fill:none;stroke:#000000;stroke-width:0.5"
     id="polyline1068"
     transform="translate(-321.64,-160.94355)" />
  <polyline
     points="500.35,200.14 500.35,189.36 505.36,186.47"
     style="fill:none;stroke:#000000;stroke-width:0.5"
     id="polyline1070"
     transform="translate(-321.64,-160.94355)" />
  <polyline
     points="500.35,194.49 503.44,192.71"
     style="fill:none;stroke:#000000;stroke-width:0.5"
     id="polyline1072"
     transform="translate(-321.64,-160.94355)" />
  <metadata
     id="metadata1160">
    <rdf:RDF>
      <cc:Work
         rdf:about="">
        <dc:title>Produce by Acme CAD Converter</dc:title>
      </cc:Work>
    </rdf:RDF>
  </metadata>
</svg>
