<?xml version="1.0" encoding="UTF-8"?>
<svg xmlns="http://www.w3.org/2000/svg" width="800.000" height="600.000" viewBox="0.0 0.0 800.000 600.000" version="1.1">
  <title>Produce by Acme CAD Converter</title>
  <desc>Produce by Acme CAD Converter</desc>
<polyline points="149.5,406.21 481.36,406.21" style="fill:none;stroke:black;stroke-width:0.5"/>
<polyline points="149.5,240.28 481.36,240.28" style="fill:none;stroke:black;stroke-width:0.5"/>
<polyline points="149.5,406.21 149.5,240.28" style="fill:none;stroke:black;stroke-width:0.5"/>
<polyline points="481.36,406.21 481.36,240.28" style="fill:none;stroke:black;stroke-width:0.5"/>
<polyline points="265.65,323.24 265.84,318.84 266.42,314.48 267.39,310.18 268.73,305.99 270.44,301.93 272.5,298.03 274.9,294.34 277.61,290.87 280.62,287.65 283.9,284.72 287.43,282.08 291.17,279.77 295.11,277.8 299.21,276.18 303.43,274.93 307.75,274.06 312.12,273.57 316.53,273.47 320.92,273.77 325.27,274.45 329.55,275.51 333.71,276.94 337.73,278.74 341.58,280.88 345.22,283.36 348.63,286.15 351.77,289.23 354.64,292.57 357.19,296.16 359.42,299.96 361.31,303.94 362.84,308.07 363.99,312.32 364.77,316.65 365.16,321.04 365.16,325.44 364.77,329.83 363.99,334.16 362.84,338.41 361.31,342.54 359.42,346.52 357.19,350.32 354.64,353.91 351.77,357.25 348.63,360.33 345.22,363.12 341.58,365.6 337.73,367.74 333.71,369.54 329.55,370.97 325.27,372.04 320.92,372.72 316.53,373.01 312.12,372.91 307.75,372.42 303.43,371.55 299.21,370.3 295.11,368.69 291.17,366.71 287.43,364.4 283.9,361.76 280.62,358.83 277.61,355.61 274.9,352.14 272.5,348.45 270.44,344.55 268.73,340.5 267.39,336.3 266.42,332.01 265.84,327.64 265.65,323.24" style="fill:none;stroke:black;stroke-width:0.5"/>
<polyline points="282.24,173.9 348.61,173.9" style="fill:none;stroke:black;stroke-width:0.5"/>
<polyline points="348.61,240.28 348.61,173.9" style="fill:none;stroke:black;stroke-width:0.5"/>
<polyline points="282.24,240.28 282.24,173.9" style="fill:none;stroke:black;stroke-width:0.5"/>
</svg>
