<?xml version="1.0" encoding="UTF-8"?>
<svg xmlns="http://www.w3.org/2000/svg" width="800.000" height="600.000" viewBox="0.0 0.0 800.000 600.000" version="1.1">
  <title>Produce by Acme CAD Converter</title>
  <desc>Produce by Acme CAD Converter</desc>
<polyline points="250.43,423.1 313.11,423.1" style="fill:none;stroke:black;stroke-width:0.5"/>
<polyline points="177.3,381.32 386.24,381.32" style="fill:none;stroke:black;stroke-width:0.5"/>
<polyline points="260.87,329.08 265.85,329.08" style="fill:none;stroke:black;stroke-width:0.5"/>
<polyline points="267.84,329.08 271.82,329.08" style="fill:none;stroke:black;stroke-width:0.5"/>
<polyline points="273.81,329.08 277.79,329.08" style="fill:none;stroke:black;stroke-width:0.5"/>
<polyline points="279.78,329.08 283.76,329.08" style="fill:none;stroke:black;stroke-width:0.5"/>
<polyline points="285.75,329.08 289.73,329.08" style="fill:none;stroke:black;stroke-width:0.5"/>
<polyline points="291.72,329.08 295.7,329.08" style="fill:none;stroke:black;stroke-width:0.5"/>
<polyline points="297.69,329.08 302.66,329.08" style="fill:none;stroke:black;stroke-width:0.5"/>
<polyline points="260.87,287.29 265.85,287.29" style="fill:none;stroke:black;stroke-width:0.5"/>
<polyline points="267.84,287.29 271.82,287.29" style="fill:none;stroke:black;stroke-width:0.5"/>
<polyline points="273.81,287.29 277.79,287.29" style="fill:none;stroke:black;stroke-width:0.5"/>
<polyline points="279.78,287.29 283.76,287.29" style="fill:none;stroke:black;stroke-width:0.5"/>
<polyline points="285.75,287.29 289.73,287.29" style="fill:none;stroke:black;stroke-width:0.5"/>
<polyline points="291.72,287.29 295.7,287.29" style="fill:none;stroke:black;stroke-width:0.5"/>
<polyline points="297.69,287.29 302.66,287.29" style="fill:none;stroke:black;stroke-width:0.5"/>
<polyline points="177.3,276.84 386.24,276.84" style="fill:none;stroke:black;stroke-width:0.5"/>
<polyline points="386.24,381.32 386.24,276.84" style="fill:none;stroke:black;stroke-width:0.5"/>
<polyline points="302.66,329.08 302.66,324.11" style="fill:none;stroke:black;stroke-width:0.5"/>
<polyline points="302.66,322.12 302.66,318.14" style="fill:none;stroke:black;stroke-width:0.5"/>
<polyline points="302.66,316.15 302.66,312.17" style="fill:none;stroke:black;stroke-width:0.5"/>
<polyline points="302.66,310.18 302.66,306.2" style="fill:none;stroke:black;stroke-width:0.5"/>
<polyline points="302.66,304.21 302.66,300.23" style="fill:none;stroke:black;stroke-width:0.5"/>
<polyline points="302.66,298.24 302.66,294.25" style="fill:none;stroke:black;stroke-width:0.5"/>
<polyline points="302.66,292.26 302.66,287.29" style="fill:none;stroke:black;stroke-width:0.5"/>
<polyline points="313.11,423.1 313.11,381.32" style="fill:none;stroke:black;stroke-width:0.5"/>
<polyline points="250.43,423.1 250.43,381.32" style="fill:none;stroke:black;stroke-width:0.5"/>
<polyline points="260.87,329.08 260.87,324.11" style="fill:none;stroke:black;stroke-width:0.5"/>
<polyline points="260.87,322.12 260.87,318.14" style="fill:none;stroke:black;stroke-width:0.5"/>
<polyline points="260.87,316.15 260.87,312.17" style="fill:none;stroke:black;stroke-width:0.5"/>
<polyline points="260.87,310.18 260.87,306.2" style="fill:none;stroke:black;stroke-width:0.5"/>
<polyline points="260.87,304.21 260.87,300.23" style="fill:none;stroke:black;stroke-width:0.5"/>
<polyline points="260.87,298.24 260.87,294.25" style="fill:none;stroke:black;stroke-width:0.5"/>
<polyline points="260.87,292.26 260.87,287.29" style="fill:none;stroke:black;stroke-width:0.5"/>
<polyline points="177.3,381.32 177.3,276.84" style="fill:none;stroke:black;stroke-width:0.5"/>
</svg>
