<?xml version="1.0" encoding="UTF-8" standalone="no"?>
<!-- Created with Inkscape (http://www.inkscape.org/) -->

<svg
   xmlns:dc="http://purl.org/dc/elements/1.1/"
   xmlns:cc="http://creativecommons.org/ns#"
   xmlns:rdf="http://www.w3.org/1999/02/22-rdf-syntax-ns#"
   xmlns:svg="http://www.w3.org/2000/svg"
   xmlns="http://www.w3.org/2000/svg"
   xmlns:sodipodi="http://sodipodi.sourceforge.net/DTD/sodipodi-0.dtd"
   xmlns:inkscape="http://www.inkscape.org/namespaces/inkscape"
   version="1.1"
   id="svg815"
   width="436.362"
   height="415.67633"
   viewBox="0 0 436.36201 415.67633"
   sodipodi:docname="BOMB.svg"
   inkscape:version="0.92.4 (5da689c313, 2019-01-14)">
  <metadata
     id="metadata821">
    <rdf:RDF>
      <cc:Work
         rdf:about="">
        <dc:format>image/svg+xml</dc:format>
        <dc:type
           rdf:resource="http://purl.org/dc/dcmitype/StillImage" />
        <dc:title />
      </cc:Work>
    </rdf:RDF>
  </metadata>
  <defs
     id="defs819">
    <marker
       inkscape:isstock="true"
       style="overflow:visible"
       id="marker1855"
       refX="0"
       refY="0"
       orient="auto"
       inkscape:stockid="Arrow1Lstart">
      <path
         transform="matrix(0.8,0,0,0.8,10,0)"
         style="fill:#000000;fill-opacity:1;fill-rule:evenodd;stroke:#000000;stroke-width:1.00000003pt;stroke-opacity:1"
         d="M 0,0 5,-5 -12.5,0 5,5 Z"
         id="path1853"
         inkscape:connector-curvature="0" />
    </marker>
    <marker
       inkscape:isstock="true"
       style="overflow:visible"
       id="marker1677"
       refX="0"
       refY="0"
       orient="auto"
       inkscape:stockid="Arrow1Lstart">
      <path
         transform="matrix(0.8,0,0,0.8,10,0)"
         style="fill:#000000;fill-opacity:1;fill-rule:evenodd;stroke:#000000;stroke-width:1.00000003pt;stroke-opacity:1"
         d="M 0,0 5,-5 -12.5,0 5,5 Z"
         id="path1675"
         inkscape:connector-curvature="0" />
    </marker>
    <marker
       inkscape:isstock="true"
       style="overflow:visible"
       id="marker1489"
       refX="0"
       refY="0"
       orient="auto"
       inkscape:stockid="Arrow1Lstart">
      <path
         transform="matrix(0.8,0,0,0.8,10,0)"
         style="fill:#000000;fill-opacity:1;fill-rule:evenodd;stroke:#000000;stroke-width:1.00000003pt;stroke-opacity:1"
         d="M 0,0 5,-5 -12.5,0 5,5 Z"
         id="path1487"
         inkscape:connector-curvature="0" />
    </marker>
    <marker
       inkscape:stockid="Arrow1Lstart"
       orient="auto"
       refY="0"
       refX="0"
       id="marker1129"
       style="overflow:visible"
       inkscape:isstock="true">
      <path
         id="path1127"
         d="M 0,0 5,-5 -12.5,0 5,5 Z"
         style="fill:#000000;fill-opacity:1;fill-rule:evenodd;stroke:#000000;stroke-width:1.00000003pt;stroke-opacity:1"
         transform="matrix(0.8,0,0,0.8,10,0)"
         inkscape:connector-curvature="0" />
    </marker>
    <marker
       inkscape:stockid="Arrow1Lend"
       orient="auto"
       refY="0"
       refX="0"
       id="Arrow1Lend"
       style="overflow:visible"
       inkscape:isstock="true">
      <path
         id="path840"
         d="M 0,0 5,-5 -12.5,0 5,5 Z"
         style="fill:#000000;fill-opacity:1;fill-rule:evenodd;stroke:#000000;stroke-width:1.00000003pt;stroke-opacity:1"
         transform="matrix(-0.8,0,0,-0.8,-10,0)"
         inkscape:connector-curvature="0" />
    </marker>
    <marker
       inkscape:stockid="Arrow1Lstart"
       orient="auto"
       refY="0"
       refX="0"
       id="Arrow1Lstart"
       style="overflow:visible"
       inkscape:isstock="true"
       inkscape:collect="always">
      <path
         id="path837"
         d="M 0,0 5,-5 -12.5,0 5,5 Z"
         style="fill:#000000;fill-opacity:1;fill-rule:evenodd;stroke:#000000;stroke-width:1.00000003pt;stroke-opacity:1"
         transform="matrix(0.8,0,0,0.8,10,0)"
         inkscape:connector-curvature="0" />
    </marker>
  </defs>
  <sodipodi:namedview
     pagecolor="#ffffff"
     bordercolor="#666666"
     borderopacity="1"
     objecttolerance="10"
     gridtolerance="10"
     guidetolerance="10"
     inkscape:pageopacity="0"
     inkscape:pageshadow="2"
     inkscape:window-width="1920"
     inkscape:window-height="1027"
     id="namedview817"
     showgrid="false"
     inkscape:zoom="0.97641512"
     inkscape:cx="212.0043"
     inkscape:cy="180.52858"
     inkscape:window-x="-8"
     inkscape:window-y="1072"
     inkscape:window-maximized="1"
     inkscape:current-layer="svg815" />
  <g
     id="g877"
     transform="scale(0.25131579)">
    <path
       inkscape:connector-curvature="0"
       id="path825"
       d="M 358.70016,947.00004 V 239.99999 h 104 104.00001 v -120 V 0 h 3 3 v 289.76091 289.76093 l 7,11.97815 7,11.97815 v 352.26089 c 0,351.59427 0.004,352.26097 2,352.26097 1.99621,0 2,-0.6667 2,-352.26097 V 603.47814 l 7,-11.97815 7,-11.97815 V 289.76091 0 h 3 3 v 119.99999 120 h 104 104 v -120 V 0 h 2.5 2.5 v 608.63975 c 0,578.48415 0.087,608.70555 1.75,609.96825 0.9625,0.7306 2.3125,1.3427 3,1.3602 0.9987,0.025 1.25,-122.6179 1.25,-609.96821 0,-609.333323 0,-609.99999 2,-609.99999 1.9889,0 2,0.666667 2,119.99999 v 120 h 90 89.99993 v -120 V 0 h 2.5039 2.504 l -0.254,627.24999 c -0.2481,612.88571 -0.2972,627.33721 -2.1446,631.05641 -1.0399,2.0936 -3.4796,5.0186 -5.4216,6.5 l -3.5308,2.6936 -78.32843,0.2792 -78.3284,0.2792 v 2.9708 2.9708 h 75.4508 c 49.2865,0 77.16153,-0.3669 80.38433,-1.0581 5.8313,-1.2506 10.4142,-4.3975 14.0358,-9.6378 l 2.629,-3.8041 0.2539,-629.75001 L 1023.7079,0 h 2.4961 2.4961 v 119.99999 120 h 96.5 96.5 v -120 c 0,-119.333323 0.011,-119.99999 2,-119.99999 1.9975,0 2,0.666667 2,529.99999 V 1060 h 12.5 12.5 V 529.99999 0 h 2.5 2.5 v 119.99999 120 h 105 105 V 947.00004 1654 H 912.20017 358.70016 Z m 1086.99994,0 V 259.99999 h -95 -95 v 49 49 h 46 46 V 947.00004 1536 H 912.20017 476.70016 V 947.00004 357.99999 h 45.00001 45 v -49 -49 h -94.00001 -94 V 947.00004 1634 h 533.50001 533.49993 z m -118,43.36409 V 464.72814 l -4.75,0.69016 c -17.5809,2.55442 -26.9198,2.46525 -44.7375,-0.42716 -6.7419,-1.09445 -16.8532,-1.27453 -20.2625,-0.36086 l -2.25,0.60297 V 762.61662 1060 h 3.5 3.5 v 10.0085 10.0086 l 5.3112,-2.9975 c 13.8442,-7.8132 28.6088,-9.638 38.2788,-4.731 8.8672,4.4996 13.2061,11.4513 14.871,23.8255 1.2058,8.9624 -2.3182,22.546 -7.3275,28.244 -2.9128,3.3133 -11.0086,6.7055 -17.4355,7.3056 -7.6837,0.7176 -15.971,-1.2653 -25.6402,-6.1346 -3.8543,-1.941 -7.2441,-3.5291 -7.5328,-3.5291 -0.2888,0 -0.525,4.275 -0.525,9.5 v 9.5 h -24 -24 v -9.8926 -9.8925 l -7.75,3.8997 c -19.1218,9.622 -34.6527,8.9303 -44.5118,-1.9826 -9.1257,-10.101 -9.1419,-34.3682 -0.03,-45.1968 8.8314,-10.4954 26.3317,-11.1023 44.7921,-1.5532 3.3,1.707 6.3375,3.2569 6.75,3.4442 0.4125,0.1872 0.75,-4.197 0.75,-9.7429 V 1060 h 3.5 3.5 v -296.37501 -296.375 l -2.75,-0.54654 c -12.0089,-2.38665 -23.7548,-3.04296 -33.0198,-1.845 -25.2034,3.25881 -24.2806,3.25836 -51.4065,0.0255 -9.4859,-1.13055 -12.2174,-1.06319 -24.5,0.60416 -16.1259,2.18908 -26.9439,2.20655 -40.8237,0.0659 -14.1517,-2.18254 -19.1622,-2.04932 -37.25,0.99041 l -3.25,0.54618 v 132.45468 132.45469 h 59 59 v 100.5 100.5 h -23.5 -23.5 V 1189.5 1446 h -203.99993 -204 V 1189.5 932.99997 h -23.5 -23.5 v -100.5 -100.5 l 86.75,-5.5e-4 86.75,-5.4e-4 0.1962,-132.41146 0.1962,-132.41145 -11.1962,0.003 c -6.1579,0.001 -15.8057,-0.71318 -21.4396,-1.58799 -12.781,-1.9846 -18.1448,-1.98722 -30.7566,-0.015 -12.8174,2.00434 -27.2951,2.00675 -40.2434,0.007 -12.8227,-1.98066 -17.6751,-1.98157 -30.5132,-0.006 -13.5129,2.0797 -26.6596,2.05749 -40.7434,-0.0688 -10.95963,-1.65465 -24.49523,-1.6098 -30.72673,0.10181 l -2.22672,0.61162 -0.27328,58.19108 -0.27357,58.19054 -6.75,11.27676 -6.75,11.27675 V 959.57833 1314 h -8 -8 V 959.57833 605.15674 l -6.75,-11.27652 -6.75,-11.27651 -0.5,-59.05186 -0.5,-59.05186 -6,-0.31363 c -3.3,-0.1725 -11.175,0.36852 -17.5,1.20227 -6.325,0.83375 -13.4763,1.72813 -15.89177,1.9875 -4.08846,0.43901 -14.15002,-0.33895 -25.35824,-1.9607 l -4.75,-0.68729 V 990.36413 1516 h 415.50001 415.49993 z m -591.06133,435.19737 14.4127,-14.4384 -12.1915,-0.3116 -12.1915,-0.3115 -14.7217,14.75 -14.7216,14.75 h 12.5004 12.5005 z m 30.0614,-0.062 14.4741,-14.5 h -12.5 -12.5 l -14.4741,14.5 -14.4741,14.5 h 12.5 12.5 z m 30,0 14.4741,-14.5 h -12.5 -12.5 l -14.4741,14.5 -14.4741,14.5 h 12.5 12.5 z m 30,0 14.4741,-14.5 h -12.5 -12.5 l -14.4741,14.5 -14.4741,14.5 h 12.5 12.5 z m 30,0 14.4741,-14.5 h -12.5 -12.5 l -14.4741,14.5 -14.4741,14.5 h 12.5 12.5 z m 30,0 14.4741,-14.5 h -12.5 -12.5 l -14.4741,14.5 -14.4741,14.5 h 12.5 12.5 z m 30,0 14.4741,-14.5 h -12.5 -12.5 l -14.4741,14.5 -14.4741,14.5 h 12.5 12.5 z m 30,0 14.4741,-14.5 h -12.5 -12.5 l -14.4741,14.5 -14.4741,14.5 h 12.5 12.5 z m 30,0 14.47406,-14.5 h -12.5 -12.49996 l -14.4741,14.5 -14.4741,14.5 h 12.5 12.5 z m 29.99993,0 14.4741,-14.5 h -12.5 -12.49997 l -14.4741,14.5 -14.47406,14.5 h 12.49996 12.5 z m 30,0 14.4741,-14.5 h -12.5 -12.5 l -14.4741,14.5 -14.47407,14.5 h 12.49997 12.5 z m 36.2413,-6.2411 20.7587,-20.741 v -12.4965 -12.4964 l -15,14.975 c -14.0222,13.9988 -15,15.2203 -15,18.7375 0,3.6834 -0.079,3.7625 -3.7629,3.7625 -3.5121,0 -4.7278,0.9666 -18.2371,14.5 l -14.4741,14.5 h 12.4783 12.4784 z m 15.0723,14.9295 5.751,-5.8117 -0.2823,-12.2017 -0.2823,-12.2018 -17.9896,18.0134 -17.9896,18.0134 h 12.5209 12.5209 z m 5.6864,2.6245 v -3.1871 l -3,2.8742 c -1.65,1.5808 -3,3.015 -3,3.1871 0,0.1721 1.35,0.3129 3,0.3129 2.7058,0 3,-0.3125 3,-3.1871 z m -365.99993,-44.7879 v -12.5 l -15,14.975 -15,14.975 v 12.5 12.5 l 15,-14.975 15,-14.975 z m 330.99993,-279.525 V 819.99999 h -15 -15 l -0.01,218.75001 -0.01,218.75 -2.3381,5.021 c -2.5805,5.5413 -7.1747,10.6179 -11.9985,13.2582 -2.6774,1.4654 -6.7355,1.7674 -27.34677,2.0348 -21.67626,0.2812 -24.25396,0.49 -24.69216,2 -0.269,0.9273 -1.4783,6.7485 -2.6873,12.936 l -2.1981,11.25 h -61.6763 -61.6764 l -1.8716,-9.75 c -1.0293,-5.3625 -1.9982,-11.1 -2.1529,-12.75 -0.397,-4.2326 -1.9375,-11.4647 -3.1951,-15 -0.9237,-2.5965 -5.1501,-23.7141 -5.148,-25.7218 4e-4,-0.397 6.0674,-0.847 13.4821,-1 l 13.4814,-0.2782 -29.7314,-21.1048 c -26.656,-18.9218 -33.2395,-24.4444 -29.0546,-24.3724 0.7278,0.013 7.2932,4.2875 14.5897,9.5 7.2966,5.2124 13.4841,9.4772 13.75,9.4772 0.266,0 0.4836,-88.425 0.4836,-196.5 V 819.99999 h -42.5 -42.5 V 1112.5 1405 h 162.5 162.49993 v -292.5 z m -330.99993,249.525 v -12.5 l -15,14.975 -15,14.975 v 12.5 12.5 l 15,-14.975 15,-14.975 z m 365.99993,-6 v -12.5 l -15,14.975 -15,14.975 v 12.5 12.5 l 15,-14.975 15,-14.975 z m -365.99993,-24 v -12.5 l -15,14.975 -15,14.975 v 12.5 12.5 l 15,-14.975 15,-14.975 z m 365.99993,-6 v -12.5 l -15,14.975 -15,14.975 v 12.5 12.5 l 15,-14.975 15,-14.975 z m -365.99993,-24 v -12.5 l -15,14.975 -15,14.975 v 12.5 12.5 l 15,-14.975 15,-14.975 z m 365.99993,-6 v -12.5 l -15,14.975 -15,14.975 v 12.5 12.5 l 15,-14.975 15,-14.975 z m -365.99993,-24 v -12.5 l -15,14.975 -15,14.975 v 12.5 12.5 l 15,-14.975 15,-14.975 z m 365.99993,-6 v -12.5 l -15,14.975 -15,14.975 v 12.5 12.5 l 15,-14.975 15,-14.975 z m -139.57913,24.225 c 0.932,-4.8125 1.924,-9.5375 2.2043,-10.5 0.4811,-1.652 -2.6565,-1.75 -56.0577,-1.75 h -56.5674 v -7.5 -7.5 h 57.9171 57.9172 l 1.0673,-4.9769 c 0.5871,-2.7373 1.3569,-6.7873 1.7107,-9 l 0.6433,-4.0231 h -67.2157 -67.2157 l 0.7134,4.25 c 0.3924,2.3375 2.0069,9.4166 3.5879,15.7313 1.581,6.3148 2.8745,12.5759 2.8745,13.9138 0,1.3378 0.7623,6.4087 1.6939,11.2686 l 1.6939,8.8363 h 56.6692 56.6693 z m -226.4208,-48.225 v -12.5 l -15,14.975 -15,14.975 v 12.5 12.5 l 15,-14.975 15,-14.975 z m 365.99993,-6 v -12.5 l -15,14.975 -15,14.975 v 12.5 12.5 l 15,-14.975 15,-14.975 z m -85.9205,25.2689 c 6.368,-3.7616 5.9205,13.2213 5.9205,-224.695 V 819.99999 h -57.49993 -57.5 v -14.5 -14.5 h 2.5 c 2.4444,0 2.5,-0.16667 2.5,-7.5 0,-7.33333 -0.056,-7.5 -2.5,-7.5 -2.1111,0 -2.5,0.46667 -2.5,3 0,2.66667 -0.3333,3 -3,3 -2.6667,0 -3,-0.33333 -3,-3 0,-2.53333 -0.3889,-3 -2.5,-3 -2.4444,0 -2.5,0.16667 -2.5,7.5 0,7.33333 0.056,7.5 2.5,7.5 h 2.5 v 14.5 14.5 h -29.5 -29.5 l 0.024,202.25001 0.024,202.25 11.0351,7.75 11.035,7.75 h 40.0256 40.0257 l 32.3308,-23 c 17.78196,-12.65 32.77073,-23 33.30833,-23 4.462,0 -1.0864,4.7058 -28.61853,24.2724 L 942.31727,1240 h 13.6916 c 11.0216,0 13.6915,0.271 13.6915,1.3899 0,0.7645 -0.9,5.764 -2,11.1101 -1.1,5.3461 -2,9.8956 -2,10.1101 0,0.2144 8.8181,0.3899 19.59566,0.3899 16.67507,0 20.02617,-0.2543 22.48377,-1.7061 z m -280.07943,-49.2689 v -12.5 l -15,14.975 -15,14.975 v 12.5 12.5 l 15,-14.975 15,-14.975 z m 365.99993,-6 v -12.5 l -15,14.975 -15,14.975 v 12.5 12.5 l 15,-14.975 15,-14.975 z m -365.99993,-24 v -12.5 l -15,14.975 -15,14.975 v 12.5 12.5 l 15,-14.975 15,-14.975 z m 365.99993,-6 v -12.5 l -15,14.975 -15,14.975 v 12.5 12.5 l 15,-14.975 15,-14.975 z m -365.99993,-24 v -12.5 l -15,14.975 -15,14.975 v 12.5 12.5 l 15,-14.975 15,-14.975 z m 365.99993,-6 v -12.5 l -15,14.975 -15,14.975 v 12.5 12.5 l 15,-14.975 15,-14.975 z m -365.99993,-24 v -12.5 l -15,14.975 -15,14.975 v 12.5 12.5 l 15,-14.975 15,-14.975 z m 365.99993,-6 v -12.5 l -15,14.975 -15,14.975 v 12.5 12.5 l 15,-14.975 15,-14.975 z m 163,-15.025 v -35 h -18.5 -18.5 v 35 35 h 18.5 18.5 z m -528.99993,-8.975 v -12.5 l -15,14.975 -15,14.975 v 12.5 12.5 l 15,-14.975 15,-14.975 z m 365.99993,-6 v -12.5 l -15,14.975 -15,14.975 v 12.5 12.5 l 15,-14.975 15,-14.975 z m 101.2606,37.6695 c 3.4934,-1.268 9.3639,-3.9901 13.0455,-6.049 l 6.6939,-3.7434 v -13.343 -13.3431 l -10.25,-5.15 c -15.9553,-8.0165 -24.9708,-8.7613 -33.8252,-2.7943 -4.8859,3.2926 -7.5669,7.8521 -8.8081,14.9798 -4.0864,23.4657 11.4902,37.3029 33.1439,29.443 z m 108.674,-0.1614 c 6.0621,-3.0718 8.6532,-6.3074 10.7059,-13.3685 3.4782,-11.9644 -0.8882,-27.2157 -9.1126,-31.829 -8.8208,-4.948 -19.4796,-3.6957 -33.9836,3.9925 l -8.0443,4.2641 -0.2776,13.6161 -0.2777,13.6161 2.7777,1.9572 c 13.427,9.4611 28.7176,12.5628 38.2122,7.7515 z m -575.93453,-61.5081 v -12.5 l -15,14.975 -15,14.975 v 12.5 12.5 l 15,-14.975 15,-14.975 z m 365.99993,-6 v -12.5 l -15,14.975 -15,14.975 v 12.5 12.5 l 15,-14.975 15,-14.975 z m -365.99993,-24 v -12.5 l -15,14.975 -15,14.975 v 12.5 12.5 l 15,-14.975 15,-14.975 z m 365.99993,-6 v -12.5 l -15,14.975 -15,14.975 v 12.5 12.5 l 15,-14.975 15,-14.975 z m -365.99993,-24 v -12.49997 l -15,14.97497 -15,14.975 v 12.5 12.5 l 15,-14.975 15,-14.975 z m 365.99993,-5.99997 v -12.5 l -15,14.975 -15,14.97497 v 12.5 12.5 l 15,-14.975 15,-14.975 z m -365.99993,-24 v -12.5 l -15,14.975 -15,14.975 v 12.49997 12.5 l 15,-14.97497 15,-14.975 z m 365.99993,-6 v -12.49999 l -15,14.97499 -15,14.9749 v 12.5001 12.49997 l 15,-14.97497 15,-14.975 z M 727.70017,942.0245 v -12.5 l -15,14.97504 -15,14.97489 v 12.5 12.5001 l 15,-14.975 15,-14.97499 z m 365.99993,-1.19915 v -7.69914 l -3.25,-0.31584 -3.25,-0.31583 3.25,-1.77321 c 2.4318,-1.32677 3.25,-2.45593 3.25,-4.48502 0,-2.40406 -1.7023,-1.01233 -15,12.26318 l -15,14.97495 v 12.49999 12.5 l 15,-14.9749 15,-14.97499 z m -366.21743,-28.62837 -0.2825,-12.22933 -14.4066,14.43535 -14.4067,14.43536 3.4067,2.07683 3.4066,2.07682 -3.75,0.004 -3.75,0.004 v 10.74593 10.7459 l 15.0325,-15.03252 15.0325,-15.03249 -0.2825,-12.22933 z m 367.54053,2.05251 c -0.9379,-0.6875 -2.0694,-1.25 -2.5142,-1.25 -2.5304,0 0.1069,-2.46271 6.7782,-6.32931 l 7.587,-4.39742 -6.9684,-4.01758 -6.9684,-4.01759 -14.6187,14.64306 -14.6186,14.64305 v 12.47653 12.47651 l 16.5142,-16.48862 c 14.6705,-14.64767 16.3239,-16.62819 14.8089,-17.73863 z m -423.32303,13.48213 c 0,-0.14732 -4.725,-4.97678 -10.5,-10.73213 l -10.5,-10.46427 v 10.73214 10.73213 h 10.5 c 5.775,0 10.5,-0.12054 10.5,-0.26787 z m 7.25,-2.76174 c -2.8875,-1.65597 -5.25,-3.3559 -5.25,-3.77762 0,-0.42173 2.9689,-2.47436 6.5976,-4.5614 l 6.5977,-3.79463 -2.2869,-2.43424 c -1.2578,-1.33883 -4.2601,-3.59062 -6.6718,-5.00397 -2.5248,-1.47968 -4.1786,-3.10741 -3.8985,-3.83728 0.2675,-0.69714 -4.8741,-6.61409 -11.4258,-13.14876 l -11.9123,-11.88123 v 12.47097 12.47096 l 13.2361,13.2634 c 11.9825,12.00722 13.5689,13.26252 16.75,13.25403 l 3.5139,-0.009 -5.25,-3.01084 z m 440.74993,0.52961 c -2.8811,-3.06674 -2.8047,-3.06663 -8.1479,-0.0121 l -4.3521,2.48796 7.4243,0.012 7.4243,0.0121 -2.3486,-2.5 z m 21,-3.26293 v -5.76294 l -14.3563,-14.33069 -14.3563,-14.3307 -4.1437,2.11395 c -2.279,1.16268 -4.1389,2.44231 -4.1331,2.84363 0.01,0.40133 3.4597,2.6957 7.6752,5.09861 l 7.6646,4.36893 -3.9252,2.33187 c -2.1589,1.28254 -4.6002,2.76294 -5.4252,3.28979 -1.2104,0.773 0.33,2.80939 7.9802,10.5492 l 9.4803,9.59128 h 6.7697 6.7698 z m -429.26093,-11.4757 16.261,-16.23864 v -12.50744 -12.50794 l -18.25,18.35494 c -10.0375,10.09522 -17.8,18.53362 -17.25,18.75201 0.55,0.21839 2.7663,1.46611 4.9252,2.77271 l 3.9252,2.37563 -7.6646,4.36893 c -4.2155,2.40291 -7.6693,4.67271 -7.6752,5.04401 -0.01,0.58309 7.6184,5.44669 8.9784,5.72489 0.2689,0.055 7.8064,-7.20736 16.75,-16.1386 z m 393.57563,9.44927 c -4.2731,-3.19576 -4.9411,-3.21002 -7.8558,-0.16771 l -2.8331,2.95707 h 2.6871 c 1.4779,0 2.6871,0.44272 2.6871,0.98382 0,0.5411 1.6041,0.21887 3.5647,-0.71608 3.3111,-1.57894 3.4356,-1.79648 1.75,-3.0571 z m -3.3147,-39.88836 c 0,-0.1086 -2.25,-1.42206 -5,-2.9188 -2.75,-1.49673 -5,-3.0683 -5,-3.49236 0,-0.42407 3.375,-2.63407 7.5,-4.91112 4.125,-2.27705 7.5,-4.2951 7.5,-4.48455 0,-0.18945 -1.9762,-1.44898 -4.3916,-2.79895 l -4.3915,-2.45449 -17.1085,17.12942 -17.1084,17.12942 v 12.4797 12.47971 l 19,-18.98026 c 10.45,-10.43914 19,-19.06912 19,-19.17772 z m 5.3264,32.55966 c -1.1649,-1.16493 -2.7274,-1.91414 -3.4722,-1.66492 -0.8612,0.28816 -0.262,1.04469 1.6458,2.07802 4.0113,2.17264 4.3382,2.09871 1.8264,-0.4131 z m 22.8184,-37.22603 -10.9202,-10.92016 -7.6123,4.33109 c -4.1868,2.3821 -7.6075,4.57905 -7.6017,4.88212 0.01,0.30307 3.4654,2.5203 7.6878,4.92716 7.131,4.06482 7.5416,4.47518 5.7729,5.76855 -1.7848,1.30506 -1.1221,2.17667 10.5622,13.89188 l 12.4665,12.49947 0.2825,-12.22998 0.2825,-12.22997 z m -437.59763,24.16005 c 2.8082,-2.97244 3.229,-3.73932 1.4529,-2.64828 -1.375,0.84466 -4.028,2.32292 -5.8956,3.28502 -2.6003,1.33955 -3.0688,1.95625 -2,2.63297 2.0681,1.3095 2.1609,1.2624 6.4427,-3.26971 z m -5.7562,-5.60605 c 2.2582,-1.47222 2.188,-1.55212 -4.9228,-5.60172 -3.9676,-2.2595 -7.3572,-4.55819 -7.5325,-5.10819 -0.1754,-0.55 1.5368,-2.06016 3.8049,-3.35592 l 4.1238,-2.35591 -15.3821,-15.40917 -15.3822,-15.40916 -0.2824,12.21965 -0.2824,12.21966 13.7053,13.73166 13.7054,13.73167 3.0771,-1.58453 c 1.6923,-0.87148 4.1079,-2.2566 5.3679,-3.07804 z m 27.4462,-15.94651 13.7629,-13.73661 v -12.50129 -12.5013 l -15.5,15.4758 c -8.525,8.51169 -15.5,15.78842 -15.5,16.17051 0,0.38209 0.9065,0.98244 2.0145,1.3341 2.8616,0.90822 1.9193,1.83983 -6.6393,6.56427 l -7.577,4.18262 7.3509,4.32931 c 4.043,2.38113 7.5701,4.34954 7.838,4.37425 0.2678,0.0247 6.6803,-6.13653 14.25,-13.69166 z m 379.24513,-21.53327 c -2.5941,-1.4517 -1.6582,-2.49292 6.08,-6.7645 4.1592,-2.29595 7.4217,-4.30222 7.25,-4.45838 -0.1718,-0.15616 -3.7466,-2.30576 -7.9442,-4.77689 l -7.6318,-4.49297 -13.6182,13.64425 -13.6181,13.64425 v 12.47495 12.47496 l 15.4823,-15.45808 c 11.8999,-11.88133 15.1392,-15.65002 14,-16.28759 z m 12.3745,27.42836 c 0.7868,-0.52689 0.9529,-1.15807 0.3953,-1.50267 -0.5287,-0.3268 -2.0393,0.57802 -3.3567,2.01072 -2.0143,2.19044 -2.0772,2.42952 -0.3954,1.50266 1.1,-0.60622 2.6105,-1.51104 3.3568,-2.01071 z m 21.7959,-40.99671 -13.4123,-13.41229 -5.1192,2.87526 c -2.8155,1.58139 -5.1196,3.18123 -5.1202,3.5552 -5e-4,0.37398 3.374,2.543 7.499,4.82005 4.125,2.27705 7.5,4.32201 7.5,4.54437 0,0.22235 -1.2375,1.07436 -2.75,1.89336 -6.3089,3.41621 -6.7755,2.48046 9.25,18.55106 l 15,15.04219 0.2825,-12.22846 0.2825,-12.22845 z m -439.86933,30.68805 c -0.1657,-0.49706 -2.7722,-2.29361 -5.7923,-3.99233 l -5.491,-3.08858 4.3789,4.5347 c 2.5868,2.67888 4.9573,4.31274 5.7922,3.99234 0.7774,-0.29831 1.2779,-0.94906 1.1122,-1.44613 z m 22.9563,-22.08911 17.2604,-17.23929 v -7.26071 -7.26072 h -5.2371 -5.237 l -13.763,13.7366 c -7.5696,7.55513 -13.7629,13.98342 -13.7629,14.28508 0,0.30166 2.4734,1.88269 5.4965,3.51339 3.0231,1.63071 5.4909,3.18993 5.4839,3.46493 -0.01,0.275 -3.6257,2.50129 -8.0418,4.94731 l -8.0293,4.44731 3.7954,2.29757 c 2.0874,1.26366 4.0156,2.29987 4.2849,2.30269 0.2692,0.003 8.2567,-7.75256 17.75,-17.23416 z m -22.9662,3.419 c 0.1753,-0.52584 -2.7395,-2.64753 -6.4773,-4.71487 -3.7379,-2.06734 -6.9808,-3.9149 -7.2066,-4.1057 -0.2258,-0.19079 0.3229,-1.15737 1.2194,-2.14796 1.5357,-1.69694 0.88,-2.54933 -11.3395,-14.74171 l -12.9694,-12.94062 v 12.46992 12.46993 l 11.1995,11.23136 11.1995,11.23137 7.0279,-3.89782 c 3.8653,-2.14381 7.1712,-4.32806 7.3465,-4.8539 z m 424.65933,2.77693 c -3.56,-3.56008 -5.5417,-4.85208 -6.7381,-4.39301 -0.9321,0.35769 -1.6947,0.9551 -1.6947,1.32759 0,0.61089 11.8162,7.9439 12.9881,8.06029 0.2684,0.0267 -1.7814,-2.22103 -4.5553,-4.99487 z m -14.6989,-36.64467 c -1.2973,-0.72075 -5.9968,-1.25597 -11.2088,-1.27654 l -8.9749,-0.0354 -6.7751,6.72318 -6.7751,6.72318 v 12.5164 12.5164 l 17.9839,-17.96303 c 17.2675,-17.2476 17.8948,-18.01247 15.75,-19.20415 z m 22.7986,-15.27346 -20.5325,-20.5325 v 12.52588 12.52588 l 6.25,6.11618 c 3.4375,3.36391 7.7272,6.85757 9.5327,7.7637 1.8282,0.91755 2.9909,2.11963 2.6241,2.71307 -0.3622,0.58606 4.4606,6.20059 10.7173,12.47674 l 11.3759,11.41118 0.2825,-12.23381 0.2825,-12.23382 z m -433.03953,38.97293 c 0.3504,-0.56686 -0.051,-0.7345 -0.941,-0.39301 -1.7324,0.66479 -2.0493,1.38156 -0.6109,1.38156 0.5175,0 1.2159,-0.44485 1.5519,-0.98855 z m -2.4622,-6.41687 4.2348,-2.40541 -7.6221,-4.34459 c -4.1922,-2.38952 -7.6269,-4.70301 -7.6328,-5.14109 -0.01,-0.43808 1.3887,-1.56308 3.0989,-2.5 8.0439,-4.4067 8.7,-2.95547 -9.5809,-21.19212 l -16.5286,-16.48864 v 12.47653 12.47653 l 14.7375,14.7621 c 8.1056,8.11916 14.8097,14.76211 14.8979,14.76211 0.088,0 2.0661,-1.08244 4.3953,-2.40542 z m 420.08033,-12.95821 c -1.9428,-0.86692 -2.8955,-0.32186 -7.4201,4.24537 l -5.191,5.24 7.4201,-4.24537 c 6.8299,-3.90773 7.2428,-4.32447 5.191,-5.24 z m -399.61103,1.36363 6.9464,-7 -7.9732,0.0125 c -7.1886,0.0113 -8.5496,0.34082 -13.8302,3.34869 l -5.8571,3.33618 6.3571,3.61645 c 3.4963,1.98905 6.5941,3.63214 6.8838,3.65131 0.2898,0.0192 3.6527,-3.11514 7.4732,-6.96514 z m 366.49993,-6.70295 c 0,-0.16338 -1.8,-0.29705 -4,-0.29705 h -4 v 4.20295 4.20295 l 4,-3.9059 c 2.2,-2.14824 4,-4.03957 4,-4.20295 z m 39.2887,-53.50841 -29.7762,-29.78864 h -8.7562 -8.7563 v 3.73732 c 0,3.58436 1.5655,5.3035 38.25,42.00273 l 38.25,38.26541 0.2825,-12.21409 0.2825,-12.21409 z m -421.03863,49.81931 c 1.436,-1.09011 1.75,-2.92493 1.75,-10.22734 v -8.89891 l -20.5,-20.4817 -20.5,-20.4817 v 12.48097 12.48098 l 18.2399,18.25988 c 10.0319,10.04293 18.4694,18.24556 18.75,18.22807 0.2805,-0.0175 1.2976,-0.6296 2.2601,-1.36025 z m 16.75,-7.10795 v -4.5 h 5.9425 5.9425 l 0.3075,4.01579 0.3075,4.01578 37.9951,-38.01578 37.995,-38.01579 h -12.4852 -12.4852 l -18.2598,18.23986 -18.2599,18.23987 v 5.76013 5.76014 h -5.7356 -5.7355 l -12.2645,12.23499 c -14.0934,14.05956 -15.3463,16.76501 -7.7644,16.76501 h 4.5 z m 76.7448,-30.74472 c 31.9022,-31.89273 35.2552,-35.55431 35.2552,-38.5 v -3.25528 h -9.2549 -9.2548 l -38.4903,38.5 -38.4903,38.5 h 12.49 12.4899 z m 15.0468,14.95331 20.2733,-20.29142 -0.2824,-12.21732 -0.2825,-12.21731 -32.4942,32.50873 -32.4943,32.50873 h 12.5034 12.5034 z m 15.0248,14.97729 5.2481,-5.31412 -0.2822,-12.19957 -0.2823,-12.19957 -17.4893,17.51369 -17.4893,17.51369 h 12.5235 12.5234 z m 5.1836,2.81412 c 0,-1.375 -0.1466,-2.5 -0.3257,-2.5 -0.1791,0 -1.3826,1.125 -2.6743,2.5 l -2.3486,2.5 h 2.6743 c 2.1859,0 2.6743,-0.45655 2.6743,-2.5 z m 38.7406,-16.74038 19.2594,-19.24039 v -12.50089 -12.5009 l -21.5,21.48256 -21.5,21.48256 v 10.25872 c 0,9.95928 0.065,10.25872 2.2406,10.25872 1.5759,0 7.9546,-5.7083 21.5,-19.24038 z m 19.7594,10.24038 8.9583,-9 h -4.6871 -4.6871 l -0.292,-7.51703 -0.2921,-7.51703 -16.4886,16.51703 -16.4887,16.51703 h 12.5095 12.5095 z m 9.5,2.27889 v -6.72111 l -6.5,6.44222 c -3.575,3.54322 -6.5,6.56772 -6.5,6.72111 0,0.15339 2.925,0.27889 6.5,0.27889 h 6.5 z m 80,-31.77889 38.49023,-38.5 h -12.49027 -12.4903 l -37.75476,37.74507 c -20.7652,20.75978 -37.7549,38.08478 -37.7549,38.5 0,0.41521 5.2897,0.75493 11.7549,0.75493 h 11.7548 z m 19.24336,10.7567 27.75657,-27.74331 v -10.75669 c 0,-9.58918 -0.1905,-10.7567 -1.7549,-10.7567 -0.9762,0 -18.83207,17.08156 -40.24503,38.5 l -38.4903,38.5 h 12.4886 12.4885 z m 15.05337,14.94691 12.768,-12.79639 -0.2824,-12.21408 -0.2824,-12.21407 -24.99247,25.01046 -24.99246,25.01047 h 12.5069 12.50696 z m 12.7032,2.56515 v -10.23124 l -10,9.96248 c -5.49997,5.47936 -9.99997,10.08342 -9.99997,10.23124 0,0.14782 4.5,0.26876 9.99997,0.26876 h 10 z m 49,-4.26876 14.4741,-14.5 h -9.237 -9.2371 v -3.2375 c 0,-3.12833 -0.5058,-2.73254 -15,11.7375 -12.0996,12.07939 -15,15.50916 -15,17.7375 v 2.7625 h 9.7629 9.763 z m 10,9.93291 v -4.5671 l 7.0362,0.22821 c 6.7628,0.21934 7.1707,0.0978 10.5,-3.12907 3.2834,-3.18242 3.4638,-3.71166 3.4638,-10.16112 v -6.80383 h -5.7629 -5.763 l -14.4741,14.5 -14.4741,14.5 h 9.737 9.7371 z m 21,-0.63586 v -5.20295 l -4,3.9059 c -5.1403,5.01933 -5.1403,6.5 0,6.5 h 4 z m -131.19873,-71.57949 -12.2154,-0.28244 -17.2929,17.27172 -17.2929,17.27173 v 12.26071 12.26072 h -5.5 -5.5 v 5.74464 5.74465 l 35.0083,-34.99465 35.0083,-34.99464 z m -254.8012,57.28244 9.4605,-9.5 h -9.7303 -9.7302 v 9.5 c 0,5.225 0.1214,9.5 0.2698,9.5 0.1483,0 4.5269,-4.275 9.7302,-9.5 z M 1058.7001,761.0245 v -12.5 l -15,14.97499 -15,14.97499 v 12.5 12.5 l 15,-14.97499 15,-14.97499 z m -361.21313,17.97499 h 5.6953 l -20.9821,-21 -20.9821,-21 h -5.259 -5.2589 v 7.24107 7.24106 l 20.25,20.2748 20.25,20.2748 0.2957,-6.51586 0.2957,-6.51587 z m 187.2132,3 v -9 h 4.059 c 4.5475,0 4.5054,-1.4975 -0.071,-2.50252 -2.0528,-0.45087 -2.9885,-1.25773 -2.9885,-2.57694 0,-2.17228 0.7738,-2.33722 4.4349,-0.94529 2.5426,0.96669 2.5651,0.93115 2.5651,-4.05103 0,-4.79909 -0.1582,-5.09237 -3.5,-6.48867 -1.925,-0.80431 -3.5,-2.13135 -3.5,-2.94897 0,-1.73936 0.9246,-1.84596 4.4349,-0.51133 2.557,0.97218 2.5651,0.95828 2.5651,-4.42055 0,-5.20864 -0.1064,-5.41916 -3.0676,-6.06954 -2.9862,-0.6559 -4.851,-2.89987 -3.5178,-4.23312 0.364,-0.36394 1.9946,-0.15862 3.6236,0.45626 l 2.9618,1.11797 v -5.33558 c 0,-5.21113 -0.082,-5.36253 -3.5,-6.49069 -4.8342,-1.59545 -4.8342,-4.47289 0,-3.56598 l 3.5,0.65661 v -5.04532 -5.04531 h -4 -4 v -6.5 c 0,-5.11111 -0.3205,-6.5 -1.5,-6.5 -1.3109,0 -1.5,5.61111 -1.5,44.5 0,38.88889 0.1891,44.5 1.5,44.5 1.2222,0 1.5,-1.66667 1.5,-9 z m 25,-35.5 c 0,-38.88889 -0.1891,-44.5 -1.5,-44.5 -1.1795,0 -1.5,1.38889 -1.5,6.5 0,5.49373 -0.2709,6.51222 -1.75,6.57895 -1.0454,0.0472 -1.2467,0.28201 -0.5,0.58333 0.6875,0.27741 1.25,1.41503 1.25,2.52804 0,1.53508 -0.4225,1.84972 -1.75,1.30322 -5.1009,-2.09993 -5.25,-2.00584 -5.25,3.31228 0,4.87226 0.1159,5.07732 3.5,6.19418 2.4708,0.81544 3.5,1.75187 3.5,3.18454 0,1.20742 -0.5063,1.83916 -1.25,1.55968 -5.9913,-2.2516 -5.8836,-2.3173 -5.5552,3.38799 0.2895,5.02872 0.4727,5.34985 3.5552,6.22957 2.2544,0.64339 3.25,1.53166 3.25,2.89951 0,1.98344 -0.923,2.02654 -5.25,0.24517 -1.5319,-0.63066 -1.75,-0.0857 -1.75,4.37313 0,4.876 0.1495,5.15603 3.5,6.55596 1.925,0.80432 3.5,2.16036 3.5,3.01342 0,1.8035 -0.8988,1.9202 -4.4349,0.57578 -2.5438,-0.96716 -2.5651,-0.93331 -2.5651,4.08045 0,4.96977 0.068,5.08239 4,6.62694 l 4,1.57124 v 8.84831 c 0,7.1985 0.2797,8.84831 1.5,8.84831 1.3109,0 1.5,-5.61111 1.5,-44.5 z m 216.29483,5.29459 -14.7699,-14.79459 h -12.5056 -12.5055 l 26.993,27.00991 26.9931,27.00991 0.2824,-12.21532 0.2825,-12.21532 z M 876.70017,733.01693 v -12.5 l -21.5,21.48256 -21.5,21.48256 v 12.5 12.5 l 21.5,-21.48256 21.5,-21.48256 z m -149,43.24243 c 0,-2.21928 -3.467,-6.21094 -18.2399,-21 l -18.2398,-18.25987 h -12.5012 -12.5012 l 20.9821,21 20.9821,21 h 9.759 9.7589 z m 350.98703,-11.77579 -14.4871,-14.51592 -0.282,12.16741 c -0.2636,11.37518 -0.1383,12.32033 1.9243,14.51592 2.0884,2.22297 2.8779,2.34851 14.7691,2.34851 h 12.5627 z m -19.9871,-24.22158 v -3.2625 h -9.221 -9.221 l -5.779,5.7187 -5.779,5.71869 v 12.5188 12.5188 l 15,-14.97499 c 13.2082,-13.18616 15,-15.36471 15,-18.2375 z m -334.16393,0.0683 -3.2283,-3.33076 h -12.5418 -12.5417 l 15.4879,15.51508 15.4879,15.51508 0.2821,-12.18431 0.2822,-12.18432 z m 28.0098,-3.1129 -12.1843,-0.28213 -3.3307,3.2283 -3.3308,3.2283 v 12.54174 12.54173 l 15.5151,-15.4879 15.5151,-15.4879 z m 187.677,-0.0226 -4.5228,-0.30479 v -7.67645 -7.67645 l -10,9.96248 -10,9.96248 v 12.50582 12.50583 l 14.5228,-14.48706 14.5227,-14.48707 z m 200.47713,11.8047 v -12 h -12.2344 -12.2343 l 11.9687,12 c 6.5828,6.6 12.0883,12 12.2344,12 0.1461,0 0.2656,-5.4 0.2656,-12 z M 854.70017,737.26736 c 0,-0.14733 -4.725,-0.26787 -10.5,-0.26787 h -10.5 v 10.73213 10.73214 l 10.5,-10.46427 c 5.775,-5.75535 10.5,-10.58481 10.5,-10.73213 z m 179.99993,0.045 c 0,-0.1721 -1.35,-0.31291 -3,-0.31291 -2.7058,0 -3,0.31255 -3,3.18709 v 3.18709 l 3,-2.87418 c 1.65,-1.5808 3,-3.01499 3,-3.18709 z M 876.70017,705.76732 v -9.76787 h 3.5 3.5 v -6.2366 -6.23661 l -14,13.97321 -14,13.97321 v 12.49553 12.49553 l 10.5,-10.46427 10.5,-10.46427 z m 59,2.60593 v -8.16373 l -4.0004,-0.3815 c -3.757,-0.35829 -4.3656,-0.0131 -10,5.67187 l -5.9996,6.05337 v 12.45433 12.45434 l 10,-9.96248 10,-9.96248 z m -85,7.6262 v -16 h -8.5 -8.5 v 16 16 h 8.5 8.5 z m 162.99993,-116.5 v -132.5 l -3.25,-0.0175 c -1.7875,-0.01 -7.3,-0.68289 -12.24997,-1.49619 -11.5208,-1.89291 -18.0704,-1.86833 -30.75656,0.11542 -12.9457,2.02432 -27.5519,2.02031 -39.7434,-0.0109 -5.225,-0.87055 -12.2,-1.58281 -15.5,-1.58281 -3.3,0 -10.275,0.71226 -15.5,1.58281 -12.1915,2.03123 -26.7977,2.03524 -39.7434,0.0109 -5.6339,-0.88089 -13.1714,-1.60169 -16.75,-1.60169 h -6.5066 v 52.5 52.5 h 70.5 70.5 v 65.5 65.5 h -17 -17 v 16 16 h 36.49996 36.49997 v -132.5 z m -109.99993,109 v -3.5 h -8 -8 v 3.5 3.5 h 8 8 z m -42,-8.18709 c 0,-0.1721 -1.35,-0.31291 -3,-0.31291 -2.7058,0 -3,0.31255 -3,3.18709 v 3.18709 l 3,-2.87418 c 1.65,-1.5808 3,-3.01499 3,-3.18709 z m 78,-17.9485 c 0,-0.0918 -1.6631,-1.14811 -3.6958,-2.34742 l -3.6958,-2.18056 8.1775,-4.71303 8.1774,-4.71302 -6.2316,-3.63238 -6.2317,-3.63238 -14.25,14.16425 c -12.5279,12.4525 -14.25,14.55859 -14.25,17.4272 0,3.14009 0.1506,3.26293 4,3.26293 h 4 v 5.23437 5.23437 l 12,-11.96874 c 6.6,-6.58281 12,-12.04382 12,-12.13559 z m -47,-16.86437 c 0,-31.77778 -0.1941,-36.5 -1.5,-36.5 -1,0 -1.5,-1 -1.5,-3 v -3 h 6.5 6.5 v 3 c 0,2.33333 -0.4444,3 -2,3 -1.9635,0 -2,0.66667 -2,36.5 0,35.83333 0.036,36.5 2,36.5 1.959,0 2,-0.66667 2,-32.5 v -32.5 h 16.5 16.5 v -15 -15 h -40 -40 v 15 15 h 17 17 v 32.5 c 0,28.22222 0.1974,32.5 1.5,32.5 1.3059,0 1.5,-4.72222 1.5,-36.5 z m -9.2175,0.69831 -0.2825,-12.2251 -17.8802,17.90388 -17.8802,17.90389 7.8802,4.58188 7.8802,4.58189 10.2825,-10.26067 10.2825,-10.26066 z m 61.1005,23.47298 4.383,-2.4824 -2.9687,-1.53514 -2.9686,-1.53515 -6.9144,7.08192 -6.9143,7.08192 5.5,-3.06437 c 3.025,-1.68541 7.4723,-4.18146 9.883,-5.54678 z m -102.9663,4.00237 c -0.2292,-0.17949 -2.1042,-1.34119 -4.1667,-2.58156 l -3.75,-2.25522 v 2.58156 c 0,2.36236 0.3538,2.58156 4.1667,2.58156 2.2916,0 3.9791,-0.14685 3.75,-0.32634 z m 127.0833,-4.39675 c 0,-4.45202 -0.3571,-5.08336 -6.2211,-11 -3.4216,-3.4523 -6.5876,-6.27691 -7.0354,-6.27691 -0.4479,0 -3.1059,1.30874 -5.9066,2.90831 l -5.0923,2.90831 7.6171,4.34169 c 4.1894,2.38793 7.6218,4.65368 7.6277,5.03501 0.01,0.38133 -1.7907,1.7675 -3.9923,3.08039 -2.2017,1.31289 -3.7017,2.68839 -3.3334,3.05668 0.3683,0.36828 4.1946,0.66961 8.503,0.66961 h 7.8333 z m -123,-2.77691 c 0.6847,-0.825 1.0199,-1.5 0.7449,-1.5 -0.275,0 -1.0602,0.675 -1.7449,1.5 -0.6847,0.825 -1.0199,1.5 -0.7449,1.5 0.275,0 1.0602,-0.675 1.7449,-1.5 z m -6.3527,-4.13917 4.5034,-2.63917 -4.7878,-4.86083 c -2.6332,-2.67346 -4.9171,-4.86083 -5.0753,-4.86083 -0.1582,0 -0.2876,3.375 -0.2876,7.5 0,4.125 0.2574,7.5 0.5719,7.5 0.3146,0 2.5985,-1.18763 5.0754,-2.63917 z m 87.1853,-16.72005 18.3098,-18.35922 -3.6284,-2.14078 c -2.7308,-1.61125 -5.2787,-2.14078 -10.3003,-2.14078 h -6.6719 l -8.2709,8.22792 -8.2709,8.22792 v 12.27208 c 0,6.74965 0.1176,12.27208 0.2614,12.27208 0.1438,0 8.5008,-8.26165 18.5712,-18.35922 z m 28.1999,-25.09952 -14.0325,-14.03249 v 5.69308 5.69308 l 9.4782,5.30253 c 5.2129,2.9164 9.4873,5.75254 9.4986,6.30254 0.011,0.55 -2.8906,2.56961 -6.4487,4.48801 l -6.4692,3.48801 3.6124,3.69943 c 1.9868,2.03469 4.9155,4.2392 6.5082,4.89892 1.5928,0.65972 2.7074,1.70037 2.477,2.31256 -0.2305,0.61219 1.6651,3.2691 4.2123,5.90424 l 4.6312,4.79116 0.2825,-12.25429 0.2825,-12.25429 z m -71.0325,5.22214 v -2.7634 h -9.7813 -9.7813 l -5.8875,5.94961 -5.8876,5.94961 3.1625,1.80039 c 1.7394,0.99022 3.1643,2.02539 3.1665,2.30039 0,0.275 -3.5671,2.51237 -7.9316,4.97193 l -7.9355,4.47193 6.6879,3.74406 6.6879,3.74406 13.75,-13.70259 c 11.0438,-11.00568 13.75,-14.24648 13.75,-16.46599 z m -37.0237,13.2366 c 0,-0.53689 -11.454,-7 -12.4055,-7 -0.7836,0 -0.7255,12.51195 0.062,13.29915 0.63,0.63 12.3438,-5.34765 12.3438,-6.29915 z m 72.0237,-15.71584 c 0,-0.15629 -2.475,-0.28416 -5.5,-0.28416 h -5.5 v 5.71584 5.71584 l 5.5,-5.43168 c 3.025,-2.98742 5.5,-5.55955 5.5,-5.71584 z m -64.5,4.71584 c 4.4327,-4.50035 4.6914,-5 2.5893,-5 -1.2846,0 -4.954,1.43948 -8.1543,3.19885 l -5.8187,3.19885 2.6919,1.72805 c 1.4805,0.95043 2.9337,1.76095 3.2294,1.80115 0.2957,0.0402 2.7538,-2.1769 5.4624,-4.9269 z m 89.2898,-48.7103 -25.2751,-25.2897 h -12.4939 -12.494 l 13.9732,14 13.9732,14 h 9.7634 9.7634 v 9.73706 9.73705 l 13.75,13.77933 13.75,13.77933 0.2825,-12.22668 0.2824,-12.22669 z m -106.4276,46.43472 c 1.6253,-1.18846 1.5701,-1.43943 -0.8089,-3.67432 l -2.5533,-2.39873 v 3.67432 c 0,3.94828 0.6292,4.39716 3.3622,2.39873 z m 13.4227,-13.37789 0.2849,-5.84653 -8.5349,-8.47792 -8.5349,-8.47792 v 12.44007 12.44007 l 4.1949,4.27429 4.1949,4.27429 4.0551,-2.38991 c 3.9303,-2.31637 4.0639,-2.56979 4.34,-8.23644 z m 2.7815,-30.53353 c 2.2583,-0.28324 1.4468,-1.35719 -8.5354,-11.29595 l -11.031,-10.98294 v 12.46206 12.46205 l 8.25,8.29724 8.25,8.29723 0.2855,-9.46334 c 0.279,-9.25041 0.3416,-9.47039 2.7809,-9.77635 z m 105.2339,-17.51343 -10.2646,-10.29957 h -12.5095 -12.5095 l 22.4916,22.5113 22.4917,22.5113 0.2824,-12.21173 0.2824,-12.21172 z m -86.3003,3.70043 -13.9732,-14 h -12.5 -12.5 l 13.9732,14 13.9732,14 h 12.5 12.5 z m 30,0 -13.9732,-14 h -12.5 -12.5 l 13.9732,14 13.9732,14 h 12.5 12.5 z m 66.5,-6.5 v -7.5 h -7.725 -7.7249 l 7.4499,7.5 c 4.0975,4.125 7.5737,7.5 7.725,7.5 0.1512,0 0.275,-3.375 0.275,-7.5 z M 536.57183,460.36219 c 5.84559,-0.90079 15.01417,-1.68829 20.37463,-1.75 l 9.7463,-0.1122 0.004,-40.25 0.003,-40.25 h -35 -35.00001 v 40.39671 40.39671 l 8.75,1.16077 c 4.8125,0.63841 9.425,1.30769 10.25,1.48728 3.72566,0.81102 11.06901,0.4313 20.87167,-1.07927 z m 142.00004,-0.009 c 14.4427,-2.23835 27.0923,-2.21813 42.967,0.0687 l 13.3387,1.92149 17.0886,-2.29142 c 18.04,-2.41899 20.6212,-2.38268 41.1457,0.57872 7.244,1.0452 13.3782,1.34326 18.25,0.88674 l 7.3383,-0.68766 V 419.41508 378.0004 h -104 -104 v 41.04531 41.04532 l 3.75,-0.76396 c 5.95442,-1.21305 24.9252,-0.68546 34.75,0.96642 11.9499,2.00917 16.7303,2.01889 29.3717,0.0597 z m 216.9693,-0.51689 16.4183,-2.16409 17.8257,2.28403 17.8257,2.28403 18.2946,-2.27756 18.29466,-2.27756 14.75,1.98331 14.74997,1.98332 v -41.8257 -41.8257 h -89.99993 -90 l 0.01,40.25 0.01,40.25 9.7413,0.18981 c 5.3577,0.10439 13.7913,0.84831 18.7413,1.65314 12.3148,2.0023 14.5627,1.96812 33.341,-0.50703 z m 208.03063,0.51689 c 14.4245,-2.23552 27.0901,-2.21856 42.8848,0.0574 11.5314,1.66165 14.4593,1.75565 22.5,0.72235 25.7704,-3.31174 26.646,-3.36631 35.9895,-2.24309 5.0897,0.61185 10.9415,1.39589 13.004,1.74232 l 3.75,0.62987 V 419.6312 378.00036 h -96.5 -96.5 v 41.61658 41.61657 l 2.75,-0.58537 c 1.5125,-0.32196 7.925,-1.08882 14.25,-1.70415 10.0954,-0.98213 13.1489,-0.87719 25,0.85911 17.1302,2.50976 19.9252,2.55653 32.8717,0.55007 z m 216.3783,-0.42551 7.75,-1.17042 v -40.37844 -40.37844 h -36 -36 l 8e-4,40.25 9e-4,40.25 11.2491,0.14587 c 6.1871,0.0802 15.2992,0.85372 20.2492,1.71886 9.5863,1.67546 19.6494,1.54106 32.75,-0.43743 z M 818.70017,308.99999 v -49 h -104 -104 v 49 49 h 104 104 z m 194.99993,0 v -49 h -89.99993 -90 v 49 49 h 90 89.99993 z m 208,0 v -49 h -96.5 -96.5 v 49 49 h 96.5 96.5 z"
       style="fill:#000000" />
    <path
       inkscape:connector-curvature="0"
       id="path827"
       d="m 834.26303,119.73985 527.21997,1.20572"
       style="fill:none;stroke:#000000;stroke-width:1px;stroke-linecap:butt;stroke-linejoin:miter;stroke-opacity:1;marker-start:url(#Arrow1Lstart)" />
    <path
       inkscape:connector-curvature="0"
       id="path831"
       d="M 1026.5845,196.73301 1361.483,120.94557"
       style="fill:none;stroke:#000000;stroke-width:1.00157475;stroke-linecap:butt;stroke-linejoin:miter;stroke-miterlimit:4;stroke-dasharray:none;stroke-opacity:1;marker-start:url(#marker1129)" />
    <text
       id="text835"
       y="118.89728"
       x="1371.7245"
       style="font-style:normal;font-weight:normal;font-size:40px;line-height:1.25;font-family:sans-serif;letter-spacing:0px;word-spacing:0px;fill:#000000;fill-opacity:1;stroke:none"
       xml:space="preserve"><tspan
         y="118.89728"
         x="1371.7245"
         id="tspan833"
         sodipodi:role="line">Ignition Wires</tspan></text>
    <path
       inkscape:connector-curvature="0"
       id="path1475"
       d="m 1255.7396,780.56017 321.5389,-69.52192"
       style="fill:none;stroke:#000000;stroke-width:1px;stroke-linecap:butt;stroke-linejoin:miter;stroke-opacity:1;marker-start:url(#marker1489)" />
    <text
       id="text1479"
       y="724.07361"
       x="1587.4172"
       style="font-style:normal;font-weight:normal;font-size:40px;line-height:1.25;font-family:sans-serif;letter-spacing:0px;word-spacing:0px;fill:#000000;fill-opacity:1;stroke:none"
       xml:space="preserve"><tspan
         y="724.07361"
         x="1587.4172"
         id="tspan1477"
         sodipodi:role="line">Stirrer</tspan></text>
    <path
       inkscape:connector-curvature="0"
       id="path1657"
       d="M 497.56993,990.80823 V 465.73256 l 9.77652,0.88309 c 5.37709,0.4857 10.63063,1.15028 11.67453,1.47685 1.04391,0.32656 10.98832,-0.44639 22.0987,-1.71768 11.11038,-1.27129 21.09349,-1.96884 22.18467,-1.55011 1.62067,0.62191 2.09211,11.46961 2.57445,59.23786 l 0.59047,58.47653 6.82897,11.64838 6.82897,11.64837 V 960.19793 1314.56 h 8.69024 8.69024 V 959.75993 604.95981 l 6.33704,-10.55208 6.33703,-10.55207 0.79231,-58.4259 c 0.43577,-32.13425 1.16709,-58.80069 1.62516,-59.25875 0.45807,-0.45807 8.16698,-0.60929 17.13091,-0.33604 8.96393,0.27325 24.6081,0.45794 34.76482,0.41042 25.88239,-0.12109 48.70821,-0.10764 70.2461,0.0414 10.15672,0.0703 24.00679,-0.12807 30.77794,-0.44076 6.77114,-0.31269 21.27298,-0.0245 32.2263,0.64047 l 19.91514,1.20901 v 131.58503 131.58504 h -86.9024 -86.9024 v 101.38613 101.38613 h 23.89816 23.89816 v 256.36206 256.362 h 204.22063 204.22061 v -256.362 -256.36206 h 23.908 23.908 l -0.3719,-101.02404 -0.372,-101.02404 -59.0212,-0.37834 -59.0212,-0.37833 V 599.19693 467.5608 l 12.2311,-1.73621 c 9.6161,-1.36499 15.0562,-1.35014 25.4443,0.0695 9.3665,1.27998 18.7718,1.44528 32.3064,0.56779 10.5012,-0.68084 24.6332,-0.95725 31.4043,-0.61425 13.6711,0.69251 40.8791,0.67783 63.0043,-0.034 7.966,-0.25629 17.2537,0.022 20.6393,0.61833 l 6.1556,1.0843 V 763.5813 c 0,292.6872 -0.032,296.065 -2.8276,296.065 -2.457,0 -2.8842,1.1865 -3.2589,9.0523 -0.2411,5.061 -1.0698,8.9151 -1.8796,8.7412 -0.7966,-0.1712 -5.6634,-2.0466 -10.8151,-4.1676 -18.5808,-7.65 -34.8688,-4.4657 -42.0505,8.2209 -3.122,5.515 -3.6202,8.1927 -3.6154,19.4318 0.01,14.9987 1.9489,19.9287 10.3858,26.3579 4.8164,3.6703 6.4423,4.0579 17.0199,4.0579 10.1508,0 12.9856,-0.6114 21.4714,-4.6311 l 9.7765,-4.6311 v 10.0625 10.0625 h 24.6223 24.6224 v -9.5694 c 0,-7.113 0.4647,-9.3657 1.8105,-8.7759 15.1855,6.655 20.069,8.1419 26.8414,8.1723 14.2958,0.064 23.6337,-6.0904 27.1366,-17.886 5.1961,-17.4971 0.2891,-35.4561 -11.4073,-41.7491 -9.0605,-4.8749 -24.8399,-3.7738 -37.4432,2.6128 l -6.938,3.5157 v -9.4388 c 0,-9.1025 -0.129,-9.4388 -3.6209,-9.4388 h -3.621 V 920.49822 781.35018 l 8.3185,1.03932 c 7.618,0.9518 8.1518,0.83862 6.3403,-1.34416 -1.088,-1.31091 -1.6827,-2.38347 -1.3216,-2.38347 0.361,0 12.5284,-2.60708 27.0385,-5.7935 14.5101,-3.18642 27.3299,-5.79349 28.4883,-5.79349 1.8374,0 2.1063,47.80372 2.1063,374.40442 v 374.4046 H 912.52889 497.56993 Z"
       style="opacity:0.93800001;fill:#14cddc;fill-opacity:1;stroke:#000000;stroke-width:1.45065415;stroke-linecap:butt;stroke-miterlimit:4;stroke-dasharray:none;stroke-dashoffset:0;stroke-opacity:1" />
    <path
       inkscape:connector-curvature="0"
       id="path1659"
       d="M 1256.5175,622.38898 V 465.86842 l 3.773,-0.94696 c 2.0751,-0.52083 10.5515,-0.11067 18.8364,0.91146 9.0811,1.12036 21.6753,1.53277 31.7121,1.03846 l 16.6488,-0.81995 v 149.06335 c 0,81.98484 -0.3373,149.06335 -0.7497,149.06335 -0.4123,0 -12.7844,2.60707 -27.4936,5.7935 -30.3443,6.57344 -30.2987,6.56776 -29.1679,3.62093 1.088,-2.83515 0.984,-2.81129 -6.859,1.57219 l -6.7001,3.74477 z"
       style="opacity:0.93800001;fill:#14cddc;fill-opacity:1;stroke:#000000;stroke-width:1.45065415;stroke-linecap:butt;stroke-miterlimit:4;stroke-dasharray:none;stroke-dashoffset:0;stroke-opacity:1" />
    <path
       inkscape:connector-curvature="0"
       id="path1661"
       d="m 940.77217,715.65763 v -15.20792 h 17.38048 17.38048 v -65.90099 -65.90098 h -70.24611 -70.24611 v -52.29219 -52.29219 l 11.94908,1.23703 c 12.44932,1.28881 39.3347,1.52765 60.46959,0.53719 6.77115,-0.31732 20.78416,-0.0397 31.14003,0.61699 12.71982,0.80657 22.9278,0.64547 31.46236,-0.49653 9.82416,-1.31457 16.02416,-1.28777 27.88116,0.12053 l 15.24767,1.81102 v 131.48798 131.48798 h -36.20927 -36.20936 z"
       style="opacity:0.93800001;fill:#14cddc;fill-opacity:1;stroke:#000000;stroke-width:1.45065415;stroke-linecap:butt;stroke-miterlimit:4;stroke-dasharray:none;stroke-dashoffset:0;stroke-opacity:1" />
    <text
       id="text1665"
       y="944.22638"
       x="1542.5176"
       style="font-style:normal;font-weight:normal;font-size:40px;line-height:1.25;font-family:sans-serif;letter-spacing:0px;word-spacing:0px;fill:#000000;fill-opacity:1;stroke:none"
       xml:space="preserve"><tspan
         y="944.22638"
         x="1542.5176"
         id="tspan1663"
         sodipodi:role="line">Vacuum</tspan></text>
    <path
       inkscape:connector-curvature="0"
       id="path1667"
       d="m 1404.9221,965.95193 131.802,-31.86419"
       style="fill:none;stroke:#000000;stroke-width:1px;stroke-linecap:butt;stroke-linejoin:miter;stroke-opacity:1;marker-start:url(#marker1677)" />
    <path
       inkscape:connector-curvature="0"
       id="path1845"
       d="m 1216.6336,1301.9745 395.4059,-68.0735"
       style="fill:none;stroke:#000000;stroke-width:1px;stroke-linecap:butt;stroke-linejoin:miter;stroke-opacity:1;marker-start:url(#marker1855)" />
    <text
       id="text2025"
       y="1239.6946"
       x="1617.833"
       style="font-style:normal;font-weight:normal;font-size:40px;line-height:1.25;font-family:sans-serif;letter-spacing:0px;word-spacing:0px;fill:#000000;fill-opacity:1;stroke:none"
       xml:space="preserve"><tspan
         y="1239.6946"
         x="1617.833"
         id="tspan2023"
         sodipodi:role="line">Water</tspan></text>
    <path
       inkscape:connector-curvature="0"
       id="path2027"
       d="M 864.67887,1296.181 282.4328,1200.5884"
       style="fill:none;stroke:#000000;stroke-width:1px;stroke-linecap:butt;stroke-linejoin:miter;stroke-opacity:1" />
    <text
       id="text2031"
       y="1180.3113"
       x="15.932106"
       style="font-style:normal;font-weight:normal;font-size:40px;line-height:1.25;font-family:sans-serif;letter-spacing:0px;word-spacing:0px;fill:#000000;fill-opacity:1;stroke:none"
       xml:space="preserve"><tspan
         y="1180.3113"
         x="15.932106"
         id="tspan2029"
         sodipodi:role="line">Sample Holder</tspan></text>
    <path
       inkscape:connector-curvature="0"
       id="path2033"
       d="M 582.24607,919.60401 139.04384,796.49228"
       style="fill:none;stroke:#000000;stroke-width:1px;stroke-linecap:butt;stroke-linejoin:miter;stroke-opacity:1" />
    <text
       id="text2037"
       y="786.35364"
       x="0"
       style="font-style:normal;font-weight:normal;font-size:40px;line-height:1.25;font-family:sans-serif;letter-spacing:0px;word-spacing:0px;fill:#000000;fill-opacity:1;stroke:none"
       xml:space="preserve"><tspan
         y="786.35364"
         x="0"
         id="tspan2035"
         sodipodi:role="line">Thermometer</tspan></text>
  </g>
</svg>
