<?xml version="1.0" encoding="UTF-8" standalone="no"?>
<svg
   x="0"
   y="0"
   width="233.67529"
   height="208.79497"
   style="fill:none"
   version="1.1"
   id="svg22674"
   sodipodi:docname="Compound Layers.svg"
   inkscape:version="1.1.2 (b8e25be833, 2022-02-05)"
   xmlns:inkscape="http://www.inkscape.org/namespaces/inkscape"
   xmlns:sodipodi="http://sodipodi.sourceforge.net/DTD/sodipodi-0.dtd"
   xmlns="http://www.w3.org/2000/svg"
   xmlns:svg="http://www.w3.org/2000/svg">
  <defs
     id="defs22678" />
  <sodipodi:namedview
     id="namedview22676"
     pagecolor="#ffffff"
     bordercolor="#666666"
     borderopacity="1.0"
     inkscape:pageshadow="2"
     inkscape:pageopacity="0.0"
     inkscape:pagecheckerboard="0"
     showgrid="false"
     inkscape:zoom="1.5981873"
     inkscape:cx="318.17297"
     inkscape:cy="104.49338"
     inkscape:window-width="1920"
     inkscape:window-height="1017"
     inkscape:window-x="-8"
     inkscape:window-y="-8"
     inkscape:window-maximized="1"
     inkscape:current-layer="svg22674" />
  <svg
     version="1.1"
     id="svg22356"
     width="100%"
     height="100%"
     transform="translate(-13.201172,-69.5)" />
  <svg
     class="role-diagram-draw-area"
     version="1.1"
     id="svg22434"
     width="100%"
     height="100%"
     transform="translate(-13.201172,-69.5)">
    <g
       class="shapes-region"
       style="fill:none;stroke:#000000"
       id="g22426">
      <g
         class="grouped-shape"
         id="g22422">
        <g
           class="composite-shape"
           id="g22360">
          <path
             class="real"
             d="m 50,70 h 50 V 210 H 50 Z"
             style="fill:#d0021b;fill-opacity:1;stroke:#000000;stroke-width:1"
             id="path22358" />
        </g>
        <g
           class="composite-shape"
           id="g22364">
          <path
             class="real"
             d="m 100,70 h 50 v 140 h -50 z"
             style="fill:#f8e71c;fill-opacity:1;stroke:#000000;stroke-width:1"
             id="path22362" />
        </g>
        <g
           class="composite-shape"
           id="g22368">
          <path
             class="real"
             d="m 150,70 h 50 v 140 h -50 z"
             style="fill:#4a90e2;fill-opacity:1;stroke:#000000;stroke-width:1"
             id="path22366" />
        </g>
        <g
           class="arrow-line"
           id="g22372">
          <path
             class="connection real"
             stroke-dasharray="none"
             d="m 50,220 v 40"
             style="fill:none;fill-opacity:1;stroke:#000000;stroke-width:1"
             id="path22370" />
        </g>
        <g
           class="arrow-line"
           id="g22376">
          <path
             class="connection real"
             stroke-dasharray="none"
             d="m 100,220 v 40"
             style="fill:none;fill-opacity:1;stroke:#000000;stroke-width:1"
             id="path22374" />
        </g>
        <g
           class="arrow-line"
           id="g22380">
          <path
             class="connection real"
             stroke-dasharray="none"
             d="m 150,220 v 40"
             style="fill:none;fill-opacity:1;stroke:#000000;stroke-width:1"
             id="path22378" />
        </g>
        <g
           class="arrow-line"
           id="g22384">
          <path
             class="connection real"
             stroke-dasharray="none"
             d="m 200,220 v 40"
             style="fill:none;fill-opacity:1;stroke:#000000;stroke-width:1"
             id="path22382" />
        </g>
        <g
           class="arrow-line"
           id="g22396">
          <path
             class="connection real"
             stroke-dasharray="none"
             d="M 52,230 H 71 98"
             style="fill:none;fill-opacity:1;stroke:#000000;stroke-width:1"
             id="path22386" />
          <g
             stroke="#000"
             transform="rotate(180,50,115)"
             style="stroke:#000000;stroke-width:1"
             id="g22390">
            <path
               d="M 10.93,-3.29 Q 4.96,-0.45 0,0 4.96,0.45 10.93,3.29"
               id="path22388" />
          </g>
          <g
             stroke="#000"
             transform="translate(50,230)"
             style="stroke:#000000;stroke-width:1"
             id="g22394">
            <path
               d="M 10.93,-3.29 Q 4.96,-0.45 0,0 4.96,0.45 10.93,3.29"
               id="path22392" />
          </g>
        </g>
        <g
           class="arrow-line"
           id="g22408">
          <path
             class="connection real"
             stroke-dasharray="none"
             d="m 101,230 h 19 27"
             style="fill:none;fill-opacity:1;stroke:#000000;stroke-width:1"
             id="path22398" />
          <g
             stroke="#000"
             transform="rotate(180,74.5,115)"
             style="stroke:#000000;stroke-width:1"
             id="g22402">
            <path
               d="M 10.93,-3.29 Q 4.96,-0.45 0,0 4.96,0.45 10.93,3.29"
               id="path22400" />
          </g>
          <g
             stroke="#000"
             transform="translate(99,230)"
             style="stroke:#000000;stroke-width:1"
             id="g22406">
            <path
               d="M 10.93,-3.29 Q 4.96,-0.45 0,0 4.96,0.45 10.93,3.29"
               id="path22404" />
          </g>
        </g>
        <g
           class="arrow-line"
           id="g22420">
          <path
             class="connection real"
             stroke-dasharray="none"
             d="m 151,230 h 19 27"
             style="fill:none;fill-opacity:1;stroke:#000000;stroke-width:1"
             id="path22410" />
          <g
             stroke="#000"
             transform="rotate(180,99.5,115)"
             style="stroke:#000000;stroke-width:1"
             id="g22414">
            <path
               d="M 10.93,-3.29 Q 4.96,-0.45 0,0 4.96,0.45 10.93,3.29"
               id="path22412" />
          </g>
          <g
             stroke="#000"
             transform="translate(149,230)"
             style="stroke:#000000;stroke-width:1"
             id="g22418">
            <path
               d="M 10.93,-3.29 Q 4.96,-0.45 0,0 4.96,0.45 10.93,3.29"
               id="path22416" />
          </g>
        </g>
      </g>
      <g
         id="g22424" />
    </g>
    <g
       id="g22428" />
    <g
       id="g22430" />
    <g
       id="g22432" />
  </svg>
  <svg
     width="660"
     height="346"
     style="font-family:Asana-Math, Asana"
     version="1.1"
     id="svg22672"
     transform="translate(-13.201172,-69.5)">
    <g
       id="g22442">
      <g
         id="g22440">
        <g
           id="g22438">
          <text
             x="68"
             y="122"
             style="font-style:normal;font-weight:400;font-size:15px;font-family:Arial, Helvetica, sans-serif;text-decoration:none;text-decoration-line:none;text-decoration-style:solid;text-decoration-color:#000000;dominant-baseline:text-before-edge;white-space:pre;fill:#000000;fill-opacity:1;stroke:none"
             id="text22436">A</text>
        </g>
      </g>
    </g>
    <g
       id="g22450">
      <g
         id="g22448">
        <g
           id="g22446">
          <text
             x="118"
             y="121"
             style="font-style:normal;font-weight:400;font-size:15px;font-family:Arial, Helvetica, sans-serif;text-decoration:none;text-decoration-line:none;text-decoration-style:solid;text-decoration-color:#000000;dominant-baseline:text-before-edge;white-space:pre;fill:#000000;fill-opacity:1;stroke:none"
             id="text22444">B</text>
        </g>
      </g>
    </g>
    <g
       id="g22458">
      <g
         id="g22456">
        <g
           id="g22454">
          <text
             x="168"
             y="121"
             style="font-style:normal;font-weight:400;font-size:15px;font-family:Arial, Helvetica, sans-serif;text-decoration:none;text-decoration-line:none;text-decoration-style:solid;text-decoration-color:#000000;dominant-baseline:text-before-edge;white-space:pre;fill:#000000;fill-opacity:1;stroke:none"
             id="text22452">C</text>
        </g>
      </g>
    </g>
    <g
       id="g22486">
      <g
         id="g22484">
        <g
           id="g22482">
          <g
             id="g22480">
            <g
               id="g22478">
              <g
                 id="g22464">
                <g
                   transform="translate(72,245)"
                   id="g22462">
                  <path
                     transform="scale(0.017,-0.017)"
                     d="M 125,390 69,107 C 68,99 56,61 56,31 56,6 67,-9 86,-9 c 35,0 70,20 148,83 l 31,25 -10,18 -45,-31 C 181,66 161,56 150,56 c -9,0 -14,8 -14,20 0,26 14,107 43,252 l 13,62 h 107 l 11,50 c -38,-4 -72,-6 -110,-6 16,94 27,143 45,197 l -11,15 C 214,634 187,622 156,610 L 131,440 C 87,419 61,408 43,403 l -2,-13 z"
                     stroke="#000000"
                     stroke-opacity="1"
                     stroke-width="8"
                     fill="#000000"
                     fill-opacity="1"
                     id="path22460" />
                </g>
              </g>
              <g
                 id="g22476">
                <g
                   id="g22474">
                  <g
                     id="g22472">
                    <g
                       id="g22470">
                      <g
                         transform="translate(78.15625,248.00938)"
                         id="g22468">
                        <path
                           transform="scale(0.0119,-0.0119)"
                           d="M 271,204 242,77 c -4,-17 -6,-35 -6,-51 0,-22 9,-35 24,-35 23,0 64,26 146,94 l -7,21 C 375,86 346,59 324,59 c -9,0 -15,9 -15,23 0,5 0,8 1,11 l 92,379 -10,9 -33,-18 c -41,15 -58,19 -85,19 -28,0 -48,-5 -75,-18 C 137,433 104,403 79,354 35,265 4,145 4,67 4,23 19,-11 38,-11 c 37,0 117,52 233,215 z m 48,210 C 297,305 278,253 244,201 187,117 126,59 94,59 82,59 76,72 76,99 c 0,64 28,181 63,261 24,55 47,73 95,73 23,0 41,-4 85,-19 z"
                           stroke="#000000"
                           stroke-opacity="1"
                           stroke-width="8"
                           fill="#000000"
                           fill-opacity="1"
                           id="path22466" />
                      </g>
                    </g>
                  </g>
                </g>
              </g>
            </g>
          </g>
        </g>
      </g>
    </g>
    <g
       id="g22514">
      <g
         id="g22512">
        <g
           id="g22510">
          <g
             id="g22508">
            <g
               id="g22506">
              <g
                 id="g22492">
                <g
                   transform="translate(122,247)"
                   id="g22490">
                  <path
                     transform="scale(0.017,-0.017)"
                     d="M 125,390 69,107 C 68,99 56,61 56,31 56,6 67,-9 86,-9 c 35,0 70,20 148,83 l 31,25 -10,18 -45,-31 C 181,66 161,56 150,56 c -9,0 -14,8 -14,20 0,26 14,107 43,252 l 13,62 h 107 l 11,50 c -38,-4 -72,-6 -110,-6 16,94 27,143 45,197 l -11,15 C 214,634 187,622 156,610 L 131,440 C 87,419 61,408 43,403 l -2,-13 z"
                     stroke="#000000"
                     stroke-opacity="1"
                     stroke-width="8"
                     fill="#000000"
                     fill-opacity="1"
                     id="path22488" />
                </g>
              </g>
              <g
                 id="g22504">
                <g
                   id="g22502">
                  <g
                     id="g22500">
                    <g
                       id="g22498">
                      <g
                         transform="translate(128.15625,250.00938)"
                         id="g22496">
                        <path
                           transform="scale(0.0119,-0.0119)"
                           d="m 235,722 -12,11 C 171,707 135,698 63,691 l -4,-21 h 48 c 24,0 34,-7 34,-24 0,-7 -1,-18 -2,-24 L 38,71 c -1,-3 -1,-7 -1,-10 0,-39 48,-72 103,-72 37,0 88,19 131,50 96,68 162,205 162,337 0,38 -9,77 -21,92 -7,9 -20,14 -35,14 -24,0 -54,-8 -82,-22 -51,-27 -84,-57 -146,-136 z m 87,-298 c 26,0 39,-23 39,-72 C 361,288 340,202 310,137 277,68 237,36 183,36 c -46,0 -71,23 -71,65 0,34 15,175 96,260 33,34 85,63 114,63 z"
                           stroke="#000000"
                           stroke-opacity="1"
                           stroke-width="8"
                           fill="#000000"
                           fill-opacity="1"
                           id="path22494" />
                      </g>
                    </g>
                  </g>
                </g>
              </g>
            </g>
          </g>
        </g>
      </g>
    </g>
    <g
       id="g22542">
      <g
         id="g22540">
        <g
           id="g22538">
          <g
             id="g22536">
            <g
               id="g22534">
              <g
                 id="g22520">
                <g
                   transform="translate(166,247)"
                   id="g22518">
                  <path
                     transform="scale(0.017,-0.017)"
                     d="M 125,390 69,107 C 68,99 56,61 56,31 56,6 67,-9 86,-9 c 35,0 70,20 148,83 l 31,25 -10,18 -45,-31 C 181,66 161,56 150,56 c -9,0 -14,8 -14,20 0,26 14,107 43,252 l 13,62 h 107 l 11,50 c -38,-4 -72,-6 -110,-6 16,94 27,143 45,197 l -11,15 C 214,634 187,622 156,610 L 131,440 C 87,419 61,408 43,403 l -2,-13 z"
                     stroke="#000000"
                     stroke-opacity="1"
                     stroke-width="8"
                     fill="#000000"
                     fill-opacity="1"
                     id="path22516" />
                </g>
              </g>
              <g
                 id="g22532">
                <g
                   id="g22530">
                  <g
                     id="g22528">
                    <g
                       id="g22526">
                      <g
                         transform="translate(172.15625,250.00938)"
                         id="g22524">
                        <path
                           transform="scale(0.0119,-0.0119)"
                           d="m 342,330 h 23 c 8,65 15,102 24,128 -24,15 -59,24 -96,24 C 248,483 175,463 118,400 64,352 25,241 25,136 25,40 67,-11 147,-11 c 54,0 102,20 157,65 l 50,41 -8,20 -15,-10 C 259,57 221,40 186,40 c -56,0 -85,40 -85,119 0,108 35,212 84,250 21,16 45,24 76,24 45,0 81,-19 81,-43 z"
                           stroke="#000000"
                           stroke-opacity="1"
                           stroke-width="8"
                           fill="#000000"
                           fill-opacity="1"
                           id="path22522" />
                      </g>
                    </g>
                  </g>
                </g>
              </g>
            </g>
          </g>
        </g>
      </g>
    </g>
    <g
       id="g22570">
      <g
         id="g22568">
        <g
           id="g22566">
          <g
             id="g22564">
            <g
               id="g22562">
              <g
                 id="g22548">
                <g
                   transform="translate(42,273)"
                   id="g22546">
                  <path
                     transform="scale(0.017,-0.017)"
                     d="m 237,-16 c 236,0 335,332 339,520 2,114 -30,198 -157,198 C 159,702 72,412 69,199 67,80 101,-16 237,-16 Z m 164,692 c 135,0 105,-185 84,-295 H 169 c 25,104 103,295 232,295 z M 253,13 C 102,13 147,261 163,349 H 479 C 454,237 396,13 253,13 Z"
                     stroke="#000000"
                     stroke-opacity="1"
                     stroke-width="8"
                     fill="#000000"
                     fill-opacity="1"
                     id="path22544" />
                </g>
              </g>
              <g
                 id="g22560">
                <g
                   id="g22558">
                  <g
                     id="g22556">
                    <g
                       id="g22554">
                      <g
                         transform="translate(52.921875,276.00937)"
                         id="g22552">
                        <path
                           transform="scale(0.0119,-0.0119)"
                           d="m 418,-3 v 30 l -52,3 c -55,3 -65,14 -65,66 V 700 L 60,598 67,548 217,614 V 96 C 217,44 206,33 152,30 L 96,27 V -3 c 154,3 154,3 165,3 31,0 141,-3 157,-3 z"
                           stroke="#000000"
                           stroke-opacity="1"
                           stroke-width="8"
                           fill="#000000"
                           fill-opacity="1"
                           id="path22550" />
                      </g>
                    </g>
                  </g>
                </g>
              </g>
            </g>
          </g>
        </g>
      </g>
    </g>
    <g
       id="g22578">
      <g
         id="g22576">
        <g
           id="g22574">
          <text
             x="12"
             y="132"
             style="font-style:normal;font-weight:400;font-size:15px;font-family:Arial, Helvetica, sans-serif;text-decoration:none;text-decoration-line:none;text-decoration-style:solid;text-decoration-color:#000000;dominant-baseline:text-before-edge;white-space:pre;fill:#d0021b;fill-opacity:1;stroke:none"
             id="text22572">HOT</text>
        </g>
      </g>
    </g>
    <g
       id="g22586">
      <g
         id="g22584">
        <g
           id="g22582">
          <text
             x="206"
             y="132"
             style="font-style:normal;font-weight:400;font-size:15px;font-family:Arial, Helvetica, sans-serif;text-decoration:none;text-decoration-line:none;text-decoration-style:solid;text-decoration-color:#000000;dominant-baseline:text-before-edge;white-space:pre;fill:#4a90e2;fill-opacity:1;stroke:none"
             id="text22580">COLD</text>
        </g>
      </g>
    </g>
    <g
       id="g22614">
      <g
         id="g22612">
        <g
           id="g22610">
          <g
             id="g22608">
            <g
               id="g22606">
              <g
                 id="g22592">
                <g
                   transform="translate(93,275)"
                   id="g22590">
                  <path
                     transform="scale(0.017,-0.017)"
                     d="m 237,-16 c 236,0 335,332 339,520 2,114 -30,198 -157,198 C 159,702 72,412 69,199 67,80 101,-16 237,-16 Z m 164,692 c 135,0 105,-185 84,-295 H 169 c 25,104 103,295 232,295 z M 253,13 C 102,13 147,261 163,349 H 479 C 454,237 396,13 253,13 Z"
                     stroke="#000000"
                     stroke-opacity="1"
                     stroke-width="8"
                     fill="#000000"
                     fill-opacity="1"
                     id="path22588" />
                </g>
              </g>
              <g
                 id="g22604">
                <g
                   id="g22602">
                  <g
                     id="g22600">
                    <g
                       id="g22598">
                      <g
                         transform="translate(103.92187,278.00937)"
                         id="g22596">
                        <path
                           transform="scale(0.0119,-0.0119)"
                           d="M 16,23 V -3 c 187,0 187,3 223,3 36,0 36,-3 229,-3 V 82 C 353,77 307,81 122,77 l 182,193 c 97,103 127,158 127,233 0,115 -78,186 -205,186 -72,0 -121,-20 -170,-70 L 39,483 h 29 l 13,46 c 16,58 52,83 119,83 86,0 141,-54 141,-139 0,-75 -42,-149 -155,-269 z"
                           stroke="#000000"
                           stroke-opacity="1"
                           stroke-width="8"
                           fill="#000000"
                           fill-opacity="1"
                           id="path22594" />
                      </g>
                    </g>
                  </g>
                </g>
              </g>
            </g>
          </g>
        </g>
      </g>
    </g>
    <g
       id="g22642">
      <g
         id="g22640">
        <g
           id="g22638">
          <g
             id="g22636">
            <g
               id="g22634">
              <g
                 id="g22620">
                <g
                   transform="translate(142,275)"
                   id="g22618">
                  <path
                     transform="scale(0.017,-0.017)"
                     d="m 237,-16 c 236,0 335,332 339,520 2,114 -30,198 -157,198 C 159,702 72,412 69,199 67,80 101,-16 237,-16 Z m 164,692 c 135,0 105,-185 84,-295 H 169 c 25,104 103,295 232,295 z M 253,13 C 102,13 147,261 163,349 H 479 C 454,237 396,13 253,13 Z"
                     stroke="#000000"
                     stroke-opacity="1"
                     stroke-width="8"
                     fill="#000000"
                     fill-opacity="1"
                     id="path22616" />
                </g>
              </g>
              <g
                 id="g22632">
                <g
                   id="g22630">
                  <g
                     id="g22628">
                    <g
                       id="g22626">
                      <g
                         transform="translate(152.92188,278.00937)"
                         id="g22624">
                        <path
                           transform="scale(0.0119,-0.0119)"
                           d="m 462,224 c 0,121 -107,142 -154,150 80,62 110,108 110,167 0,89 -74,148 -185,148 -68,0 -113,-19 -161,-67 L 43,498 h 31 l 18,56 c 11,34 74,68 126,68 65,0 118,-53 118,-116 0,-75 -59,-138 -130,-138 -8,0 -19,1 -32,2 l -15,1 -12,-53 7,-6 c 38,17 57,22 84,22 83,0 131,-53 131,-144 C 369,88 308,21 215,21 169,21 128,36 98,64 74,86 61,109 42,163 L 15,153 C 36,92 44,56 50,6 c 53,-18 97,-26 134,-26 123,0 278,107 278,244 z"
                           stroke="#000000"
                           stroke-opacity="1"
                           stroke-width="8"
                           fill="#000000"
                           fill-opacity="1"
                           id="path22622" />
                      </g>
                    </g>
                  </g>
                </g>
              </g>
            </g>
          </g>
        </g>
      </g>
    </g>
    <g
       id="g22670">
      <g
         id="g22668">
        <g
           id="g22666">
          <g
             id="g22664">
            <g
               id="g22662">
              <g
                 id="g22648">
                <g
                   transform="translate(192,275)"
                   id="g22646">
                  <path
                     transform="scale(0.017,-0.017)"
                     d="m 237,-16 c 236,0 335,332 339,520 2,114 -30,198 -157,198 C 159,702 72,412 69,199 67,80 101,-16 237,-16 Z m 164,692 c 135,0 105,-185 84,-295 H 169 c 25,104 103,295 232,295 z M 253,13 C 102,13 147,261 163,349 H 479 C 454,237 396,13 253,13 Z"
                     stroke="#000000"
                     stroke-opacity="1"
                     stroke-width="8"
                     fill="#000000"
                     fill-opacity="1"
                     id="path22644" />
                </g>
              </g>
              <g
                 id="g22660">
                <g
                   id="g22658">
                  <g
                     id="g22656">
                    <g
                       id="g22654">
                      <g
                         transform="translate(202.92188,278.00937)"
                         id="g22652">
                        <path
                           transform="scale(0.0119,-0.0119)"
                           d="M 280,181 V 106 C 280,46 269,32 220,30 L 158,27 V -3 c 133,3 133,3 157,3 24,0 24,0 157,-3 v 30 l -48,3 c -49,3 -60,16 -60,76 v 75 c 59,0 80,-1 108,-4 v 71 L 364,245 365,697 285,667 2,204 v -23 z m 0,64 H 65 l 215,352 z"
                           stroke="#000000"
                           stroke-opacity="1"
                           stroke-width="8"
                           fill="#000000"
                           fill-opacity="1"
                           id="path22650" />
                      </g>
                    </g>
                  </g>
                </g>
              </g>
            </g>
          </g>
        </g>
      </g>
    </g>
  </svg>
</svg>
