<svg xmlns="http://www.w3.org/2000/svg" xmlns:xlink="http://www.w3.org/1999/xlink" width="1080.0" height="1845.0" background="#FFFFFF"><g id="CompositeShape_0" type="COMPO"/><g id="CompositeShape_1" type="COMPO"><path stroke-linecap="round" id="Polygon_9" stroke-linejoin="round" d="M176.9787 1227.0879 C178.1178 1230.4695,  176.37328 1236.2792,  175.33907 1240.0059C174.82199 1241.8691,  174.48253 1243.2117,  174.76993 1243.4695C175.39198 1243.4059,  176.30333 1242.4879,  177.96199 1240.425L560.34766 1240.4249 C551.10376 1215.1461,  533.396 1134.1454,  494.20313 1156.3231C455.63745 1178.1458,  446.57593 1174.6039,  441.14282 1165.485C435.70984 1156.3661,  433.9054 1141.6702,  409.85388 1141.1846C381.46332 1140.6117,  354.5667 1155.5,  327.76526 1165.5334C259.8282 1190.9674,  286.01044 1159.3582,  236.7091 1167.7472C213.19582 1171.7482,  205.6102 1200.1735,  189.80122 1214.9692C179.12248 1224.9642,  176.83853 1226.8248,  176.98691 1227.1932" rough-pts="176.9787,1227.0879 177.32457,1228.96 177.28967,1231.1117 176.97388,1233.4175 176.47693,1235.752 175.89871,1237.9897 175.33907,1240.0059 175.09738,1240.8914 174.89781,1241.6746 174.7528,1242.3397 174.67485,1242.871 174.67638,1243.2528 174.76993,1243.4695 175.28291,1243.3447 175.72734,1242.9723 176.31366,1242.3718 177.05438,1241.528 177.96199,1240.425 560.34766,1240.4249 554.9601,1223.8777 547.8002,1202.4573 538.5062,1180.5778 526.71655,1162.653 512.06946,1153.0968 494.20313,1156.3231 477.25912,1165.2123 464.51376,1170.4237 455.24826,1172.5072 448.74377,1172.012 444.28152,1169.488 441.14282,1165.485 438.6089,1160.5522 435.96094,1155.2399 432.4803,1150.0973 427.44806,1145.6741 420.1455,1142.5199 409.85388,1141.1846 395.77658,1142.0924 381.90945,1145.013 368.21362,1149.3816 354.65027,1154.6342 341.1804,1160.2062 327.76526,1165.5334 300.8548,1173.946 284.91965,1175.547 275.24878,1173.0321 267.13083,1169.0969 255.85466,1166.4365 236.7091,1167.7472 226.16794,1171.6067 217.61055,1178.4801 210.36606,1187.31 203.76355,1197.0398 197.13223,1206.6117 189.80122,1214.9692 185.1338,1219.3195 181.6999,1222.4988 179.33391,1224.6912 177.87013,1226.0814 177.143,1226.854 176.98691,1227.1932 " path-type="area" fill-opacity="0.3960784375667572" fill="#00ff00"/><path stroke-linecap="round" id="Polygon_7" stroke-linejoin="round" d="M176.97879 1227.0879 C176.90233 1226.6235,  176.57346 1224.9138,  176.92696 1224.9531C177.3978 1225.1582,  177.49876 1225.7289,  176.98691 1227.1932" rough-pts="176.97879,1227.0878 176.9101,1226.6837 176.82573,1226.1245 176.77048,1225.5538 176.78926,1225.1155 177.11499,1225.0012 177.25938,1225.1489 177.3395,1225.419 177.33456,1225.8342 177.22392,1226.418 176.98691,1227.1932 " path-type="area" fill-opacity="0.0"/><path stroke-linecap="round" id="Polygon_6" stroke-linejoin="round" d="M175.81339 1225.445 C176.5882 1225.4291,  177.44878 1225.7229,  176.98691 1227.1932C176.90233 1226.6235,  176.57346 1224.9138,  176.92696 1224.9531C176.03693 1225.2797,  175.47603 1225.4617,  175.15414 1225.5544" rough-pts="175.81337,1225.4447 176.27727,1225.4794 176.6942,1225.6301 176.9965,1225.9381 177.1166,1226.4453 176.97879,1227.0878 176.9101,1226.6837 176.82573,1226.1245 176.77048,1225.5538 176.78926,1225.1155 176.92696,1224.9531 176.31975,1225.1718 175.82745,1225.3412 175.44177,1225.4673 175.15414,1225.5544 " path-type="area" fill-opacity="0.0"/><path stroke-linecap="round" id="ConsecLine_0" stroke-linejoin="round" d="M176.9787 1227.0879 C178.1178 1230.4695,  176.37328 1236.2792,  175.33907 1240.0059C174.82199 1241.8691,  174.48253 1243.2117,  174.76993 1243.4695C175.05734 1243.7273,  175.9716 1242.9005,  177.96199 1240.425" stroke="#000000" display="none" stroke-opacity="1.0" fill="none" stroke-width="6.0"/><path stroke-linecap="round" id="ConsecLine_1" stroke-linejoin="round" d="M560.34766 1240.4249 C551.10376 1215.1461,  533.396 1134.1454,  494.20313 1156.3231C455.63745 1178.1458,  446.57593 1174.6039,  441.14282 1165.485C435.70984 1156.3661,  433.9054 1141.6702,  409.85388 1141.1846C381.46332 1140.6117,  354.5667 1155.5,  327.76526 1165.5334C259.8282 1190.9674,  286.01044 1159.3582,  236.7091 1167.7472C213.19582 1171.7482,  205.6102 1200.1735,  189.80122 1214.9692C179.12248 1224.9642,  176.83853 1226.8248,  176.98691 1227.1932C177.06119 1227.3773,  176.50276 1224.9059,  176.92696 1224.9531C177.33289 1224.9657,  177.60114 1225.436,  176.98691 1227.1932" stroke="#000000" fill="none" stroke-width="6.0" stroke-opacity="1.0"/><path stroke-linecap="round" id="ConsecLine_2" stroke-linejoin="round" d="M176.92696 1224.9531 C175.59192 1225.443,  174.9974 1225.6074,  174.83931 1225.6335C174.68121 1225.6597,  174.9595 1225.5476,  175.37006 1225.4846C176.19106 1225.3586,  177.54115 1225.4288,  176.98691 1227.1932" stroke="#000000" fill="none" stroke-width="6.0" stroke-opacity="1.0"/><line id="StraightLine_0" x1="177.96199" y2="1240.4249" x2="560.34766" stroke-linecap="round" y1="1240.425" stroke="#000000" fill="none" stroke-width="6.0" stroke-opacity="1.0"/></g><g id="CompositeShape_2" type="COMPO"/><g id="CompositeShape_3" type="COMPO"><path stroke-linecap="round" id="Polygon_10" stroke-linejoin="round" d="M626.80304 1234.2869 L565.5531 1144.0502 L565.5531 1021.5502 L688.0531 1021.5502 L688.05304 1144.0502 L626.80304 1234.2869 " rough-pts="626.80304,1234.2869 565.5531,1144.0502 565.5531,1021.5502 688.0531,1021.5502 688.05304,1144.0502 " path-type="area" fill-opacity="0.0"/><line id="StraightLine_1" x1="565.5531" y2="1021.5502" x2="565.5531" stroke-linecap="round" y1="1144.0502" stroke="#000000" fill="none" stroke-width="6.0" stroke-opacity="1.0"/><line id="StraightLine_2" x1="565.5531" y2="1021.5502" x2="688.0531" stroke-linecap="round" y1="1021.5502" stroke="#000000" fill="none" stroke-width="6.0" stroke-opacity="1.0"/><line id="StraightLine_3" x1="688.0531" y2="1144.0502" x2="688.0531" stroke-linecap="round" y1="1021.5502" stroke="#000000" fill="none" stroke-width="6.0" stroke-opacity="1.0"/><line id="StraightLine_4" x1="688.05304" y2="1234.2869" x2="626.80304" stroke-linecap="round" y1="1144.0502" stroke="#000000" fill="none" stroke-width="6.0" stroke-opacity="1.0"/><line id="StraightLine_5" x1="626.80304" y2="1144.05" x2="565.5531" stroke-linecap="round" y1="1234.2869" stroke="#000000" fill="none" stroke-width="6.0" stroke-opacity="1.0"/></g><g id="CompositeShape_4" type="COMPO"><line id="StraightLine_6" x1="484.89117" y2="1021.5499" x2="484.89124" stroke-linecap="round" y1="626.01825" stroke="#000000" fill="none" stroke-width="6.0" stroke-opacity="1.0"/><line id="StraightLine_7" x1="484.89124" y2="1021.5499" x2="760.8911" stroke-linecap="round" y1="1021.5499" stroke="#000000" fill="none" stroke-width="6.0" stroke-opacity="1.0"/><line id="StraightLine_9" x1="760.8911" y2="626.01825" x2="484.89117" stroke-linecap="round" y1="626.01825" stroke="#000000" fill="none" stroke-width="6.0" stroke-opacity="1.0"/></g><line id="StraightLine_8" x1="760.8911" y2="626.01825" x2="760.8911" stroke-linecap="round" y1="1021.5499" stroke="#000000" fill="none" stroke-width="6.0" stroke-opacity="1.0"/><g id="CompositeShape_7" type="COMPO"><path stroke-linecap="round" id="Polygon_21" stroke-linejoin="round" d="M594.1488 1322.2097 L627.9499 1339.6725 L686.1235 1300.1938 L686.1234 1240.4252 L1028.9379 1240.4252 L1028.9379 1514.7212 L594.14874 1515.6084 L594.1488 1322.2096 " rough-pts="594.1488,1322.2097 627.9499,1339.6725 686.1235,1300.1938 686.1234,1240.4252 1028.9379,1240.4252 1028.9379,1514.7212 594.14874,1515.6084 " path-type="area" fill-opacity="0.4000000059604645" fill="#ff0000"/><path stroke-linecap="round" id="Polygon_20" stroke-linejoin="round" d="M594.1488 1322.2097 L560.3478 1304.7471 L560.34766 1240.4249 L181.12518 1240.4253 L181.12463 1516.4513 L594.14874 1515.6084 L594.1488 1322.2096 " rough-pts="594.1488,1322.2097 560.3478,1304.7471 560.34766,1240.4249 181.12518,1240.4253 181.12463,1516.4513 594.14874,1515.6084 " path-type="area" fill-opacity="0.4000000059604645" fill="#ff0000"/><path stroke-linecap="round" id="Polygon_16" stroke-linejoin="round" d="M1028.9379 1240.4252 L1043.9454 1240.4252 C1035.2687 1215.1464,  1018.6477 1134.1456,  981.85986 1156.3232C945.6605 1178.1459,  937.15466 1174.6041,  932.05505 1165.4851C926.9553 1156.3662,  925.2617 1141.6704,  902.68665 1141.1848C876.0376 1140.6118,  850.7919 1155.5002,  825.6349 1165.5337C761.8668 1190.9675,  786.4424 1159.3584,  740.1664 1167.7474C718.0962 1171.7484,  710.9758 1200.1736,  696.13684 1214.9694C687.9525 1221.2537,  683.6847 1230.7632,  686.1234 1240.4252C692.7283 1239.9501,  688.3331 1238.4751,  694.938 1238.0L1028.9379 1237.0 L1028.9379 1240.4252 " rough-pts="1028.9379,1240.4252 1043.9454,1240.4252 1038.8884,1223.8779 1032.1678,1202.4575 1023.4442,1180.578 1012.3782,1162.6533 998.62976,1153.0969 981.85986,1156.3232 965.95544,1165.2123 953.99207,1170.4237 945.29504,1172.5073 939.1897,1172.0122 935.0011,1169.4882 932.05505,1165.4851 929.67664,1160.5524 927.19104,1155.24 923.9241,1150.0975 919.2008,1145.6743 912.34644,1142.5203 902.68665,1141.1848 889.4729,1142.0927 876.45654,1145.0131 863.6013,1149.3818 850.8701,1154.6344 838.2269,1160.2064 825.6349,1165.5337 800.37573,1173.9462 785.41846,1175.5472 776.3412,1173.0323 768.7213,1169.0969 758.13696,1166.4368 740.1664,1167.7474 730.2721,1171.607 722.23975,1178.4802 715.4398,1187.3104 709.24255,1197.0398 703.01807,1206.6118 696.13684,1214.9694 692.38403,1218.366 689.3612,1222.2148 687.1465,1226.4305 685.8169,1230.9279 685.4501,1235.6211 686.1234,1240.4252 688.61096,1240.1135 689.87634,1239.6908 690.53076,1239.2125 691.18494,1238.7341 692.4503,1238.3115 694.938,1238.0 1028.9379,1237.0 " path-type="area" fill-opacity="0.3960784375667572" fill="#00ff00"/><path stroke-linecap="round" id="Polygon_17" stroke-linejoin="round" d="M1028.9379 1240.4252 L686.1234 1240.4252 C692.7283 1239.9501,  688.3331 1238.4751,  694.938 1238.0L1028.9379 1237.0 L1028.9379 1240.4252 " rough-pts="1028.9379,1240.4252 686.1234,1240.4252 688.61096,1240.1135 689.87634,1239.6908 690.53076,1239.2125 691.18494,1238.7341 692.4503,1238.3115 694.938,1238.0 1028.9379,1237.0 " path-type="area" fill-opacity="0.3960784375667572" fill="#00ff00"/><line id="StraightLine_10" x1="181.12518" y2="1516.4513" x2="181.12466" stroke-linecap="round" y1="1240.4253" stroke="#000000" display="none" stroke-opacity="1.0" fill="none" stroke-width="6.0"/><path stroke-linecap="round" id="ConsecLine_3" stroke-linejoin="round" d="M1043.9454 1240.4252 C1035.2687 1215.1464,  1018.6477 1134.1456,  981.85986 1156.3232C945.6605 1178.1459,  937.15466 1174.6041,  932.05505 1165.4851C926.9553 1156.3662,  925.2617 1141.6704,  902.68665 1141.1848C876.0376 1140.6118,  850.7919 1155.5002,  825.6349 1165.5337C761.8668 1190.9675,  786.4424 1159.3584,  740.1664 1167.7474C718.0962 1171.7484,  710.9758 1200.1736,  696.13684 1214.9694" stroke="#000000" display="none" stroke-opacity="1.0" fill="none" stroke-width="6.0"/><line id="StraightLine_229" x1="686.1235" y2="1300.1938" x2="762.21436" stroke-linecap="round" y1="1300.1938" stroke="#000000" fill="none" stroke-width="6.0" stroke-opacity="1.0"/><path stroke-linecap="round" id="ConsecLine_18" stroke-linejoin="round" d="M694.938 1238.0 C688.3331 1238.4751,  692.7283 1239.9501,  686.1234 1240.4252" stroke="#000000" fill="none" stroke-width="6.0" stroke-opacity="1.0"/><line id="StraightLine_225" x1="1028.9379" y2="1516.4513" x2="181.12463" stroke-linecap="round" y1="1514.7212" stroke="#000000" display="none" stroke-opacity="1.0" fill="none" stroke-width="6.0"/><line id="StraightLine_236" x1="594.1488" y2="1349.0157" x2="571.3632" stroke-linecap="round" y1="1322.2097" stroke="#000000" fill="none" stroke-width="6.0" stroke-opacity="1.0"/><line id="StraightLine_230" x1="762.21436" y2="1300.194" x2="762.21436" stroke-linecap="round" y1="1376.2847" stroke="#000000" fill="none" stroke-width="6.0" stroke-opacity="1.0"/><line id="StraightLine_226" x1="560.34766" y2="1240.4253" x2="181.12517" stroke-linecap="round" y1="1240.4249" stroke="#000000" display="none" stroke-opacity="1.0" fill="none" stroke-width="6.0"/><line id="StraightLine_242" x1="594.1488" y2="1349.0159" x2="616.93445" stroke-linecap="round" y1="1322.2097" stroke="#000000" fill="none" stroke-width="6.0" stroke-opacity="1.0"/><line id="StraightLine_223" x1="1028.9379" y2="1514.7211" x2="1028.9379" stroke-linecap="round" y1="1237.0" stroke="#000000" display="none" stroke-opacity="1.0" fill="none" stroke-width="6.0"/><line id="StraightLine_16" x1="686.1234" y2="1240.4252" x2="1043.9454" stroke-linecap="round" y1="1240.4252" stroke="#000000" display="none" stroke-opacity="1.0" fill="none" stroke-width="6.0"/><path id="CircleArc_0" stroke-linejoin="round" middle-point="688.688,1226.4497" start-point="696.13684,1214.9694" circle-center="715.44824,1240.1195" path-type="circle-arc" stroke-linecap="round" d="M696.13684 1214.9694 C687.9525 1221.2537,  683.6847 1230.7632,  686.1234 1240.4252" end-point="686.1234,1240.4252" stroke="#000000" display="none" stroke-opacity="1.0" fill="none" stroke-width="6.0"/><path id="CircleArc_2" stroke-linejoin="round" middle-point="751.0,1313.0" start-point="762.21436,1300.194" path-type="circle-arc" stroke-linecap="round" d="M762.21436 1300.194 C752.1072 1313.5969,  752.1072 1313.5969,  742.0 1327.0" end-point="742.0,1327.0" stroke="#000000" fill="none" stroke-width="6.0" stroke-opacity="1.0"/><line id="StraightLine_17" x1="560.34766" y2="1240.4249" x2="560.34766" stroke-linecap="round" y1="1304.747" stroke="#000000" display="none" stroke-opacity="1.0" fill="none" stroke-width="6.0"/><line id="StraightLine_233" x1="762.21423" y2="1327.0" x2="784.9999" stroke-linecap="round" y1="1300.194" stroke="#000000" fill="none" stroke-width="6.0" stroke-opacity="1.0"/><line id="StraightLine_18" x1="627.9498" y2="1304.7471" x2="560.3478" stroke-linecap="round" y1="1339.6725" stroke="#000000" display="none" stroke-opacity="1.0" fill="none" stroke-width="6.0"/><line id="StraightLine_176" x1="686.1234" y2="1300.194" x2="686.1234" stroke-linecap="round" y1="1240.4252" stroke="#000000" display="none" stroke-opacity="1.0" fill="none" stroke-width="6.0"/><line id="StraightLine_235" x1="594.14874" y2="1322.2096" x2="594.1488" stroke-linecap="round" y1="1598.2356" stroke="#000000" fill="none" stroke-width="6.0" stroke-opacity="1.0"/><line id="StraightLine_211" x1="686.1235" y2="1339.6725" x2="627.9499" stroke-linecap="round" y1="1300.194" stroke="#000000" display="none" stroke-opacity="1.0" fill="none" stroke-width="6.0"/><line id="StraightLine_212" x1="694.938" y2="1237.0" x2="1028.9379" stroke-linecap="round" y1="1238.0" stroke="#000000" fill="none" stroke-width="6.0" stroke-opacity="1.0"/></g><text boxheight="342" id="TextShape_0" y="1098.1938" gravity="17" transform="rotate(0.0,491.75287,1098.1938)" x="491.75287" font-size="48.0" font-name="Default-Regular" width="548" font-family="Default" fill-opacity="1.0" stroke="#000000" fill="#000000"><tspan id="TextShape_0_0" y="1277.0688" x="765.75287" text-anchor="middle">75mm</tspan></text><g id="CompositeShape_17" type="COMPO"/><text boxheight="240" id="TextShape_3" y="871.5499" gravity="17" transform="rotate(0.0,677.10516,871.5499)" x="677.10516" font-size="48.0" font-name="Default-Regular" width="384" font-family="Default" fill-opacity="1.0" stroke="#000000" fill="#000000"><tspan id="TextShape_3_0" y="999.4249" x="869.10516" text-anchor="middle">Mass</tspan></text><g id="CompositeShape_19" type="COMPO"/><g id="UserGroupShape_0" type="USERG"><text boxheight="240" id="TextShape_1" y="1427.7717" gravity="17" transform="rotate(0.0,423.94348,1427.7717)" x="423.94348" font-size="48.0" font-name="Default-Regular" width="384" font-family="Default" fill-opacity="1.0" stroke="#000000" fill="#000000"><tspan id="TextShape_1_0" y="1554.6467" x="615.9435" text-anchor="middle">F</tspan></text><text boxheight="240" id="TextShape_2" y="1448.7351" gravity="17" transform="rotate(0.0,479.5581,1448.7351)" x="479.5581" font-size="40.05154" font-name="Default-Regular" width="384" font-family="Default" fill-opacity="1.0" stroke="#000000" fill="#000000"><tspan id="TextShape_2_0" y="1577.2675" x="671.5581" text-anchor="middle">fric </tspan></text></g><g id="CompositeShape_22" type="COMPO"/><g id="CompositeShape_32" type="COMPO"><line id="StraightLine_290" x1="801.6925" y2="1021.5499" x2="760.8911" stroke-linecap="round" y1="1065.5332" stroke="#000000" fill="none" stroke-width="6.0" stroke-opacity="1.0"/><line id="StraightLine_292" x1="842.4927" y2="1065.5332" x2="801.6925" stroke-linecap="round" y1="1021.5499" stroke="#000000" fill="none" stroke-width="6.0" stroke-opacity="1.0"/><line id="StraightLine_291" x1="801.6925" y2="1065.5332" x2="801.6925" stroke-linecap="round" y1="734.7577" stroke="#000000" fill="none" stroke-width="6.0" stroke-opacity="1.0"/></g></svg>