<?xml version="1.0" encoding="utf-8"?><svg width="100%" height="100%" version="1.1" viewBox="164.6649 616.0182 889.2801 992.2178" style="background-color:#FFFFFF" xmlns:xlink="http://www.w3.org/1999/xlink" xmlns:inkscape="http://www.inkscape.org/namespaces/inkscape" xmlns="http://www.w3.org/2000/svg"><defs /><g id="layer1" inkscape:label="CompositeShape_0" inkscape:groupmode="layer"><line x1="760.8911" y1="1021.55" x2="760.8911" y2="626.0182" opacity="1" stroke="#000000" stroke-opacity="1" stroke-width="6" stroke-linecap="round" stroke-linejoin="miter" stroke-dasharray="none" /><text x="731.7529" y="1297.794" font-size="48" fill="#000000" fill-opacity="1" font-family="Default" font-weight="normal" font-style="normal">75mm</text><text x="807.1052" y="891.1499" font-size="48" fill="#000000" fill-opacity="1" font-family="Default" font-weight="normal" font-style="normal">Mass</text><line x1="421.6925" y1="1045.533" x2="380.8911" y2="1001.55" opacity="1" stroke="#000000" stroke-opacity="1" stroke-width="6" stroke-linecap="round" stroke-linejoin="miter" stroke-dasharray="none" /><line x1="462.4927" y1="1001.55" x2="421.6925" y2="1045.533" opacity="1" stroke="#000000" stroke-opacity="1" stroke-width="6" stroke-linecap="round" stroke-linejoin="miter" stroke-dasharray="none" /><line x1="421.6925" y1="714.7577" x2="421.6925" y2="1045.533" opacity="1" stroke="#000000" stroke-opacity="1" stroke-width="6" stroke-linecap="round" stroke-linejoin="miter" stroke-dasharray="none" /><text x="463.9435" y="1427.372" font-size="48" fill="#000000" fill-opacity="1" font-family="Default" font-weight="normal" font-style="normal">F</text><text x="479.5581" y="1441.552" font-size="40.05154" fill="#000000" fill-opacity="1" font-family="Default" font-weight="normal" font-style="normal">resist</text></g><g id="layer2" inkscape:label="CompositeShape_1" inkscape:groupmode="layer"><path d="M176.9787 1227.088 C178.1178 1230.469 176.3733 1236.279 175.3391 1240.006 C174.822 1241.869 174.4825 1243.212 174.7699 1243.469 C175.392 1243.406 176.3033 1242.488 177.962 1240.425 L560.3477 1240.425 C551.1038 1215.146 533.396 1134.145 494.2031 1156.323 C455.6375 1178.146 446.5759 1174.604 441.1428 1165.485 C435.7098 1156.366 433.9054 1141.67 409.8539 1141.185 C381.4633 1140.612 354.5667 1155.5 327.7653 1165.533 C259.8282 1190.967 286.0104 1159.358 236.7091 1167.747 C213.1958 1171.748 205.6102 1200.173 189.8012 1214.969 C179.1225 1224.964 176.8385 1226.825 176.9869 1227.193" opacity="1" fill="#00FF00" fill-opacity="0.3960784" /><path d="M176.9788 1227.088 C176.9023 1226.624 176.5735 1224.914 176.927 1224.953 C177.3978 1225.158 177.4988 1225.729 176.9869 1227.193" opacity="1" fill="#FFFFFF" fill-opacity="0" /><path d="M175.8134 1225.445 C176.5882 1225.429 177.4488 1225.723 176.9869 1227.193 C176.9023 1226.624 176.5735 1224.914 176.927 1224.953 C176.0369 1225.28 175.476 1225.462 175.1541 1225.554" opacity="1" fill="#FFFFFF" fill-opacity="0" /><path d="M176.9787 1227.088 C178.1178 1230.469 176.3733 1236.279 175.3391 1240.006 C174.822 1241.869 174.4825 1243.212 174.7699 1243.469 C175.0573 1243.727 175.9716 1242.901 177.962 1240.425" opacity="1" stroke="#000000" stroke-opacity="1" stroke-width="6" stroke-linecap="round" stroke-linejoin="round" stroke-dasharray="none" fill-opacity="0" /><path d="M560.3477 1240.425 C551.1038 1215.146 533.396 1134.145 494.2031 1156.323 C455.6375 1178.146 446.5759 1174.604 441.1428 1165.485 C435.7098 1156.366 433.9054 1141.67 409.8539 1141.185 C381.4633 1140.612 354.5667 1155.5 327.7653 1165.533 C259.8282 1190.967 286.0104 1159.358 236.7091 1167.747 C213.1958 1171.748 205.6102 1200.173 189.8012 1214.969 C179.1225 1224.964 176.8385 1226.825 176.9869 1227.193 C177.0612 1227.377 176.5028 1224.906 176.927 1224.953 C177.3329 1224.966 177.6011 1225.436 176.9869 1227.193" opacity="1" stroke="#000000" stroke-opacity="1" stroke-width="6" stroke-linecap="round" stroke-linejoin="round" stroke-dasharray="none" fill-opacity="0" /><path d="M176.927 1224.953 C175.5919 1225.443 174.9974 1225.607 174.8393 1225.634 C174.6812 1225.66 174.9595 1225.548 175.3701 1225.485 C176.1911 1225.359 177.5412 1225.429 176.9869 1227.193" opacity="1" stroke="#000000" stroke-opacity="1" stroke-width="6" stroke-linecap="round" stroke-linejoin="round" stroke-dasharray="none" fill-opacity="0" /><line x1="177.962" y1="1240.425" x2="560.3477" y2="1240.425" opacity="1" stroke="#000000" stroke-opacity="1" stroke-width="6" stroke-linecap="round" stroke-linejoin="miter" stroke-dasharray="none" /></g><g id="layer3" inkscape:label="CompositeShape_2" inkscape:groupmode="layer" /><g id="layer4" inkscape:label="CompositeShape_3" inkscape:groupmode="layer"><path d="M626.803 1234.287 L565.5531 1144.05 L565.5531 1021.55 L688.0531 1021.55 L688.053 1144.05 L626.803 1234.287" opacity="1" fill="#FFFFFF" fill-opacity="0" /><line x1="565.5531" y1="1144.05" x2="565.5531" y2="1021.55" opacity="1" stroke="#000000" stroke-opacity="1" stroke-width="6" stroke-linecap="round" stroke-linejoin="miter" stroke-dasharray="none" /><line x1="565.5531" y1="1021.55" x2="688.0531" y2="1021.55" opacity="1" stroke="#000000" stroke-opacity="1" stroke-width="6" stroke-linecap="round" stroke-linejoin="miter" stroke-dasharray="none" /><line x1="688.0531" y1="1021.55" x2="688.0531" y2="1144.05" opacity="1" stroke="#000000" stroke-opacity="1" stroke-width="6" stroke-linecap="round" stroke-linejoin="miter" stroke-dasharray="none" /><line x1="688.053" y1="1144.05" x2="626.803" y2="1234.287" opacity="1" stroke="#000000" stroke-opacity="1" stroke-width="6" stroke-linecap="round" stroke-linejoin="miter" stroke-dasharray="none" /><line x1="626.803" y1="1234.287" x2="565.5531" y2="1144.05" opacity="1" stroke="#000000" stroke-opacity="1" stroke-width="6" stroke-linecap="round" stroke-linejoin="miter" stroke-dasharray="none" /></g><g id="layer5" inkscape:label="CompositeShape_4" inkscape:groupmode="layer"><line x1="484.8912" y1="626.0182" x2="484.8912" y2="1021.55" opacity="1" stroke="#000000" stroke-opacity="1" stroke-width="6" stroke-linecap="round" stroke-linejoin="miter" stroke-dasharray="none" /><line x1="484.8912" y1="1021.55" x2="760.8911" y2="1021.55" opacity="1" stroke="#000000" stroke-opacity="1" stroke-width="6" stroke-linecap="round" stroke-linejoin="miter" stroke-dasharray="none" /><line x1="760.8911" y1="626.0182" x2="484.8912" y2="626.0182" opacity="1" stroke="#000000" stroke-opacity="1" stroke-width="6" stroke-linecap="round" stroke-linejoin="miter" stroke-dasharray="none" /></g><g id="layer6" inkscape:label="CompositeShape_7" inkscape:groupmode="layer"><path d="M594.1488 1322.21 L627.9499 1339.672 L686.1235 1300.194 L686.1234 1240.425 L1028.938 1240.425 L1028.938 1514.721 L594.1487 1515.608 L594.1488 1322.21" opacity="1" fill="#FF0000" fill-opacity="0.4" /><path d="M594.1488 1322.21 L560.3478 1304.747 L560.3477 1240.425 L181.1252 1240.425 L181.1246 1516.451 L594.1487 1515.608 L594.1488 1322.21" opacity="1" fill="#FF0000" fill-opacity="0.4" /><path d="M1028.938 1240.425 L1043.945 1240.425 C1035.269 1215.146 1018.648 1134.146 981.8599 1156.323 C945.6605 1178.146 937.1547 1174.604 932.0551 1165.485 C926.9553 1156.366 925.2617 1141.67 902.6866 1141.185 C876.0376 1140.612 850.7919 1155.5 825.6349 1165.534 C761.8668 1190.968 786.4424 1159.358 740.1664 1167.747 C718.0962 1171.748 710.9758 1200.174 696.1368 1214.969 C687.9525 1221.254 683.6847 1230.763 686.1234 1240.425 C692.7283 1239.95 688.3331 1238.475 694.938 1238 L1028.938 1237 L1028.938 1240.425" opacity="1" fill="#00FF00" fill-opacity="0.3960784" /><path d="M1028.938 1240.425 L686.1234 1240.425 C692.7283 1239.95 688.3331 1238.475 694.938 1238 L1028.938 1237 L1028.938 1240.425" opacity="1" fill="#00FF00" fill-opacity="0.3960784" /><line x1="181.1252" y1="1240.425" x2="181.1247" y2="1516.451" opacity="1" stroke="#000000" stroke-opacity="1" stroke-width="6" stroke-linecap="round" stroke-linejoin="miter" stroke-dasharray="none" /><path d="M1043.945 1240.425 C1035.269 1215.146 1018.648 1134.146 981.8599 1156.323 C945.6605 1178.146 937.1547 1174.604 932.0551 1165.485 C926.9553 1156.366 925.2617 1141.67 902.6866 1141.185 C876.0376 1140.612 850.7919 1155.5 825.6349 1165.534 C761.8668 1190.968 786.4424 1159.358 740.1664 1167.747 C718.0962 1171.748 710.9758 1200.174 696.1368 1214.969" opacity="1" stroke="#000000" stroke-opacity="1" stroke-width="6" stroke-linecap="round" stroke-linejoin="round" stroke-dasharray="none" fill-opacity="0" /><line x1="686.1235" y1="1300.194" x2="762.2144" y2="1300.194" opacity="1" stroke="#000000" stroke-opacity="1" stroke-width="6" stroke-linecap="round" stroke-linejoin="miter" stroke-dasharray="none" /><path d="M694.938 1238 C688.3331 1238.475 692.7283 1239.95 686.1234 1240.425" opacity="1" stroke="#000000" stroke-opacity="1" stroke-width="6" stroke-linecap="round" stroke-linejoin="round" stroke-dasharray="none" fill-opacity="0" /><line x1="1028.938" y1="1514.721" x2="181.1246" y2="1516.451" opacity="1" stroke="#000000" stroke-opacity="1" stroke-width="6" stroke-linecap="round" stroke-linejoin="miter" stroke-dasharray="none" /><line x1="594.1488" y1="1322.21" x2="571.3632" y2="1349.016" opacity="1" stroke="#000000" stroke-opacity="1" stroke-width="6" stroke-linecap="round" stroke-linejoin="miter" stroke-dasharray="none" /><line x1="762.2144" y1="1376.285" x2="762.2144" y2="1300.194" opacity="1" stroke="#000000" stroke-opacity="1" stroke-width="6" stroke-linecap="round" stroke-linejoin="miter" stroke-dasharray="none" /><line x1="560.3477" y1="1240.425" x2="181.1252" y2="1240.425" opacity="1" stroke="#000000" stroke-opacity="1" stroke-width="6" stroke-linecap="round" stroke-linejoin="miter" stroke-dasharray="none" /><line x1="594.1488" y1="1322.21" x2="616.9344" y2="1349.016" opacity="1" stroke="#000000" stroke-opacity="1" stroke-width="6" stroke-linecap="round" stroke-linejoin="miter" stroke-dasharray="none" /><line x1="1028.938" y1="1237" x2="1028.938" y2="1514.721" opacity="1" stroke="#000000" stroke-opacity="1" stroke-width="6" stroke-linecap="round" stroke-linejoin="miter" stroke-dasharray="none" /><line x1="686.1234" y1="1240.425" x2="1043.945" y2="1240.425" opacity="1" stroke="#000000" stroke-opacity="1" stroke-width="6" stroke-linecap="round" stroke-linejoin="miter" stroke-dasharray="none" /><path d="M696.1368 1214.969 C687.9525 1221.254 683.6847 1230.763 686.1234 1240.425" opacity="1" stroke="#000000" stroke-opacity="1" stroke-width="6" stroke-linecap="round" stroke-linejoin="round" stroke-dasharray="none" fill-opacity="0" /><path d="M762.2144 1300.194 C752.1072 1313.597 752.1072 1313.597 742 1327" opacity="1" stroke="#000000" stroke-opacity="1" stroke-width="6" stroke-linecap="round" stroke-linejoin="round" stroke-dasharray="none" fill-opacity="0" /><line x1="560.3477" y1="1304.747" x2="560.3477" y2="1240.425" opacity="1" stroke="#000000" stroke-opacity="1" stroke-width="6" stroke-linecap="round" stroke-linejoin="miter" stroke-dasharray="none" /><line x1="762.2142" y1="1300.194" x2="784.9999" y2="1327" opacity="1" stroke="#000000" stroke-opacity="1" stroke-width="6" stroke-linecap="round" stroke-linejoin="miter" stroke-dasharray="none" /><line x1="627.9498" y1="1339.672" x2="560.3478" y2="1304.747" opacity="1" stroke="#000000" stroke-opacity="1" stroke-width="6" stroke-linecap="round" stroke-linejoin="miter" stroke-dasharray="none" /><line x1="686.1234" y1="1240.425" x2="686.1234" y2="1300.194" opacity="1" stroke="#000000" stroke-opacity="1" stroke-width="6" stroke-linecap="round" stroke-linejoin="miter" stroke-dasharray="none" /><line x1="594.1487" y1="1598.236" x2="594.1488" y2="1322.21" opacity="1" stroke="#000000" stroke-opacity="1" stroke-width="6" stroke-linecap="round" stroke-linejoin="miter" stroke-dasharray="none" /><line x1="686.1235" y1="1300.194" x2="627.9499" y2="1339.672" opacity="1" stroke="#000000" stroke-opacity="1" stroke-width="6" stroke-linecap="round" stroke-linejoin="miter" stroke-dasharray="none" /><line x1="694.938" y1="1238" x2="1028.938" y2="1237" opacity="1" stroke="#000000" stroke-opacity="1" stroke-width="6" stroke-linecap="round" stroke-linejoin="miter" stroke-dasharray="none" /></g><g id="layer7" inkscape:label="CompositeShape_17" inkscape:groupmode="layer" /><g id="layer8" inkscape:label="CompositeShape_19" inkscape:groupmode="layer" /><g id="layer9" inkscape:label="UserGroupShape_0" inkscape:groupmode="layer"><text x="303.9435" y="957.3717" font-size="48" fill="#000000" fill-opacity="1" font-family="Default" font-weight="normal" font-style="normal">F</text><text x="319.5581" y="976.7453" font-size="40.05154" fill="#000000" fill-opacity="1" font-family="Default" font-weight="normal" font-style="normal">accel</text></g><g id="layer10" inkscape:label="CompositeShape_22" inkscape:groupmode="layer" /><g id="layer11" inkscape:label="CompositeShape_32" inkscape:groupmode="layer"><line x1="801.6925" y1="1065.533" x2="760.8911" y2="1021.55" opacity="1" stroke="#000000" stroke-opacity="1" stroke-width="6" stroke-linecap="round" stroke-linejoin="miter" stroke-dasharray="none" /><line x1="842.4927" y1="1021.55" x2="801.6925" y2="1065.533" opacity="1" stroke="#000000" stroke-opacity="1" stroke-width="6" stroke-linecap="round" stroke-linejoin="miter" stroke-dasharray="none" /><line x1="801.6925" y1="734.7577" x2="801.6925" y2="1065.533" opacity="1" stroke="#000000" stroke-opacity="1" stroke-width="6" stroke-linecap="round" stroke-linejoin="miter" stroke-dasharray="none" /></g></svg>