<svg width="300" height="300" xmlns="http://www.w3.org/2000/svg">

 <g>
  <title>background</title>
  <rect fill="none" id="canvas_background" height="302" width="302" y="-1" x="-1"/>
 </g>
 <g>
  <title>Layer 1</title>
  <g id="layer3"/>
  <g id="layer7"/>
  <g id="layer8"/>
  <g id="layer10"/>
  <g stroke="null" id="svg_59">
   <g stroke="null" id="layer2">
    <path stroke="null" id="svg_9" fill-opacity="0.396078" fill="#00FF00" d="m10.740843,177.471494c0.321572,0.954469 -0.170907,2.594655 -0.462865,3.646801c-0.145979,0.525932 -0.241821,0.905066 -0.160687,0.977618c0.175621,-0.017785 0.432885,-0.27694 0.901142,-0.859333l107.948951,0c-2.609588,-7.136359 -7.608568,-30.003252 -18.672875,-23.742318c-10.887217,6.160717 -13.445341,5.160796 -14.979126,2.586468c-1.533757,-2.574329 -2.043146,-6.723066 -8.832977,-6.859983c-8.014775,-0.16176 -15.607789,4.041179 -23.173927,6.873534c-19.178904,7.180116 -11.787569,-1.743226 -25.705515,0.625021c-6.637895,1.129498 -8.779339,9.153984 -13.24228,13.330952c-3.014638,2.821627 -3.65942,3.346994 -3.617526,3.450882"/>
    <path stroke="null" id="svg_10" fill-opacity="0" fill="#FFFFFF" d="m10.740871,177.471494c-0.021596,-0.130989 -0.114418,-0.613729 -0.014623,-0.602719c0.132909,0.057872 0.161421,0.219068 0.01691,0.632361"/>
    <path stroke="null" id="svg_11" fill-opacity="0" fill="#FFFFFF" d="m10.411874,177.007669c0.218729,-0.004517 0.46168,0.07848 0.331284,0.493467c-0.023883,-0.160631 -0.116704,-0.64337 -0.01691,-0.632361c-0.251279,0.092313 -0.409623,0.143693 -0.500496,0.169665"/>
    <path stroke="#000000" id="svg_12" fill-opacity="0" stroke-linejoin="round" stroke-linecap="round" d="m10.740843,177.471494c0.321572,0.954469 -0.170907,2.594655 -0.462865,3.646801c-0.145979,0.525932 -0.241821,0.905066 -0.160687,0.977618c0.081134,0.072834 0.339245,-0.160349 0.901142,-0.859333"/>
    <path stroke="#000000" id="svg_13" fill-opacity="0" stroke-linejoin="round" stroke-linecap="round" d="m118.967384,181.23658c-2.609588,-7.136359 -7.608568,-30.003252 -18.672875,-23.742318c-10.887217,6.160717 -13.445341,5.160796 -14.979126,2.586468c-1.533757,-2.574329 -2.043146,-6.723066 -8.832977,-6.859983c-8.014775,-0.16176 -15.607789,4.041179 -23.173927,6.873534c-19.178904,7.180116 -11.787569,-1.743226 -25.705515,0.625021c-6.637895,1.129498 -8.779339,9.153984 -13.24228,13.330952c-3.014638,2.821627 -3.65942,3.346994 -3.617526,3.450882c0.020975,0.051944 -0.136663,-0.645629 -0.01691,-0.632361c0.114587,0.00367 0.190301,0.136353 0.01691,0.632361"/>
    <path stroke="#000000" id="svg_14" fill-opacity="0" stroke-linejoin="round" stroke-linecap="round" d="m10.726248,176.868775c-0.376904,0.138329 -0.544733,0.184627 -0.589366,0.192249c-0.044632,0.00734 0.033933,-0.024278 0.149847,-0.042063c0.231771,-0.03557 0.61291,-0.015809 0.456429,0.482175"/>
    <line stroke="#000000" id="svg_15" stroke-linecap="round" y2="181.23658" x2="118.967384" y1="181.23658" x1="11.018432"/>
   </g>
   <g stroke="null" id="layer4">
    <path stroke="null" id="svg_16" fill-opacity="0" fill="#FFFFFF" d="m137.72797,179.503799l-17.291082,-25.474252l0,-34.58222l34.58222,0l-0.000028,34.58222l-17.29111,25.474252"/>
    <line stroke="#000000" id="svg_17" stroke-linecap="round" y2="119.447327" x2="120.436888" y1="154.029548" x1="120.436888"/>
    <line stroke="#000000" id="svg_18" stroke-linecap="round" y2="119.447327" x2="155.019109" y1="119.447327" x1="120.436888"/>
    <line stroke="#000000" id="svg_19" stroke-linecap="round" y2="154.029548" x2="155.019109" y1="119.447327" x1="155.019109"/>
    <line stroke="#000000" id="svg_20" stroke-linecap="round" y2="179.503799" x2="137.72797" y1="154.029548" x1="155.01908"/>
    <line stroke="#000000" id="svg_21" stroke-linecap="round" y2="154.029548" x2="120.436888" y1="179.503799" x1="137.72797"/>
   </g>
   <g stroke="null" id="layer5">
    <line stroke="#000000" id="svg_22" stroke-linecap="round" y2="119.447327" x2="97.665724" y1="7.787181" x1="97.665724"/>
    <line stroke="#000000" id="svg_23" stroke-linecap="round" y2="119.447327" x2="175.581556" y1="119.447327" x1="97.665724"/>
    <line stroke="#000000" id="svg_24" stroke-linecap="round" y2="7.787181" x2="97.665724" y1="7.787181" x1="175.581556"/>
   </g>
   <g stroke="null" id="layer6">
    <path stroke="null" id="svg_25" fill-opacity="0.4" fill="#FF0000" d="m128.509564,204.3248l9.54218,4.92959l16.422631,-11.144791l-0.000028,-16.873018l96.777878,0l0,77.434814l-122.742689,0.250404l0.000028,-54.596998"/>
    <path stroke="null" id="svg_26" fill-opacity="0.4" fill="#FF0000" d="m128.509564,204.3248l-9.542152,-4.929872l-0.000028,-18.158348l-107.055968,0l-0.000169,77.9232l116.598289,-0.237982l0.000028,-54.596998"/>
    <path stroke="null" id="svg_27" fill-opacity="0.396078" fill="#00FF00" d="m251.252225,181.23658l4.236534,0c-2.449268,-7.136359 -7.14144,-30.00297 -17.526862,-23.742318c-10.21923,6.160717 -12.62045,5.160796 -14.060086,2.586468c-1.439693,-2.574329 -1.917803,-6.723066 -8.29084,-6.859983c-7.523115,-0.16176 -14.650073,4.041179 -21.751991,6.873816c-18.001979,7.180116 -11.064193,-1.743509 -24.128086,0.624738c-6.230502,1.129498 -8.240618,9.154267 -12.429725,13.330952c-2.310459,1.77428 -3.515276,4.458707 -2.826821,7.186327c1.864589,-0.134094 0.623807,-0.550492 2.488395,-0.684587l94.289483,-0.282304l0,0.966891"/>
    <path stroke="null" id="svg_28" fill-opacity="0.396078" fill="#00FF00" d="m251.252225,181.23658l-96.777878,0c1.864589,-0.134094 0.623807,-0.550492 2.488395,-0.684587l94.289483,-0.282304l0,0.966891"/>
    <line stroke="#000000" id="svg_29" stroke-linecap="round" y2="259.15978" x2="11.911275" y1="181.23658" x1="11.911416"/>
    <path stroke="#000000" id="svg_30" fill-opacity="0" stroke-linejoin="round" stroke-linecap="round" d="m255.488759,181.23658c-2.449268,-7.136359 -7.14144,-30.00297 -17.526862,-23.742318c-10.21923,6.160717 -12.62045,5.160796 -14.060086,2.586468c-1.439693,-2.574329 -1.917803,-6.723066 -8.29084,-6.859983c-7.523115,-0.16176 -14.650073,4.041179 -21.751991,6.873816c-18.001979,7.180116 -11.064193,-1.743509 -24.128086,0.624738c-6.230502,1.129498 -8.240618,9.154267 -12.429725,13.330952"/>
    <line stroke="#000000" id="svg_31" stroke-linecap="round" y2="198.109598" x2="175.955128" y1="198.109598" x1="154.474375"/>
    <path stroke="#000000" id="svg_32" fill-opacity="0" stroke-linejoin="round" stroke-linecap="round" d="m156.962742,180.551993c-1.864589,0.134094 -0.623807,0.550492 -2.488395,0.684587"/>
    <line stroke="#000000" id="svg_33" stroke-linecap="round" y2="259.15978" x2="11.911247" y1="258.671394" x1="251.252225"/>
    <line stroke="#000000" id="svg_34" stroke-linecap="round" y2="211.892236" x2="122.077102" y1="204.3248" x1="128.509564"/>
    <line stroke="#000000" id="svg_35" stroke-linecap="round" y2="198.109598" x2="175.955128" y1="219.59038" x1="175.955128"/>
    <line stroke="#000000" id="svg_36" stroke-linecap="round" y2="181.23658" x2="11.911416" y1="181.23658" x1="118.967384"/>
    <line stroke="#000000" id="svg_37" stroke-linecap="round" y2="211.892236" x2="134.942027" y1="204.3248" x1="128.509564"/>
    <line stroke="#000000" id="svg_38" stroke-linecap="round" y2="258.671394" x2="251.252225" y1="180.26969" x1="251.252225"/>
    <line stroke="#000000" id="svg_39" stroke-linecap="round" y2="181.23658" x2="255.488759" y1="181.23658" x1="154.474347"/>
    <path stroke="#000000" id="svg_40" fill-opacity="0" stroke-linejoin="round" stroke-linecap="round" d="m157.301168,174.050254c-2.310459,1.77428 -3.515276,4.458707 -2.826821,7.186327"/>
    <path stroke="#000000" id="svg_41" fill-opacity="0" stroke-linejoin="round" stroke-linecap="round" d="m175.955128,198.109598c-2.853301,3.783718 -2.853301,3.783718 -5.706603,7.567437"/>
    <line stroke="#000000" id="svg_42" stroke-linecap="round" y2="181.23658" x2="118.967384" y1="199.394928" x1="118.967384"/>
    <line stroke="#000000" id="svg_43" stroke-linecap="round" y2="205.677035" x2="182.387563" y1="198.109598" x1="175.955072"/>
    <line stroke="#000000" id="svg_44" stroke-linecap="round" y2="199.394928" x2="118.967412" y1="209.254389" x1="138.051716"/>
    <line stroke="#000000" id="svg_45" stroke-linecap="round" y2="198.109598" x2="154.474347" y1="181.23658" x1="154.474347"/>
    <line stroke="#000000" id="svg_46" stroke-linecap="round" y2="204.3248" x2="128.509564" y1="282.247999" x1="128.509536"/>
    <line stroke="#000000" id="svg_47" stroke-linecap="round" y2="209.254389" x2="138.051745" y1="198.109598" x1="154.474375"/>
    <line stroke="#000000" id="svg_48" stroke-linecap="round" y2="180.26969" x2="251.252225" y1="180.551993" x1="156.962742"/>
   </g>
   <g stroke="null" id="layer9">
    <text transform="matrix(0.2823038399219513,0,0,0.2823038399219513,125.22541893667722,449.29085000864507) " stroke="null" id="svg_49" font-style="normal" font-weight="normal" font-family="Default" fill="#000000" font-size="48" y="-1232.577295" x="-278.571929">F</text>
    <text transform="matrix(0.2823038399219513,0,0,0.2823038399219513,125.22541893667722,449.29085000864507) " stroke="null" id="svg_50" font-style="normal" font-weight="normal" font-family="Default" fill="#000000" font-size="40.05154" y="-1213.203695" x="-262.957329">accel</text>
   </g>
   <g stroke="null" id="svg_58">
    <g stroke="null" id="layer1">
     <line stroke="#000000" id="svg_1" stroke-linecap="round" y2="7.787181" x2="175.581556" y1="119.447327" x1="175.581556"/>
     <text transform="matrix(0.2823038399219513,0,0,0.2823038399219513,125.22541893667722,449.29085000864507) " stroke="null" id="svg_2" font-style="normal" font-weight="normal" font-family="Default" fill="#000000" font-size="48" y="-892.154995" x="149.237471">75mm</text>
     <text transform="matrix(0.2823038399219513,0,0,0.2823038399219513,125.22541893667722,449.29085000864507) " stroke="null" id="svg_3" font-style="normal" font-weight="normal" font-family="Default" fill="#000000" font-size="48" y="-1298.799095" x="224.589771">Mass</text>
     <line stroke="#000000" id="svg_4" stroke-linecap="round" y2="113.80125" x2="68.306097" y1="126.21782" x1="79.824488"/>
     <line stroke="#000000" id="svg_5" stroke-linecap="round" y2="126.21782" x2="79.824488" y1="113.80125" x1="91.342542"/>
     <line stroke="#000000" id="svg_6" stroke-linecap="round" y2="126.21782" x2="79.824488" y1="32.838683" x1="79.824488"/>
     <text transform="matrix(0.2823038399219513,0,0,0.2823038399219513,125.22541893667722,449.29085000864507) " stroke="null" id="svg_7" font-style="normal" font-weight="normal" font-family="Default" fill="#000000" font-size="48" y="-762.576995" x="-118.571929">F</text>
     <text transform="matrix(0.2823038399219513,0,0,0.2823038399219513,125.22541893667722,449.29085000864507) " stroke="null" id="svg_8" font-style="normal" font-weight="normal" font-family="Default" fill="#000000" font-size="40.05154" y="-748.396995" x="-102.957329">resist</text>
    </g>
    <g stroke="null" id="layer11">
     <line stroke="#000000" id="svg_51" stroke-linecap="round" y2="119.447327" x2="175.581556" y1="131.863897" x1="187.099948"/>
     <line stroke="#000000" id="svg_52" stroke-linecap="round" y2="131.863897" x2="187.099948" y1="119.447327" x1="198.618001"/>
     <line stroke="#000000" id="svg_53" stroke-linecap="round" y2="131.863897" x2="187.099948" y1="38.48476" x1="187.099948"/>
    </g>
   </g>
  </g>
 </g>
</svg>