<svg width="499.99999999999994" height="290" xmlns="http://www.w3.org/2000/svg">
 <filter id="blur">
  <feGaussianBlur stdDeviation="5"/>
 </filter>

 <g>
  <title>background</title>
  <rect fill="none" id="canvas_background" height="292" width="502" y="-1" x="-1"/>
 </g>
 <g>
  <title>Layer 1</title>
  <g id="1467109814243">
   <g id="1467109411220">
    <path id="svg_1" stroke="#000000" stroke-width="5" stroke-linejoin="round" stroke-linecap="round" fill="none" d="m21.318584,246.023438l0.429565,-0.071533l-0.787598,0.644409l-0.143188,-0.644409l0,-0.429688l1.00238,-0.859253l0.859192,-1.360474l1.217224,-2.076416l1.360352,-2.506226l1.64679,-3.007324l1.718384,-3.078979l2.291138,-3.508545l2.14801,-3.651733l2.720764,-4.081421l2.720764,-4.582642l3.293579,-5.083862l3.15033,-5.728271l3.866333,-6.65918l3.579956,-7.589966l4.009583,-8.377563l3.866333,-8.878906l3.723145,-9.236786l3.937992,-9.594849l3.723145,-10.024536l3.866333,-10.024536l3.723206,-9.881226l3.436768,-9.308472l3.436768,-8.30603l3.150269,-7.446777l2.864014,-6.372681l2.864014,-5.799927l2.863892,-5.298706l3.078735,-5.083862l3.222046,-5.08374l3.293457,-5.012329l3.007202,-4.582581l2.864014,-4.224609l2.219604,-3.437012l1.93309,-2.720886l1.217163,-2.004944l0.787598,-1.14563l-0.572754,-0.358032l0.859131,-0.787659l-1.360352,1.288879"/>
    <path id="svg_2" stroke="#000000" stroke-width="5" stroke-linejoin="round" stroke-linecap="round" fill="none" d="m117.619354,50.259308l-1.360352,-1.575256l-3.293564,0l-1.933228,-0.286438l-2.505859,0.930847l-0.644409,-0.501221l-0.501221,-0.357971l-0.143188,-0.286438l0,-0.071594l0.715942,-0.071594l0.859253,0l1.50354,0l2.004761,0l2.720825,-0.14325l3.007065,-0.501221l4.009644,-0.716003l4.295898,-1.074097l4.653931,-1.002441l4.868774,-0.859253l4.367554,-0.357971l4.295898,0l3.866333,0.429626l3.723145,0.716003l3.866455,0.787659l3.866333,0.930847l3.651489,0.859253l5.083618,-0.501221l2.935547,0.787598l4.367554,-1.861694"/>
    <path id="svg_3" stroke="#000000" stroke-width="5" stroke-linejoin="round" stroke-linecap="round" fill="none" d="m179.624237,41.237274l0,-0.716003l-0.716064,-0.14325l0,-1.074036l0,0.644409l0.358032,0.787659l0.143188,1.432068l0.214844,2.076477l0.143188,2.935791l0.143188,3.723389l0.071655,4.511047l0.143188,5.298645l0.286377,6.229492l0.286377,6.945496l0.358032,7.733276l0.35791,8.16272l0.358032,8.234375l0.358032,8.30603l0.501099,7.947998l0.644409,7.80481l0.644409,7.446777l0.787598,7.375122l0.716064,7.303589l0.429565,7.303589l0.143188,7.1604l-0.429565,6.945557l-0.787598,6.730682l-1.217163,6.65918l-1.217285,6.802246l-1.073975,6.945557l-0.787598,6.65918l-0.214722,6.515869l0,5.943115l0.787598,5.298706l0.787598,4.72583l0.715942,4.009766l0.644409,3.508545l0.429565,3.007446l0.286377,2.720947l0.143188,2.434448l0.071655,2.219727l0,1.933228l0,1.861816l0.286377,1.718384l0.214844,1.718506l0.286377,1.718506l0.358032,1.790039l0.429565,1.432129l0.35791,1.288818l0.286499,0.859253l0.143188,0.501221l0,0.358032l-0.501221,0.286377l-0.286377,0.143311l-0.358032,0.214722l-0.286377,0.143188l-0.214844,0.286499l-0.143188,0.214722l-0.143188,0.214844l-0.071655,0.143188l-0.143188,0.071655l-0.071533,0l-0.214844,0l-0.071533,0l-0.214844,0l-0.143188,0l-0.143188,0l-1.217163,0.930786l0.286377,-1.14563l-1.718384,0.572876"/>
    <path id="svg_4" stroke="#008000" stroke-width="4" stroke-linejoin="round" stroke-linecap="round" fill="none" d="m67.428391,245.379028l0.429626,-0.644409l-0.787598,1.432007l0.357971,-0.286377l0,-0.214844l0.071594,-0.358032l0,-0.501221l0.358032,-0.716064l0.214783,-0.859131l0.143188,-0.930908l0.071594,-1.002441l0,-0.930786l-0.357971,-1.074097l-0.644409,-1.217285l-0.930786,-1.646851l-1.288757,-2.219727l-1.217228,-2.864136l-1.288757,-3.651855l-2.076416,-4.224609l0,-5.656616l-2.076355,-3.866577"/>
    <path id="svg_5" stroke="#008000" stroke-width="4" stroke-linejoin="round" stroke-linecap="round" fill="none" d="m73.37114,237.789063l-0.358032,1.14563l-0.286377,-0.358032l-1.789978,0l-0.716003,-0.716064l-0.214783,-1.360474l0,-2.076416l0.429626,-2.43457l0.787537,-2.79248l1.074036,-3.007446l1.360352,-2.864136l1.288818,-2.649292l0.930786,-2.219727l1.646729,-3.866577l-1.00238,-0.572876l0.501221,-2.148071"/>
    <path id="svg_6" stroke="#008000" stroke-width="4" stroke-linejoin="round" stroke-linecap="round" fill="none" d="m65.208847,234.065674l0.286377,-0.716064l-1.646793,1.432129l0,-0.358032l-0.50116,-0.358032l0,-0.859253l0,-1.217285l0.50116,-1.646851l0.572819,-2.076538l0.716003,-2.291382l0.859192,-2.362793l1.00238,-2.076538l1.073975,-1.718506l0.787598,-1.217285l0.716003,-0.859253l0.429565,-0.644409l0.286377,-0.358032l0.286438,-0.286377l0.429565,-0.143188l-0.50116,0l1.217163,-0.358032l-0.644409,1.432007"/>
    <path id="svg_7" stroke="#008000" stroke-width="4" stroke-linejoin="round" stroke-linecap="round" fill="none" d="m70.72197,234.208862l1.145569,-0.859253l-1.217163,1.360474l-0.429626,0l-1.288757,1.217285l0,-0.501221l0.286377,-0.78772l0.501221,-1.217163l0.644348,-1.646973l1.14563,-2.004883l1.288757,-2.362915l1.217224,-2.362915l2.219543,-3.43689l0.501221,-1.360596l2.147949,-2.935669"/>
    <path id="svg_8" stroke="#008000" stroke-width="4" stroke-linejoin="round" stroke-linecap="round" fill="none" d="m79.67186,239.364258l-0.501221,1.074097l1.575195,-1.002441l0.644409,0l1.861572,-2.076538l0.286377,-0.859253l0.214844,-1.002441l0.214722,-0.930786l0.143188,-0.930908l0,-0.715942l0,-0.501221l0,-0.286499l-1.288696,0l0.501221,-0.859253l-1.288818,0.930908"/>
    <path id="svg_9" stroke="#008000" stroke-width="4" stroke-linejoin="round" stroke-linecap="round" fill="none" d="m13.657452,240.295166l0.787598,-0.572876l2.004761,-3.651733l1.217224,-2.577759l1.718384,-2.79248l0.930786,-1.503662l0.429565,-1.145752l0.286377,-0.429565l0,-0.071655l0,0.716064l0,1.217285l0,1.933228l0.429626,2.291382l0.572754,2.434448l0.930847,2.148193l1.00238,1.790039l1.073975,1.28894l0.930786,0.930786l0.859192,0.429565l0.572754,0.143311l0.644409,0l0,-0.501221l0.501221,-0.572876l0.143188,-0.859253l0.214783,-1.217285l0.143188,-1.575195l0.071594,-1.861694l0,-1.861694l0,-1.575317l0,-1.14563l0,-0.501221l-0.429565,0l-0.286377,1.073975l-0.286438,1.360474l-0.357971,1.646973l0,1.575195l0,1.432129l0,1.073975l0.429565,0.859253l0.14325,0.644531l0.50116,0.429565l0,0.286377l0.501221,0.143188l0,-0.35791l-0.358032,-0.358032l0,-0.501221l0,-0.501343l0,-0.429565l0.859192,0l0.787598,0l1.288818,0.859253l1.431946,1.074097l1.933167,1.360474l1.861572,1.432007l2.14801,1.217285l1.789978,0.930908l1.718384,0.572754l1.575134,0l1.360413,-0.143188l1.217163,-0.644409l1.14563,-0.930908l0.787537,-1.14563l0.501221,-1.14563l0.143188,-1.074097l-0.644409,-1.002441l-0.787537,-0.787598l-1.503601,-0.429688l-1.360413,-0.143188l-1.789978,0l-1.646729,0.859253l-1.360413,0.716064l-1.145569,0.644409l-0.572815,0.429565l-0.357971,0.286499l0,0.071533l0.859192,0l0.644348,0l1.14563,0l1.145569,0l1.503601,-0.501221l1.50354,-0.501221l1.503601,-0.715942l1.288757,-0.716064l0.787598,-0.78772l0,-0.572754l-0.286377,-0.572876l-1.00238,-0.286377l-1.789978,-0.143188l-2.004761,0l-3.007202,0.716064l-2.792358,0.715942l-2.935547,1.074097l-2.434387,1.074097l-1.861572,0.930786l-1.217163,0.78772l-0.501221,0.501221l0,0.214722l0.572815,0.071655l1.00238,0l1.789978,-0.358032l1.933167,-0.429565l2.792358,-0.644531l2.64917,-0.859253l2.577576,-1.002441l2.291199,-0.930786l1.718323,-0.716064l1.074036,-0.429565l0.429565,-0.214844l0,-0.071655l-1.360352,0l-1.432007,0l-2.291199,0l-2.362732,0.572876l-2.863953,0.358032l-2.64917,0.429565l-2.935608,0.429565l-2.219543,0.358154l-1.861572,0.429565l-1.288818,0.501221l-0.572754,0.358032l-0.143188,0.429565l0.644348,0.358032l0.644409,0.429688l1.789978,0.358032l2.004761,0l2.864014,0l2.935547,-0.501343l3.221924,-0.715942l2.792358,-0.859253l2.505981,-0.716064l1.64679,-0.572876l0.787598,-0.214722l-1.288757,0l-1.503601,0.501221l-2.792358,0.429565l-2.720764,0.501221l-3.293579,0.572876l-3.221985,0.572754l-3.293518,0.501221l-3.078796,0.501343l-3.078735,0.286377l-2.577576,0.143188l-2.147949,0l-1.718384,0.214844l-1.00238,0.143188l-0.859192,0.358032l-0.143188,0.572754l-0.071655,0.716064l0.358032,1.002441l1.145569,1.074097l1.432007,1.002441l2.076355,0.859253l2.505981,0.572754l2.434387,0.286499l2.720764,0l2.577515,-0.286499l3.078796,-0.35791l2.792358,-0.358032l3.221985,-0.358032l2.863953,-0.214844l2.935547,-0.071533l2.434387,0l2.434326,0l1.933228,0l1.64679,0l1.360352,-0.143188l0.859192,-0.358154l0.501221,-0.429565l0.214783,-0.501221l0,-0.358032l0,-0.214844l-0.501221,-0.214722l-0.214783,-0.143188l-0.143188,-0.071655l-0.071594,-0.071655l0,-0.071533l0.644348,-0.214844l0.787598,-0.214844l1.288818,-0.358032l1.431946,-0.572754l1.789978,-0.572876l2.076416,-0.787598l2.004765,-0.716064l2.434387,-0.716064l2.434326,-0.572754l2.362793,-0.429688l2.291199,-0.143188l2.219543,0l1.933167,0l1.861633,0.716064l1.575195,0.358032l1.288696,0.286377l0.930786,0.214844l0.572876,0.143188l0.572754,0.143188l0.572754,0.071655l0.859253,0.143188l0.930786,0.143188l1.145508,0.286377l1.217285,0.358032l1.360352,0.501221l1.50354,0.501221l1.575195,0.572876l1.575195,0.358032l1.789917,0.286377l1.718384,0l1.790039,0l1.933105,-0.358032l1.718384,-0.286377l1.861572,-0.286499l1.790039,-0.143188l1.646729,-0.071533l1.790039,0l1.646729,0l1.790024,0l1.789917,0.572754l1.933228,0.143188l1.718384,0.071655l1.789917,0l1.718384,0l1.432007,0.143188l1.432007,0.143311l1.14563,0.214722l1.073975,0.214844l0.859131,0.358032l0.930786,0.358032l0.787598,0.501221l0.787598,0.429565l1.002441,0.429565l1.002319,0.286499l1.217163,0.143188l1.288818,0l1.360352,0l1.288818,-0.429688l1.14563,-0.286377l1.217163,-0.143188l1.145508,-0.214844l1.288818,-0.214722l1.432007,-0.214844l1.50354,-0.286377l1.718384,-0.358032l1.646851,-0.286377l1.646729,-0.214844l1.575195,-0.143188l1.432007,0l1.217163,0.429565l1.217163,0.429688l0.859253,0.644409l0.930786,0.715942l0.930786,0.78772l1.217163,0.930786l1.288818,0.930908l1.360352,0.930786l1.575195,1.002441l1.432007,0.930908l1.360352,0.930786l1.360352,0.930908l1.14563,0.859253l1.217163,0.716064l1.14563,0.572754l1.288696,0l1.432007,0l1.432007,-0.286377l1.575195,-0.572876l1.360352,-0.644409l1.288818,-0.572876l1.002319,-0.35791l0.859253,-0.214844l0.572754,0l0.501221,0l0.501221,0l0.644409,0.429565l0.787476,0.143188l1.002441,0.071655l0.930786,0l0.930786,-0.429565l0.859131,-0.358032l0.716064,-0.644409l0.644409,-0.644531l1.360352,-2.219604l-1.073975,-0.930908l0.429565,-3.365356"/>
    <path id="svg_10" stroke="#008000" stroke-width="4" stroke-linejoin="round" stroke-linecap="round" fill="none" d="m120.984589,237.43103l-1.861694,2.577637l0.286499,-0.644409l-0.572876,-1.360352l1.217285,-1.93335l0,-0.429688l-0.429688,-0.787598l-0.501221,-1.288818l-0.715942,-1.718506l-0.715942,-2.219727l-0.859253,-2.219727l-0.715942,-2.29126l-0.501205,-2.005005l-0.358032,-1.575195l-0.214722,-1.217285l0.930771,-1.432007l-0.859238,0.572754l1.073959,-1.002441"/>
    <path id="svg_11" stroke="#008000" stroke-width="4" stroke-linejoin="round" stroke-linecap="round" fill="none" d="m119.409393,236.213745l0,-0.859253l-1.575195,-0.143188l0,-2.362915l0.429565,-2.362915l0.787598,-2.219727l0.787598,-2.43457l0.859131,-2.29126l0.572876,-1.861694l0.429565,-1.360474l0.143188,-0.644409l0,0.429565l-1.646729,2.005005l0,0.429565l-1.432007,2.649292"/>
    <path id="svg_12" stroke="#008000" stroke-width="4" stroke-linejoin="round" stroke-linecap="round" fill="none" d="m124.278046,237.574219l2.29126,-2.148071l0.644287,-1.503662l1.861694,-2.649414l1.861572,-2.362915l1.718384,-2.076416l1.646729,-1.646973l0.715942,-0.859253l1.718384,-1.360474l-0.787598,1.074097l0.716064,-0.143188"/>
    <path id="svg_13" stroke="#008000" stroke-width="4" stroke-linejoin="round" stroke-linecap="round" fill="none" d="m132.225555,232.633545l0.286377,-0.358032l-1.718384,2.43457l0,0.429688l0.429688,-0.429688l0.787598,-0.787598l1.50354,-1.360474l1.933228,-2.004883l2.434326,-2.291382l2.792358,-2.577759l1.861572,-2.219727l3.007202,-2.649292l0.35791,-0.143188l1.575195,-1.217285"/>
    <path id="svg_14" stroke="#008000" stroke-width="4" stroke-linejoin="round" stroke-linecap="round" fill="none" d="m141.963104,234.065674l0.501221,0l-0.787598,1.861694l0.930786,-0.787598l0.715942,-1.002563l0.859131,-1.288818l1.074097,-1.432129l1.145508,-1.360352l1.14563,-1.28894l1.002319,-1.074097l0.930786,-0.787598l0.644409,-0.429565l0.572876,-0.143311l0,0.429688l0,0.787598l0,1.28894l-0.501221,1.646851l-0.286377,1.718506l-0.214844,1.503662l0,1.074097l0.501221,0.644409l0.572754,0l0.572876,0l0.715942,0l0.787598,-0.429688l0.715942,-0.644409l0.859253,-0.787598l0.930786,-1.002441l1.002319,-1.074097l1.217163,-1.14563l1.217285,-1.002441l1.145508,-0.78772l1.002441,-0.429565l0.715942,0.071533l0.644409,0l-0.644409,1.217285l0.930786,-0.214722l-1.002319,1.503662"/>
    <path id="svg_15" stroke="#008000" stroke-width="4" stroke-linejoin="round" stroke-linecap="round" fill="none" d="m163.586029,240.223511l1.861572,-1.933228l-0.859253,0.501221l0,0.214844l-0.572754,0.501099l0.930786,-1.14563l1.14563,-1.288818l1.073975,-1.217285l1.073975,-1.288818l0.572754,-0.930908l1.646851,-1.861694l-0.572876,0.429688l0.930786,-0.930908"/>
    <path id="svg_16" stroke="#008000" stroke-width="4" stroke-linejoin="round" stroke-linecap="round" fill="none" d="m167.953583,239.937134l-1.861572,3.150635l0.286377,0.286377l0,-0.716064l1.50354,-1.646851l0,-0.501221l0.716064,-0.716064l0.572754,-0.787598l0.787598,-1.002441l0.930786,-0.930908l1.002319,-1.002441l1.002441,-0.930786l0.787598,-0.716064l1.14563,-0.78772l-0.501221,0.644409l1.002319,-0.859131l-1.073975,1.217163"/>
    <path id="svg_17" stroke="#008000" stroke-width="4" stroke-linejoin="round" stroke-linecap="round" fill="none" d="m173.037079,237.144531l0.358032,0l0,1.503784l-0.930786,1.073975"/>
    <path id="svg_18" stroke="#008000" stroke-width="4" stroke-linejoin="round" stroke-linecap="round" fill="none" d="m100.292343,235.354492l2.004883,0l-0.572876,1.646851l-1.288696,1.360474l0,-0.572754l-0.143311,-0.644531l-0.071533,-1.217163l-0.071655,-1.575317l-0.071533,-1.861694l-0.214844,-2.148071l-0.429565,-2.076538l-0.644409,-1.93335l-1.14563,-1.503662l-1.002319,-1.14563l-2.505981,0l-0.715942,-1.074097l-2.505981,1.002563"/>
    <path id="svg_19" stroke="#008000" stroke-width="4" stroke-linejoin="round" stroke-linecap="round" fill="none" d="m79.600204,231.989136l-0.930725,1.432129l-1.432007,0.930786l-2.291138,1.432129l-0.716003,0l0,-0.358032l0,-0.716064l0,-0.930908l-0.143188,-1.002441l-0.286438,-1.14563l-0.787598,-0.930786l0,-1.14563l-2.362732,0l-1.00238,-1.28894l-2.720764,0.286377"/>
    <path id="svg_20" stroke="#008000" stroke-width="4" stroke-linejoin="round" stroke-linecap="round" fill="none" d="m49.313824,234.280396l-1.432007,0.859375l-1.861572,0.501099l-2.076355,1.074097l-0.501221,0l-0.286377,0l-0.357971,-0.214844l-0.429626,-0.071533l-0.716003,0l-0.429565,0l-0.859192,0l-0.716003,0.429565l-0.859192,0.143188l-1.00238,0.143188l-0.787598,0l-0.859192,0.143311l-0.930786,0l-0.716003,0l-1.00238,-0.286499l-0.859192,-0.143188l-0.859192,-0.286377l-0.787598,-0.214844l-0.715942,-0.286377l-0.501221,-0.286377l-0.50116,-0.214844l-0.358032,-0.358032l-1.073975,0.716064l0,-1.432129l-1.145569,0.429688"/>
    <path id="svg_21" stroke="#0000FF" stroke-width="4" stroke-linejoin="round" stroke-linecap="round" fill="none" d="m181.270966,66.656525l-0.214722,0.358032l0.644409,-0.644409l-0.644409,0.644409l0,-0.143188l0,-0.143188l0.429565,-0.071655l0.143188,0l0.143188,0l0.143188,0.358032l0.143188,0l0.143188,0.143188l0.214844,0l0.286377,0l0.286377,0l0.429565,0l0.429688,0l0.572754,-0.357971l0.715942,-0.214844l0.859253,-0.286438l1.002319,-0.357971l1.073975,-0.429626l1.217285,-0.429626l1.217163,-0.572815l1.288818,-0.572815l1.431885,-0.716064l1.360474,-0.716003l1.432007,-0.787659l1.145508,-0.644409l0.930786,-0.501282l0.644409,-0.286377l0.501221,0l0.358032,0l0.501099,0.644409l0.358032,0.358032l0.429565,0.358032l0.501221,0.357971l0.501221,0.429626l0.35791,0.429626l0.358032,0.501221l0.358032,0.501282l0,0.50116l0.572754,0.64447l0.429565,0.644409l0.429688,0.716064l0.572754,0.716003l0.787598,0.501282l1.002441,0.501221l1.360352,0l1.431885,0.286377l1.503662,0l1.646729,-0.501221l1.288818,-0.358032l1.217163,-0.429626l0.787598,-0.286377l0.572754,-0.071594l0,-0.071655l0.358032,0l0,0.429626l0.071655,0l0.214722,0.214783l0.286499,0.071655l0.35791,0.143188l0.572754,0l0.644409,0l0.930786,0l1.002441,-0.644409l1.217163,-0.429626l1.288818,-0.572815l1.217163,-0.64447l1.14563,-0.572815l0.930786,-0.572815l0.715942,-0.358032l0.501221,-0.214783l0.286377,0l0.286377,0l0.214844,0.644409l0.286377,0.501221l0.429565,0.429626l0.644409,0.501221l0.859131,0.429626l1.14563,0.429626l1.073975,0.286438l1.432007,0.143188l1.217163,0l1.503662,0l1.575073,-0.358032l1.646851,-0.358032l2.004761,-0.501221l2.147949,-0.716003l2.434448,-0.716064l2.505859,-0.644409l2.577637,-0.429626l2.219604,-0.214844l2.076294,0l1.432007,0l1.14563,0l0.715942,0.501221l0.501221,0.214844l0.358032,0.143188l0.501221,0.14325l0.572754,0.143188l0.644409,0l1.002319,0l1.002441,0l1.073975,0l1.14563,0l1.217163,-0.358032l1.073975,-0.071594l1.288818,-0.071594l1.073975,-0.214844l1.145508,-0.286377l1.288818,-0.429626l1.432007,-0.501221l1.432007,-0.501221l1.360352,-0.358032l1.288818,-0.214783l1.145508,0l1.002441,0l0.715942,0.572815l0.572754,0.429565l0.286499,0.572876l0.143188,0.644409l0,0.572876l0.143188,0.429565l0,0.501221l0.214722,0.286438l0.429688,0.286438l0.429565,0.214783l0.859131,0.143188l0.930786,0.14325l1.217163,0.071594l1.360474,0l1.360352,0.143188l1.50354,0l1.432007,0l1.646851,0l1.718384,-0.429626l1.861572,-0.286377l1.861572,-0.501282l1.933105,-0.429565l1.933228,-0.572815l1.789917,-0.429688l1.718384,-0.429565l1.432007,-0.286438l1.360352,-0.214783l1.288818,-0.071655l1.288818,0l1.360352,0l1.288818,0.358032l1.288818,0.286438l1.145508,0.286377l1.073975,0.286438l0.716064,0.358032l0.572754,0.214783l0,0.286438l0.286377,0.214783l0.143188,0.214844l0.143188,0.286377l0.358032,0.286438l0.358032,0.286438l0.644409,0.286377l0.715942,0.214783l1.073975,0.214844l1.217163,0.071594l1.432007,0l1.718384,0l1.718384,-0.716003l1.861572,-0.501221l1.646729,-0.501282l1.503662,-0.572815l1.360352,-0.357971l1.14563,-0.14325l0.859131,-0.071594l0.644409,0l0.572754,0l0.429688,0.429626l0.35791,0.358032l0.358032,0.286377l0.286377,0.358032l0.429565,0.429626l0.572876,0.286438l0.715942,0.357971l1.073975,0.286438l1.002441,0.286438l1.50354,0l1.360352,0l1.646851,0l1.789917,-0.358032l1.933228,-0.286438l2.147949,-0.286377l2.004761,-0.214844l2.147949,-0.071594l1.718384,0l1.790039,0l1.14563,0.429626l1.002319,0.214783l0.644409,0.14325l0.572754,0.071594l0.715942,0l0.78772,0.143188l0.930786,0l1.002319,0l1.14563,0l1.145508,0l1.073975,0.214844l1.073975,0.143188l1.002441,0.143188l1.002441,0.214783l1.002319,0.071655l1.14563,0l1.288818,0l1.431885,-0.572815l1.074097,-0.429626l1.217163,-0.358032l0.572754,-0.358032l0.501221,-0.214783l0.35791,-0.071594l0.286499,0l0.286377,0l0.358032,0.429626l0.501099,0.214783l0.716064,0.286377l0.644409,0.286438l0.787476,0l0.501221,0.286438l0.572876,0l0.429565,0l0.572754,0l0.644409,-0.286438l0.787598,-0.286438l1.14563,-0.357971l1.288696,-0.429626l1.360352,-0.358032l1.288818,-0.214783l1.073975,-0.14325l0.930786,0l0.78772,0l0.715942,0l0.572754,0l0.501221,0.358032l0.501221,0l0.715942,0l0.716064,0l0.859131,-0.286438l1.073975,-0.214783l0.859131,-0.286438l1.288818,-0.286377l1.002441,-0.214783l1.145508,-0.14325l1.14563,-0.143188l1.002441,-0.071594l1.145508,-0.071655l1.073975,-0.143188l0.930786,-0.143188l1.073975,-0.214844l0.930786,-0.214783l0.716064,-0.286438l0.644409,-0.143188l0.429565,-0.071594l0.286377,-0.071594l0.214844,0l0.572754,0l-0.286377,0l0.429565,0l0,0.358032l0.143188,0.143188l0.143188,0l0.143188,0l0.214844,0l0.429565,-0.358032l0.787598,-0.214844l1.002441,-0.429565l1.575195,-0.572815l1.50354,-0.716064l1.646729,-0.644409l1.360474,-0.501282l1.073975,-0.357971l0.715942,-0.214844l0.429565,-0.071594l0.286499,0l0.143188,0l0.214722,0l0.214844,0l0.286377,0l0.286377,0l0.358032,-0.143188l-0.572754,1.002441l0,-0.716064l-1.646851,1.074097"/>
    <path id="svg_22" stroke="#FF8000" stroke-width="4" stroke-linejoin="round" stroke-linecap="round" fill="none" d="m276.998993,138.116852l2.148071,-0.930786l-0.429688,0.572876l-0.859131,-0.78772l-1.14563,1.14563l-0.143188,0l-0.071655,0l-0.071533,0l-0.071655,0l-0.071533,0.286499l-0.071655,0.143188l0,0.143188l-0.071533,0.143188l-0.143188,0l-0.286377,0.286377l-0.358032,0.143311l-0.501221,0.286377l-0.572754,0.358032l-0.644409,0.429565l-0.716064,0.644409l-0.715942,0.572876l-0.787598,0.787598l-0.787598,0.644531l-0.715942,0.644409l-0.787598,0.501221l-0.572754,0.501221l-0.787598,0.429565l-0.501221,0.358032l-0.644409,0.286499l-0.644409,0.35791l-0.644409,0.214844l-0.787598,0.214844l-0.715942,0.286377l-0.787598,0l-0.787598,0.358032l-0.787598,0.214844l-0.715942,0.214722l-0.644409,0.071655l-0.644409,0.143188l-0.644409,0l-0.572754,0l-0.787598,0l-0.787598,0l-0.930786,0l-0.930786,0l-1.002441,0l-1.002319,0l-1.073975,0l-0.859253,0l-0.859131,0l-0.644409,0l-0.572754,0l-0.429688,0l-0.429565,0l-0.286377,-0.358032l-0.358032,0l-0.286377,-0.143188l-0.286377,-0.071533l-0.358032,-0.143311l-0.358032,-0.143188l-0.429565,-0.143188l-0.429565,-0.071533l-0.358032,-0.214844l-0.35791,-0.143188l-0.358032,-0.143188l-0.286377,-0.143311l-0.358032,-0.143188l-0.358032,-0.214722l-0.286377,-0.143311l-0.286377,-0.214844l-0.358032,-0.214722l-0.214722,-0.143188l-0.214844,-0.071655l-0.143188,-0.071655l-0.071655,-0.071533l-0.143188,-0.071655l-0.071533,0l-0.143188,-0.143188l-0.071655,-0.071533l-0.071533,-0.071655l-0.143188,-0.143188l-0.143311,-0.071655l-0.214722,-0.143188l-0.214844,-0.214722l-0.143188,-0.214844l-0.071533,-0.143188l-0.071655,-0.143188l-0.071533,-0.071655l-0.071655,-0.071655l-0.071655,-0.071533l-0.071533,-0.071655l-0.071655,0l-0.071533,-0.071533l-0.071655,-0.071655l0,-0.071533l0,-0.071655l-0.071533,-0.071655l0,-0.143188l-0.143188,-0.143188l-0.071655,-0.071655l-0.143188,-0.143188l-0.143188,-0.214844l-0.143188,-0.143188l-0.071655,-0.143188l-0.071533,-0.143188l-0.071655,-0.143188l0,-0.071655l0,-0.143188l-0.071533,-0.071533l0,-0.143311l-0.071655,-0.143188l-0.071533,-0.143188l-0.071655,-0.143188l0,-0.143188l0,-0.143188l0,-0.071655l0,-0.143188l0,-0.071533l0,-0.214966l0,-0.143188l0,-0.143188l-0.071533,-0.214722l0,-0.143311l0,-0.214722l-0.071655,-0.071655l0,-0.143188l-0.071655,-0.143188l-0.071533,-0.071655l0,-0.143188l0,-0.071533l0,-0.071655l0,-0.143188l0,-0.143188l-0.143188,-0.214844l-0.071655,-0.214844l-0.143188,-0.286377l-0.071533,-0.286499l-0.071655,-0.214722l-0.071533,-0.286499l-0.071655,-0.143188l0,-0.143188l-0.071533,-0.071533l0,-0.143188l0,-0.143311l0,-0.071533l0,-0.143188l0,-0.071655l0,-0.071533l0,-0.071655l0.35791,0l0,-0.143188l0.286377,-0.143188l0.071655,-0.071655l0.143188,-0.071533l0.143188,0l0.143188,0l0.286377,0l0.214844,-0.071655l0.286377,-0.071655l0.358032,-0.143188l0.286377,-0.143188l0.286377,-0.071533l0.214844,-0.071655l0.214722,0l0.214844,-0.071655l0.214844,0l0.214722,0l0.358032,0l0.358032,0l0.35791,0l0.429688,0l0.501099,0l0.501221,0l0.572754,0l0.501221,0l0.572876,0l0.429565,0.358032l0.35791,0l0.429688,0.143188l0.286377,0l0.429565,0.143311l0.429565,0l0.572876,0.143188l0.572754,0l0.572754,0.143188l0.572876,0.143188l0.501221,0l0.429565,0.214844l0.286377,0.071533l0.286377,0.143188l0.286377,0l0.214844,0.214844l0.214722,0.143188l0.286499,0.071655l0,0.143188l0.429565,0.143188l0.286377,0l0.286377,0.214844l0,0.143188l0.501221,0.143188l0.286377,0.143188l0,0.143311l0.429565,0.214722l0.214844,0.143188l0.214844,0.143311l0.35791,0.214722l0.286377,0.143188l0.429688,0.071655l0.35791,0.143188l0.358032,0l0.358032,0.214844l0.286377,0.143188l0.286377,0.071655l0,0.143188l0.358032,0l0.214722,0.214722l0.214844,0.143311l0.214844,0.071533l0.214722,0.143188l0.214844,0l0.214844,0.214844l0.214722,0.071533l0.214844,0.143311l0.214722,0l0.214844,0.214844l0.214844,0.143188l0.286377,0.143188l0.286377,0.143188l0.358032,0.214844l0.35791,0.214722l0.286377,0.214844l0.214844,0.286377l0.286377,0.214844l0.286377,0.214844l0.286499,0.214844l0.286377,0.214722l0.214722,0.143188l0.214844,0.214844l0.143188,0.143311l0.214844,0.214722l0.143188,0.143188l0.143188,0.214844l0.143188,0.143188l0.071655,0.143188l0.143188,0.214844l0.143188,0.143188l0,0.143188l0.143188,0.071655l0.143188,0.143188l0.214722,0.143188l0.071655,0.143188l0.143188,0l0.143188,0.286499l0.214844,0.143188l0.214722,0.214722l0.214844,0.214844l0.358032,0.286499l0.286377,0.214722l0.35791,0.214844l0.286499,0.214844l0.35791,0.143188l0.358032,0.214844l0.358032,0.071533l0.429565,0.143188l0.286377,0.214844l0.429565,0.214844l0.286499,0.214844l0.286377,0.286377l0.35791,0.214844l0.501221,0.214844l0.358032,0.286377l0.572754,0l0.429565,0.501221l0.572876,0.143188l0.501221,0.143188l0.429565,0.071655l0.429565,0l0.286377,0.143188l0.358032,0l0,0.143188l0.286377,0.143188l0.143188,0l0,0.143188l0.143188,0l0.143188,0l0.214844,0l0.071533,0l0,-0.286377l0,-0.214844l0,-0.143188l0,-0.071655l0,-0.143188l0,-0.214722l0.143311,-0.358032l0.214722,-0.429688l0.214844,-0.716064l0.358032,-1.002441l0.35791,-1.073975l0.286377,-1.074097l0.286377,-1.002441l0,-0.644409l0.358032,-0.716064l0.143188,-0.501221l0.214844,-0.644409l0.286377,-0.572876l0.286377,-0.572876l0,-0.644409l0.429565,-0.572754l0.143188,-0.572876l0.071655,-0.501221l0,-0.358032l0.143188,-0.286377l0,-0.214844l0,-0.143188l0,-0.143188l-0.286377,0l-0.071655,0l-0.071533,0l0,0.429565l0.358032,0l0.644409,0l-1.288818,0.859253l0,-0.930786l-2.147949,0.501221"/>
    <path id="svg_23" stroke="#FF8000" stroke-width="4" stroke-linejoin="round" stroke-linecap="round" fill="none" d="m247.858124,140.766266l0.644409,-0.572876l-0.930786,0.787598l0.429688,-0.429565l0,-0.143188l-0.429688,0l-0.071533,0l-0.071655,0l-0.071533,0.429565l0.35791,0l-0.286377,-0.429565l1.360474,-1.360474l-0.644409,0l1.217163,-1.93335"/>
    <text id="svg_24" fill="#000000" font-size="338" font-family="sans-serif" y="-13276.084151" x="-12787.852429" transform="matrix(0.069282, 0, 0, 0.069282, 1117.01, 962.91)">Free Surface</text>
    <path id="svg_25" stroke="#000000" stroke-width="4" stroke-linejoin="round" stroke-linecap="round" fill="none" d="m191.223236,252.324585l-1.360352,0.715942l-0.358032,0l-0.35791,0.429688l-0.071655,0.143188l-0.358032,0.286377l-0.071533,0l-0.214844,0.143188l0.572876,0l0.35791,0l0.572876,0.143311l0.644287,0.143188l1.002441,0l1.002441,0.214844l1.360352,0l1.360352,0l1.790039,-0.358032l1.789917,-0.358032l2.076416,-0.572876l2.219604,-0.716064l2.362671,-0.859131l2.434448,-0.78772l2.505981,-0.787598l2.577515,-0.644409l2.362793,-0.501221l2.291138,-0.286377l1.861572,-0.143311l1.790039,0l1.360352,0l1.217163,0l1.073975,0.501221l1.002441,0.143188l1.002319,0.071655l1.073975,0l1.360474,0l1.431885,0l1.718384,0l1.646851,0l1.718384,0.286377l1.646729,0.358032l1.646851,0.429688l1.575195,0.501221l1.575073,0.501221l1.790039,0.429565l2.004761,0.286499l2.219604,0l2.362793,0l2.362671,-0.572876l2.362793,-0.572876l2.29126,-0.644409l2.147949,-0.572876l2.076294,-0.572754l1.933228,-0.429565l1.861572,-0.286499l1.861572,-0.214844l1.646729,-0.071533l1.718384,0l1.432007,0l1.503662,0l1.50354,0l1.50354,0l1.503662,0l1.575073,0l1.646851,-0.071655l1.789917,-0.143188l1.861572,-0.071655l1.790039,0l1.718384,0l1.575195,0l1.50354,0.501221l1.432007,0.143188l1.575195,0.143311l1.718384,0.143188l1.933105,0l2.076416,0l2.219604,0l2.362671,0l2.076416,0l2.219604,0.286377l1.933228,0.501221l1.861572,0.572876l1.933105,0.787598l2.076416,0.859253l2.219482,0.716064l2.506104,0.572754l2.720703,0.286499l2.792358,0l2.864014,-0.501221l2.720703,-0.501221l2.64917,-0.429688l2.362793,-0.35791l2.147949,-0.143311l1.861572,0l1.575195,0l1.50354,0l1.360474,0l1.575195,0.501221l1.718384,0.143311l2.076294,0.214722l2.362793,0.214844l2.362793,0.143188l2.434326,0l2.362793,0l2.219604,-0.572754l2.004761,-0.429688l2.147949,-0.501221l2.076416,-0.572876l2.219604,-0.715942l2.147949,-0.644531l2.147949,-0.572754l2.219604,-0.501221l2.505859,-0.286499l2.434448,-0.35791l3.007202,-0.286499l2.64917,-0.358032l3.00708,-0.644409l2.577637,-0.644409l2.720703,-0.787598l2.362793,-0.644531l2.219604,-0.644409l1.861572,-0.572754l1.933105,-0.572876l2.219604,-0.572876l1.861572,-0.572754l2.505981,-0.572876l2.147949,-0.644409l2.219604,-0.501221l2.434326,-0.644409l1.646851,-0.501221l2.076294,-0.572876l1.646851,-0.501221l1.646729,-0.358032l1.575195,-0.358032l1.288818,-0.071533l1.002319,-0.143188l0.859253,0l0.644409,0l0.572754,0l0.715942,-0.071655l0.787598,-0.071655l1.288818,-0.214722l1.288818,-0.286499l1.432007,-0.286377l1.360352,-0.286377l1.288818,0l1.432007,0l1.073975,0.859253l1.646729,0.715942l1.50354,1.145752l1.861572,0.930786l1.933228,1.718506l1.718384,-0.286377l-0.214844,0.429565"/>
    <text id="svg_26" fill="#000000" font-size="338" font-family="sans-serif" y="-21161.840358" x="-20958.349863" transform="matrix(0.0433182, 0, 0, 0.0433182, 1141.54, 1079.34)">Fish</text>
    <text id="svg_27" fill="#008000" font-size="338" font-family="sans-serif" y="-9662.844214" x="-10372.689086" transform="matrix(0.0883445, 0, 0, 0.0883445, 987.303, 1123.86)">Grass</text>
    <text id="svg_28" fill="#000000" font-size="338" font-family="sans-serif" y="-12505.039792" x="-12290.054097" transform="matrix(0.0738789, 0, 0, 0.0738789, 1012.79, 1060.28)">Dam</text>
   </g>
  </g>
 </g>
</svg>