<svg width="561.2598" height="396.8504" xmlns="http://www.w3.org/2000/svg">

 <g>
  <title>background</title>
  <rect fill="none" id="canvas_background" height="402" width="582" y="-1" x="-1"/>
 </g>
 <g>
  <title>Layer 1</title>
  <g id="svg_1" transform="matrix(1,0,0,1,158,384)">
   <g id="svg_2">
    <rect id="svg_3" fill="rgb(255,255,255)" stroke="rgb(0,0,0)" height="0" width="0" y="0" x="0"/>
   </g>
  </g>
  <g id="svg_4">
   <line id="svg_5" fill="none" stroke="rgb(0,0,0)" y2="336" x2="110" y1="24" x1="110"/>
  </g>
  <g id="svg_6">
   <line id="svg_7" fill="none" stroke="rgb(0,0,0)" y2="336" x2="470" y1="336" x1="110"/>
  </g>
  <g id="svg_8">
   <line id="svg_9" fill="none" stroke="rgb(0,0,0)" y2="118" x2="206" y1="334" x1="110"/>
  </g>
  <g id="svg_10">
   <line id="svg_11" fill="none" stroke="rgb(0,0,0)" y2="120" x2="398" y1="120" x1="206"/>
  </g>
  <g id="svg_12">
   <line id="svg_13" fill="none" stroke="rgb(0,0,0)" y2="120" x2="398" y1="336" x1="470"/>
  </g>
  <g id="svg_14" transform="matrix(1,0,0,1,86,48)">
   <g id="svg_15">
    <rect id="svg_16" fill="rgb(0,0,0)" fill-opacity="0" stroke-opacity="0" stroke="rgb(0,0,0)" height="96" width="360" y="0" x="0"/>
    <rect id="svg_17" fill="rgb(0,0,0)" fill-opacity="0" stroke-width="0" stroke-opacity="0" stroke="rgb(0,0,0)" height="77.375" width="76" y="9.3125" x="142"/>
    <text id="svg_18" text-anchor="middle" x="180" fill="rgb(0,0,0)" font-size="0" font-family="Arial" y="74.3813">Vel</text>
   </g>
  </g>
  <g id="svg_19" transform="matrix(1,0,0,1,86,48)">
   <g id="svg_20">
    <rect id="svg_21" fill="rgb(0,0,0)" fill-opacity="0" stroke-opacity="0" stroke="rgb(0,0,0)" height="96" width="360" y="0" x="0"/>
    <rect id="svg_22" fill="rgb(0,0,0)" fill-opacity="0" stroke-width="0" stroke-opacity="0" stroke="rgb(0,0,0)" height="77.375" width="76" y="9.3125" x="142"/>
    <text id="svg_23" text-anchor="middle" x="180" fill="rgb(0,0,0)" font-size="0" font-family="Arial" y="74.3813">Vel</text>
   </g>
  </g>
  <g id="svg_24" transform="matrix(1,0,0,1,110,72)">
   <g id="svg_25">
    <rect id="svg_26" fill="rgb(0,0,0)" fill-opacity="0" stroke-opacity="0" stroke="rgb(0,0,0)" height="96" width="360" y="0" x="0"/>
    <rect id="svg_27" fill="rgb(0,0,0)" fill-opacity="0" stroke-width="0" stroke-opacity="0" stroke="rgb(0,0,0)" height="77.375" width="76" y="9.3125" x="142"/>
    <text id="svg_28" text-anchor="middle" x="180" fill="rgb(0,0,0)" font-size="0" font-family="Arial" y="74.3813">Vel</text>
   </g>
  </g>
  <g id="svg_29" transform="matrix(1,0,0,1,232,-88)">
   <g id="svg_30">
    <rect id="svg_31" fill="rgb(0,0,0)" fill-opacity="0" stroke-opacity="0" stroke="rgb(0,0,0)" height="80" width="160" y="0" x="0"/>
    <rect id="svg_32" fill="rgb(0,0,0)" fill-opacity="0" stroke-width="0" stroke-opacity="0" stroke="rgb(0,0,0)" height="77.375" width="100" y="1.3125" x="30"/>
    <text id="svg_33" text-anchor="middle" x="80" fill="rgb(0,0,0)" font-size="0" font-family="Arial" y="66.3813">Text</text>
   </g>
  </g>
  <g id="svg_34" transform="matrix(1, 0, 0, 1, 62, 36)">
   <g id="svg_35">
    <g id="svg_36" fill="rgb(0,0,0)" fill-opacity="0" stroke-width="2" stroke-opacity="0" stroke="rgb(0,0,0)">
     <path id="svg_37" d="m1,-16l9.933601,0.0437l6.471998,-0.742499l8.787001,0.635399l10.190102,0.6048l12.617298,-0.5414l-0.004501,6.5937l0.155701,3.2062l-0.151199,22.2001l-6.066399,-0.075001l-9.361801,0.249401l-4.085001,0.9347l-4.316198,-0.3022l-24.170601,-0.8069l0.123199,-9.4063l0.7467,-3.2932l-0.8699,-19.300501z"/>
    </g>
    <rect id="svg_38" fill="rgb(0,0,0)" fill-opacity="0" stroke-width="0" stroke-opacity="0" stroke="rgb(0,0,0)" height="20.8438" width="21" y="-10.4219" x="14.5"/>
    <text id="svg_39" text-anchor="middle" x="25" fill="rgb(0,0,0)" font-size="16" font-family="Arial" y="6.5953">Vel</text>
   </g>
  </g>
  <g id="svg_40" transform="matrix(1,0,0,1,270,32)">
   <g id="svg_41">
    <rect id="svg_42" fill="rgb(0,0,0)" fill-opacity="0" stroke-opacity="0" stroke="rgb(0,0,0)" height="80" width="160" y="0" x="0"/>
    <rect id="svg_43" fill="rgb(0,0,0)" fill-opacity="0" stroke-width="0" stroke-opacity="0" stroke="rgb(0,0,0)" height="77.375" width="100" y="1.3125" x="30"/>
    <text id="svg_44" text-anchor="middle" x="80" fill="rgb(0,0,0)" font-size="0" font-family="Arial" y="66.3813">Text</text>
   </g>
  </g>
  <g id="svg_45" transform="matrix(1, 0, 0, 1, 270, 32)">
   <g id="svg_46">
    <rect id="svg_47" fill="rgb(0,0,0)" fill-opacity="0" stroke-opacity="0" stroke="rgb(0,0,0)" height="80" width="160" y="0" x="0"/>
    <rect id="svg_48" fill="rgb(0,0,0)" fill-opacity="0" stroke-width="0" stroke-opacity="0" stroke="rgb(0,0,0)" height="77.375" width="100" y="1.3125" x="30"/>
    <text id="svg_49" text-anchor="middle" x="80" fill="rgb(0,0,0)" font-size="0" font-family="Arial" y="66.3813">Text</text>
   </g>
  </g>
  <g id="svg_50" transform="matrix(0.9945,-0.1045,0.1045,0.9945,30.2571,656.5814)">
   <g id="svg_51">
    <rect id="svg_52" fill="rgb(0,0,0)" fill-opacity="0" stroke-opacity="0" stroke="rgb(0,0,0)" height="80" width="160" y="0" x="0"/>
    <rect id="svg_53" fill="rgb(0,0,0)" fill-opacity="0" stroke-width="0" stroke-opacity="0" stroke="rgb(0,0,0)" height="77.375" width="100" y="1.3125" x="30"/>
    <text id="svg_54" text-anchor="middle" x="80" fill="rgb(0,0,0)" font-size="0" font-family="Arial" y="66.3813">Text</text>
   </g>
  </g>
  <g id="svg_55" transform="matrix(1, 0, 0, 1, 422, 334)">
   <g id="svg_56">
    <rect id="svg_57" fill="rgb(0,0,0)" fill-opacity="0" stroke-width="2" stroke-opacity="0" stroke="rgb(0,0,0)" height="52" width="72" y="-9" x="-14"/>
    <rect id="svg_58" fill="rgb(0,0,0)" fill-opacity="0" stroke-width="0" stroke-opacity="0" stroke="rgb(0,0,0)" height="20.8438" width="32" y="6.5781" x="6"/>
    <text id="svg_59" text-anchor="middle" x="22" fill="rgb(0,0,0)" font-size="16" font-family="Arial" y="23.5953">Time</text>
   </g>
  </g>
  <g id="svg_60">
   <line id="svg_61" fill="none" stroke="rgb(0,0,0)" stroke-dasharray="10,5" y2="120" x2="62" y1="120" x1="206"/>
  </g>
  <g id="svg_68" transform="matrix(1, 0, 0, 1, 24, 83.1466)">
   <g id="svg_69">
    <g id="svg_70" fill="rgb(0,0,0)" fill-opacity="0" stroke-width="2" stroke-opacity="0" stroke="rgb(0,0,0)">
     <path id="svg_71" d="m-2,-6l4.8417,0.0156l8.109,-0.0753l11.7466,-0.8061l11.442501,0.5916l13.1684,0.299l9.8564,0.2955l11.361202,-0.3048l7.672295,1.1054l7.801903,-1.1209l0.612701,9.8647l-0.660004,10.6366l-0.815498,9.922699l2.059799,6.180302l-1.6782,13.515797l0.481201,10.733303l-12.358398,-0.1432l-9.184502,0.8773l-13.2029,-0.5303l-12.287498,-0.339001l-5.4491,-0.1189l-5.685202,1.285198l-7.1488,-1.8088l-13.6321,1.5495l-7.0515,-0.771797l0.4837,-7.521999l-0.1933,-9.424202l-0.2136,-10.400398l-0.2232,-6.009102l-0.5797,-3.716299l0.7261,-23.781401z"/>
    </g>
    <rect id="svg_72" fill="rgb(0,0,0)" fill-opacity="0" stroke-width="0" stroke-opacity="0" stroke="rgb(0,0,0)" height="20.8438" width="61" y="14.0048" x="10.5"/>
    <text id="svg_73" text-anchor="middle" x="41" fill="rgb(0,0,0)" font-size="16" font-family="Arial" y="31.022">110km/hr</text>
   </g>
  </g>
  <g id="svg_80" transform="matrix(1, 0, 0, 1, 24, 107.147)">
   <g id="svg_81">
    <g id="svg_82" fill="rgb(0,0,0)" fill-opacity="0" stroke-width="2" stroke-opacity="0" stroke="rgb(0,0,0)">
     <path id="svg_83" d="m-3,-7l4.8417,0.0156l8.109,-0.0753l11.7466,-0.806101l11.442501,0.5916l13.1684,0.299l9.8564,0.2955l11.361202,-0.3048l7.672295,1.1054l7.801903,-1.120899l0.612701,9.8647l-0.660004,10.6366l-0.815498,9.922699l2.059799,6.180302l-1.6782,13.5158l0.481201,10.733299l-12.358398,-0.143196l-9.184502,0.877296l-13.2029,-0.530296l-12.287498,-0.339005l-5.4491,-0.118896l-5.685202,1.285194l-7.1488,-1.8088l-13.6321,1.5495l-7.0515,-0.771797l0.4837,-7.521996l-0.1933,-9.42421l-0.2136,-10.400394l-0.2232,-6.009102l-0.5797,-3.716297l0.7261,-23.781403z"/>
    </g>
    <rect id="svg_84" fill="rgb(0,0,0)" fill-opacity="0" stroke-width="0" stroke-opacity="0" stroke="rgb(0,0,0)" height="20.8438" width="70" y="13.0048" x="5"/>
    <text id="svg_85" text-anchor="middle" x="40" fill="rgb(0,0,0)" font-size="16" font-family="Arial" y="30.022">30.555m/s</text>
   </g>
  </g>
  <g id="svg_86">
   <line id="svg_87" fill="none" stroke="rgb(0,0,0)" stroke-dasharray="10,5" y2="360" x2="206" y1="120" x1="206"/>
  </g>
  <g id="svg_88" transform="matrix(1, 0, 0, 1, 158, 336)">
   <g id="svg_89">
    <g id="svg_90" fill="rgb(0,0,0)" fill-opacity="0" stroke-width="2" stroke-opacity="0" stroke="rgb(0,0,0)">
     <path id="svg_91" d="m26,-57l8.019501,0.261101l10.399498,0.6343l8.077202,0.322899l10.285698,-0.2369l6.308998,-0.786201l7.427704,0.643002l6.234497,-1.556499l9.6119,0.565002l21.635002,0.153297l-1.359802,12.993599l2.606606,6.113201l-2.119102,12.642l-0.223503,9.503901l0.884903,11.356899l0.049103,11.0476l0.161797,10.3428l-9.580498,0.391602l-5.973305,0.728096l-13.350296,-1.529999l-10.142303,-0.749001l-5.0467,2.336105l-13.668198,-0.864906l-7.709602,0.899704l-11.847099,-1.1185l-10.681999,-0.093102l1.277901,-5.506401l-0.08,-4.731598l-0.326302,-14.515202l0.090101,-4.980598l-2.0347,-12.056999l-0.069401,-3.975401l1.142401,-28.233801z"/>
    </g>
    <rect id="svg_92" fill="rgb(0,0,0)" fill-opacity="0" stroke-width="0" stroke-opacity="0" stroke="rgb(0,0,0)" height="39.6875" width="45" y="-39.8437" x="47.5"/>
    <text id="svg_93" text-anchor="middle" x="70" fill="rgb(0,0,0)" font-size="16" font-family="Arial" y="-28.1656">2</text>
    <text id="svg_94" text-anchor="middle" x="70" fill="rgb(0,0,0)" font-size="16" font-family="Arial" y="-15.6031">mins</text>
    <text id="svg_95" text-anchor="middle" x="70" fill="rgb(0,0,0)" font-size="16" font-family="Arial" y="-3.0406">120s</text>
   </g>
  </g>
  <g id="svg_96">
   <line id="svg_97" fill="none" stroke="rgb(0,0,0)" y2="96" x2="398" y1="96" x1="206"/>
  </g>
  <g id="svg_98">
   <line id="svg_99" fill="none" stroke="rgb(0,0,0)" y2="116" x2="206" y1="76" x1="206"/>
  </g>
  <g id="svg_100">
   <line id="svg_101" fill="none" stroke="rgb(0,0,0)" y2="116" x2="206" y1="76" x1="206"/>
  </g>
  <g id="svg_102">
   <line id="svg_103" fill="none" stroke="rgb(0,0,0)" y2="116" x2="398" y1="76" x1="398"/>
  </g>
  <g id="svg_104">
   <line id="svg_105" fill="none" stroke="rgb(0,0,0)" y2="72" x2="374" y1="96" x1="398"/>
  </g>
  <g id="svg_106">
   <line id="svg_107" fill="none" stroke="rgb(0,0,0)" y2="92" x2="398" y1="116" x1="374"/>
  </g>
  <g id="svg_108">
   <line id="svg_109" fill="none" stroke="rgb(0,0,0)" y2="72" x2="230" y1="96" x1="206"/>
  </g>
  <g id="svg_110">
   <line id="svg_111" fill="none" stroke="rgb(0,0,0)" y2="96" x2="206" y1="120" x1="230"/>
  </g>
  <g id="svg_118" transform="matrix(1, 0, 0, 1, 270, 68)">
   <g id="svg_119">
    <g id="svg_120" fill="rgb(0,0,0)" fill-opacity="0" stroke-width="2" stroke-opacity="0" stroke="rgb(0,0,0)">
     <path id="svg_121" d="m-6,-3l4.283901,-0.658699l10.501099,1.594898l6.3181,-1.747099l11.8997,1.2125l13.651199,-0.558001l17.346001,0.156401l-0.9543,5.5695l0.9543,18.4305l-14.001801,0.523001l-7.685104,-0.343901l-8.945595,0.7717l-5.156403,-1.888901l-6.127697,1.194901l-22.083401,-0.2568l-0.8356,-10.4305l0.8356,-13.5695z"/>
    </g>
    <rect id="svg_122" fill="rgb(0,0,0)" fill-opacity="0" stroke-width="0" stroke-opacity="0" stroke="rgb(0,0,0)" height="20.8438" width="39" y="-1.4219" x="6.5"/>
    <text id="svg_123" text-anchor="middle" x="26" fill="rgb(0,0,0)" font-size="16" font-family="Arial" y="15.5953">32km</text>
   </g>
  </g>
  <g id="svg_130" transform="matrix(0.3256, 0.9455, -0.9455, 0.3256, 457.632, 144)">
   <g id="svg_131">
    <g id="svg_132" fill="rgb(0,0,0)" fill-opacity="0" stroke-width="2" stroke-opacity="0" stroke="rgb(0,0,0)">
     <path id="svg_133" d="m0.651207,-1.891026l11.403801,0.091702l8.357101,-0.351501l3.618896,0.165501l7.607601,0.172901l10.9398,0.800499l3.635899,-0.482201l6.8708,0.5145l12.148201,-1.7103l22.5532,0.798901l0.5233,12.915302l-0.436401,7.806297l-0.358299,7.145901l-1.003098,8.652298l1.164101,3.984203l-0.201202,4.0005l0.572304,9.959l-0.260704,25.536503l-6.0233,-0.221008l-8.975098,-1.070297l-10.841801,0.508896l-6.432102,0.192505l-5.829899,1.042206l-5.534401,-0.834503l-10.853001,0.162704l-10.938698,0.653488l-21.707001,-0.43399l-0.655197,-4.862396l1.366798,-7.903107l-0.469604,-6.4077l-1.505394,-11.721203l2.290894,-7.961399l-0.031593,-5.0709l-0.056107,-9.967999l-0.939796,-26.105301z"/>
    </g>
    <rect id="svg_134" fill="rgb(0,0,0)" fill-opacity="0" stroke-width="0" stroke-opacity="0" stroke="rgb(0,0,0)" height="20.8438" width="56" y="27.687074" x="16.218807"/>
    <text id="svg_135" text-anchor="middle" x="44.218807" fill="rgb(0,0,0)" font-size="16" font-family="Arial" y="44.704274">0.62m/s</text>
   </g>
  </g>
  <g id="svg_142" transform="matrix(0.3256, 0.9455, -0.9455, 0.3256, 495.882, 144)">
   <g id="svg_143">
    <g id="svg_144" fill="rgb(0,0,0)" fill-opacity="0" stroke-width="2" stroke-opacity="0" stroke="rgb(0,0,0)">
     <path id="svg_145" d="m19.962286,28.027203l11.403799,0.0917l8.357101,-0.3515l3.6189,0.165501l7.607601,0.172899l10.939796,0.800501l3.635906,-0.482201l6.870789,0.5145l12.148209,-1.7103l22.553192,0.798901l0.5233,12.915302l-0.436401,7.806297l-0.358292,7.145901l-1.003098,8.652302l1.164093,3.9842l-0.201202,4.000496l0.572311,9.959l-0.260712,25.536499l-6.0233,-0.220993l-8.975098,-1.070297l-10.841797,0.508896l-6.432098,0.192505l-5.829895,1.042191l-5.534405,-0.834503l-10.853004,0.162704l-10.938698,0.653503l-21.706999,-0.434006l-0.655199,-4.862396l1.366798,-7.903107l-0.469599,-6.407692l-1.5054,-11.721199l2.290899,-7.961403l-0.031601,-5.0709l-0.056099,-9.967999l-0.9398,-26.105301z"/>
    </g>
    <rect id="svg_146" fill="rgb(0,0,0)" fill-opacity="0" stroke-width="0" stroke-opacity="0" stroke="rgb(0,0,0)" height="11.4219" width="7" y="62.316303" x="60.029886"/>
    <text id="svg_147" text-anchor="middle" x="63.529886" fill="rgb(0,0,0)" font-size="8" font-family="Arial" y="71.324903">2</text>
   </g>
  </g>
  <g id="svg_148" transform="matrix(0.9945,-0.1045,0.1045,0.9945,64.5142,656.5814)">
   <g id="svg_149">
    <rect id="svg_150" fill="rgb(0,0,0)" fill-opacity="0" stroke-opacity="0" stroke="rgb(0,0,0)" height="80" width="160" y="0" x="0"/>
    <rect id="svg_151" fill="rgb(0,0,0)" fill-opacity="0" stroke-width="0" stroke-opacity="0" stroke="rgb(0,0,0)" height="77.375" width="100" y="1.3125" x="30"/>
    <text id="svg_152" text-anchor="middle" x="80" fill="rgb(0,0,0)" font-size="0" font-family="Arial" y="66.3813">Text</text>
   </g>
  </g>
 </g>
</svg>