<svg xmlns="http://www.w3.org/2000/svg" width="1123" height="794" stroke="#000"><path fill="#fff" d="M129.5 259.5h20v40h-20z"/><g fill="none"><path d="M129.5303 261.75l2.3182-2.25"/><path d="M129.5 264.5l5-5"/><path d="M129.5 267l7.5-7.5"/><path d="M129.5 272l12.5-12.5"/><path d="M129.5 269.5l10-10"/><path d="M129.5 274.5l15-15"/><path d="M129.5 277l17.5-17.5M129.5 282l20-20m-20 17.5l20-20m-20 25l20-20m-20 22.5l20-20m-20 25l20-20m-20 17.5l20-20m-20 25l20-20m-20 22.75l20-20M130 299.5l19.5-19.5M133 299.25l16.5-16.5m-13.75 16.75l13.75-13.75m-11 13.75l11-11m-8.5 11l8.5-8.5m-5.5 8.5l5.5-5.5m-2.75 5.5l2.75-2.75"/></g></svg>