<?xml version="1.0" encoding="UTF-8" standalone="no"?>
<svg
   width="53.009033"
   height="29.887516"
   stroke="#000000"
   version="1.1"
   id="svg1123"
   sodipodi:docname="H7s6.svg"
   inkscape:version="1.1.1 (3bf5ae0d25, 2021-09-20)"
   xmlns:inkscape="http://www.inkscape.org/namespaces/inkscape"
   xmlns:sodipodi="http://sodipodi.sourceforge.net/DTD/sodipodi-0.dtd"
   xmlns="http://www.w3.org/2000/svg"
   xmlns:svg="http://www.w3.org/2000/svg">
  <defs
     id="defs1127" />
  <sodipodi:namedview
     id="namedview1125"
     pagecolor="#ffffff"
     bordercolor="#666666"
     borderopacity="1.0"
     inkscape:pageshadow="2"
     inkscape:pageopacity="0.0"
     inkscape:pagecheckerboard="0"
     showgrid="false"
     inkscape:zoom="10.245033"
     inkscape:cx="8.8335489"
     inkscape:cy="11.957014"
     inkscape:window-width="1920"
     inkscape:window-height="1027"
     inkscape:window-x="-8"
     inkscape:window-y="1072"
     inkscape:window-maximized="1"
     inkscape:current-layer="svg1123">
    <sodipodi:guide
       position="0.50992588,71.509809"
       orientation="0,26.25"
       id="guide1187" />
    <sodipodi:guide
       position="26.759926,71.509809"
       orientation="71,0"
       id="guide1189" />
    <sodipodi:guide
       position="26.759926,0.50980933"
       orientation="0,-26.25"
       id="guide1191" />
    <sodipodi:guide
       position="0.50992588,0.50980933"
       orientation="-71,0"
       id="guide1193" />
    <sodipodi:guide
       position="8.5571297e-10,18.519619"
       orientation="0,52.509926"
       id="guide1046" />
    <sodipodi:guide
       position="52.509926,18.519619"
       orientation="18.519619,0"
       id="guide1048" />
    <sodipodi:guide
       position="52.509926,3.0931549e-07"
       orientation="0,-52.509926"
       id="guide1050" />
    <sodipodi:guide
       position="8.5571297e-10,3.0931549e-07"
       orientation="-18.519619,0"
       id="guide1052" />
  </sodipodi:namedview>
  <path
     fill="#ffffff"
     d="M 0.50980997,11.877707 H 26.759926 v 17.5 H 0.50980997 Z"
     id="path1451"
     style="stroke-width:1.01962" />
  <g
     fill="none"
     id="g1457"
     transform="matrix(1.0396085,0,0,1,-331.12531,-270.12229)">
    <path
       d="M 319,286.375 322.1562,282"
       id="path1453" />
    <path
       d="M 319,290.75 325.3125,282 M 319,295.5625 l 9.4688,-13.125 M 319.6313,299.5 332.2563,282 m -8.8376,17.0625 11.9937,-16.625 M 326.8906,299.5 339.2,282.4375 M 330.3625,299.5 342.9875,282 m -9.4688,17.5 10.7312,-14.875 m -6.9437,14.875 6.9437,-9.625 m -3.4718,9.625 3.4719,-4.8125"
       id="path1455" />
  </g>
  <g
     id="g1029"
     transform="matrix(0.97707692,0,0,1,-7.9551562,14.138451)">
    <path
       d="m 61.883646,-11.752636 -1.411856,-1.875"
       fill="none"
       id="path2046"
       style="stroke-width:1.02163" />
    <path
       fill="#ffffff"
       d="m 35.529412,-13.627636 h 26.354234 v 7.5384003 H 35.529412 Z"
       id="path2048"
       style="stroke-width:1.02163" />
    <path
       d="m 59.559463,-6.0892357 -5.242874,-6.9629003 m -1.565598,6.6708003 -5.479594,-7.2772003 m -1.265525,7.0693003 -5.299758,-7.0384003 m -0.912326,7.5384003 -4.264376,-5.6634003"
       fill="none"
       id="path2050"
       style="stroke-width:1.02163" />
  </g>
</svg>
