<?xml version="1.0" encoding="UTF-8" standalone="no"?>
<svg
   width="26.25"
   height="71"
   stroke="#000000"
   version="1.1"
   id="svg1123"
   sodipodi:docname="H9.svg"
   inkscape:version="1.1.1 (3bf5ae0d25, 2021-09-20)"
   xmlns:inkscape="http://www.inkscape.org/namespaces/inkscape"
   xmlns:sodipodi="http://sodipodi.sourceforge.net/DTD/sodipodi-0.dtd"
   xmlns="http://www.w3.org/2000/svg"
   xmlns:svg="http://www.w3.org/2000/svg">
  <defs
     id="defs1127" />
  <sodipodi:namedview
     id="namedview1125"
     pagecolor="#ffffff"
     bordercolor="#666666"
     borderopacity="1.0"
     inkscape:pageshadow="2"
     inkscape:pageopacity="0.0"
     inkscape:pagecheckerboard="0"
     showgrid="false"
     inkscape:zoom="5.1225166"
     inkscape:cx="-9.4680025"
     inkscape:cy="25.085326"
     inkscape:window-width="1920"
     inkscape:window-height="1027"
     inkscape:window-x="-8"
     inkscape:window-y="1072"
     inkscape:window-maximized="1"
     inkscape:current-layer="svg1123">
    <sodipodi:guide
       position="0,71"
       orientation="0,26.25"
       id="guide1028" />
    <sodipodi:guide
       position="26.25,71"
       orientation="71,0"
       id="guide1030" />
    <sodipodi:guide
       position="26.25,0"
       orientation="0,-26.25"
       id="guide1032" />
    <sodipodi:guide
       position="0,0"
       orientation="-71,0"
       id="guide1034" />
  </sodipodi:namedview>
  <path
     fill="#ffffff"
     d="M -9.7500036e-6,27.25 H 26.25 V 71 H -9.7500036e-6 Z"
     id="path1298"
     style="stroke-width:1.01961" />
  <g
     fill="none"
     id="g1310"
     transform="matrix(1.0396044,0,0,1,-167.57123,-228.5)">
    <path
       d="m 182.9656,299.5 3.4719,-4.8125 m -6.9438,4.8125 6.9437,-9.625 m -10.7312,9.625 10.7312,-14.875 M 172.55,299.5 186.4375,280.25 m -17.3594,19.25 17.3594,-24.0625 m -20.8313,23.625 20.8313,-28.875 M 161.8188,299.5 186.4375,265.375 m -25.25,30.1875 25.25,-35 m -25.25,30.1875 25.25,-35 m -25.25,26.25 18.9375,-26.25 m -18.9375,30.625 22.0937,-30.625 m -22.0937,21.875 15.7813,-21.875"
       id="path1300" />
    <path
       d="m 161.1875,273.25 12.625,-17.5"
       id="path1302" />
    <path
       d="M 161.1875,264.5 167.5,255.75"
       id="path1304" />
    <path
       d="m 161.1875,268.875 9.4688,-13.125"
       id="path1306" />
    <path
       d="m 161.1875,260.125 2.525,-3.9773"
       id="path1308" />
  </g>
</svg>
