<svg width="600" height="400.00000000000006" xmlns="http://www.w3.org/2000/svg">

 <g>
  <title>background</title>
  <rect fill="none" id="canvas_background" height="402" width="602" y="-1" x="-1"/>
 </g>
 <g>
  <title>Layer 1</title>
  <g id="svg_29">
   <g id="layer1">
    <path id="svg_1" fill-opacity="0" fill="#FFFFFF" d="m335.506989,281.399689l-56.600006,-71.139877l-88.628601,71.139877l145.228607,0"/>
    <path id="svg_2" fill-opacity="0" fill="#FFFFFF" d="m484.455994,138.885559c-12.55426,0 -22.752045,-10.197784 -22.752045,-22.75206c0,-12.554237 10.197784,-22.75206 22.752045,-22.75206c12.554291,0 22.752106,10.197823 22.752106,22.75206c0,12.554276 -10.197815,22.75206 -22.752106,22.75206"/>
    <path id="svg_3" fill-opacity="0" fill="#FFFFFF" d="m529.055664,210.259644l-44.59967,-35.57338l-22.525879,35.57338l67.125549,0"/>
    <path id="svg_4" fill-opacity="0" fill="#FFFFFF" d="m268.230927,210.259567l10.675903,0l-10.675903,8.569687l0,-8.569687"/>
    <line id="svg_5" stroke-linecap="round" stroke="#000000" y2="210.259648" x2="529.055668" y1="210.259563" x1="28.758163"/>
    <line id="svg_6" stroke-linecap="round" stroke="#000000" y2="281.39971" x2="190.27838" y1="210.259818" x1="278.906985"/>
    <line id="svg_7" stroke-linecap="round" stroke="#000000" y2="281.39971" x2="335.506993" y1="281.39971" x1="190.27838"/>
    <line id="svg_8" stroke-linecap="round" stroke="#000000" y2="210.259818" x2="278.906985" y1="281.39971" x1="335.506993"/>
    <line id="svg_9" stroke-linecap="round" stroke="#000000" y2="210.259648" x2="529.055668" y1="174.686254" x1="484.455996"/>
    <ellipse id="svg_10" fill-opacity="0" stroke-linejoin="round" stroke-linecap="round" stroke="#000000" ry="22.752108" rx="22.752108" cy="116.133529" cx="484.455996"/>
    <line id="svg_11" stroke-linecap="round" stroke="#000000" y2="174.686254" x2="484.455996" y1="138.885727" x1="484.455996"/>
    <line id="svg_12" stroke-linecap="round" stroke="#000000" y2="210.259648" x2="461.930106" y1="174.686254" x1="484.455996"/>
    <line id="svg_13" stroke-linecap="round" stroke="#000000" y2="112.457781" x2="268.230928" y1="272.608171" x1="270.459705"/>
    <line id="svg_14" stroke-linecap="round" stroke="#000000" y2="144.693161" x2="108.755804" y1="184.918008" x1="42.787069"/>
    <line id="svg_15" stroke-linecap="round" stroke="#000000" y2="147.911238" x2="527.89858" y1="182.504613" x1="451.471475"/>
    <text transform="matrix(0.283809, 0, 0, 0.283809, -0.88943, 26.2591)" id="svg_16" font-style="normal" font-weight="normal" font-family="Default" fill="#000000" font-size="50.58626" y="992.328337" x="822.208523">Support</text>
    <text transform="matrix(0.283809, 0, 0, 0.283809, -0.88943, 26.2591)" id="svg_17" font-style="normal" font-weight="normal" font-family="Default" fill="#000000" font-size="50.5728" y="106.840007" x="780.661923">Support reaction</text>
   </g>
   <g id="layer2">
    <path id="svg_18" fill-opacity="0" fill="#FFFFFF" d="m70.139946,127.622612c-12.554237,0 -22.752113,-10.197815 -22.752113,-22.75206c0,-12.554245 10.197876,-22.752083 22.752113,-22.752083c12.554276,0 22.752151,10.197838 22.752151,22.752083c0,12.554245 -10.197876,22.75206 -22.752151,22.75206"/>
    <ellipse id="svg_19" fill-opacity="0" stroke-linejoin="round" stroke-linecap="round" stroke="#000000" ry="22.752108" rx="22.752096" cy="104.870584" cx="70.139925"/>
    <path id="svg_20" fill-opacity="0" stroke-linejoin="round" stroke-linecap="round" stroke="#000000" d="m70.139473,104.869186c20.062149,48.730545 3.383247,103.52121 -37.810863,133.950119"/>
    <line id="svg_21" stroke-linecap="round" stroke="#000000" y2="248.473257" x2="120.018777" y1="187.439931" x1="71.294969"/>
   </g>
   <g id="layer3">
    <line id="svg_22" stroke-linecap="round" stroke="#000000" y2="314.545633" x2="75.369184" y1="237.911263" x1="75.369184"/>
    <path id="svg_23" fill-opacity="0" stroke-linejoin="round" stroke-linecap="round" stroke="#000000" d="m65.312988,290.307098c-2.608505,-1.458557 -3.827579,-0.056915 -4.035614,2.773987c-0.357033,2.302246 0.297035,6.033722 1.583656,9.763397c2.64785,7.723633 7.826302,15.440186 12.508156,11.701141"/>
    <path id="svg_24" fill-opacity="0" stroke-linejoin="round" stroke-linecap="round" stroke="#000000" d="m75.369186,314.545624c3.086868,5.416626 25.073273,-32.041168 24.537186,-31.479004"/>
   </g>
   <g id="layer4">
    <line id="svg_25" stroke-linecap="round" stroke="#000000" y2="277.435074" x2="486.064907" y1="221.120436" x1="491.696237"/>
    <line id="svg_26" stroke-linecap="round" stroke="#000000" y2="277.435074" x2="486.064907" y1="250.189987" x1="473.067324"/>
    <line id="svg_27" stroke-linecap="round" stroke="#000000" y2="253.303311" x2="504.200277" y1="277.435074" x1="486.064907"/>
   </g>
   <g id="layer5">
    <path id="svg_28" fill-opacity="0" stroke-linejoin="round" stroke-linecap="round" stroke="#000000" d="m231.039368,144.693161c20.277557,0.450439 34.432526,-61.465851 46.660797,-78.036209c16.086456,26.005806 19.630157,59.408325 22.52594,89.299164c-2.145325,-4.290619 0.024994,-7.343124 -1.139496,-11.352341"/>
   </g>
   <g id="layer6"/>
   <g id="layer7"/>
  </g>
 </g>
</svg>