<svg width="500" height="300" xmlns="http://www.w3.org/2000/svg">
 <filter id="blur">
  <feGaussianBlur stdDeviation="5"/>
 </filter>

 <g>
  <title>background</title>
  <rect fill="none" id="canvas_background" height="302" width="502" y="-1" x="-1"/>
 </g>
 <g>
  <title>Layer 1</title>
  <path id="svg_1" stroke="#000000" stroke-linejoin="round" stroke-linecap="round" fill="none" d="m88.356537,123.218689l-0.768127,-0.819305l0.102417,0.307236l0.716919,0.716888l0,-0.102417l0,-0.051208l0,-0.051193l0,-0.051208l0,-0.051208l0,-0.051208l0,-0.051208l0,-0.102402l0,-0.051208l0,-0.051224l-0.204834,-0.051193l0,-0.051208l0,-0.051208l0,-0.051193l0,-0.051224l0,-0.051193l0,-0.051208l0,-0.051208l0,-0.051193l0,-0.051224l0,-0.051208l0,-0.051193l0,-0.102417l0,-0.051208l0,-0.102417l0,-0.102402l0,-0.102417l0,-0.15361l0,-0.204834l0,-0.153625l0,-0.307236l0.256042,-0.256027l0.102417,-0.307236l0.153625,-0.307236l0.204834,-0.358444l0.204834,-0.256042l0.256042,-0.409637l0.256073,-0.358459l0.307251,-0.358429l0.307251,-0.409653l0.35849,-0.409653l0.307251,-0.409653l0.358459,-0.409653l0.307251,-0.409637l0.307251,-0.358459l0.358459,-0.358429l0.307251,-0.358444l0.409698,-0.460861l0.460876,-0.358459l0.409668,-0.460831l0.563324,-0.358459l0.358459,-0.358444l0.563293,-0.358444l0.358459,-0.307236l0.460876,-0.358444l0.409698,-0.358444l0.512115,-0.460846l0.512085,-0.460861l0.716919,-0.563263l0.819336,-0.51207l0.819366,-0.614487l0.972992,-0.512054l0.921753,-0.563263l0.921753,-0.563278l0.870575,-0.512054l0.870575,-0.409653l0.870544,-0.460861l0.819366,-0.358444l0.870544,-0.409653l0.870575,-0.358444l0.819336,-0.358429l0.921783,-0.460861l0.768158,-0.358459l0.921753,-0.512054l0.870544,-0.358444l0.819366,-0.409653l0.921783,-0.460846l0.921753,-0.409653l0.921753,-0.460861l1.024231,-0.460861l1.024162,-0.409637l1.02417,-0.409653l1.0242,-0.358444l0.972992,-0.307236l0.972961,-0.256027l0.716949,-0.256042l0.921783,-0.15361l0.716919,-0.15361l0.921753,-0.153625l0.972992,-0.153625l0.972992,-0.15361l1.075371,-0.256042l1.075378,-0.204819l1.126648,-0.307236l1.229004,-0.307236l1.229034,-0.307251l1.177826,-0.256027l1.177795,-0.204819l0.972992,-0.153625l1.0242,-0.153625l0.819336,-0.051193l0.819366,-0.102417l0.768127,-0.051193l0.768158,-0.102432l0.768127,-0.051193l0.768127,-0.051208l0.768158,-0.051208l0.870575,-0.051208l0.870544,-0.051208l0.870544,-0.102402l0.870575,0l0.870575,-0.051208l0.870544,0l0.716919,0l0.819366,0l0.614532,0l0.768127,0l0.716919,0l0.716919,0l0.716949,0.256027l0.614532,0l0.614502,0.102417l0.614502,0l0.665741,0.153625l0.66571,0.102402l0.716949,0.102402l0.716919,0.102417l0.66571,0.102417l0.768158,0.102417l0.66571,0.051208l0.768158,0l0.716919,0.15361l0.66571,0.102417l0.716949,0.102402l0.614532,0.153625l0.716919,0.15361l0.614502,0.102432l0.66571,0.102402l0.614532,0.051208l0.614532,0l0.563293,0.153625l0.512085,0.051193l0.563293,0.102417l0.512115,0l0.563293,0.15361l0.614532,0.102432l0.563293,0.102402l0.563293,0.102402l0.563293,0.102432l0.563324,0.102402l0.614502,0.153625l0.563324,0.15361l0.614502,0.102417l0.614502,0.15361l0.66571,0.153625l0.460907,0.204834l0.614532,0.204819l0.409668,0.256042l0.512085,0.204803l0.460876,0.256042l0.460876,0.256027l0.563293,0.256027l0.563324,0.256027l0.614532,0.307236l0.614502,0.204834l0.563293,0.204834l0.563293,0.204819l0.563324,0.15361l0.563293,0.204834l0.563324,0.204819l0.563293,0.256042l0.614502,0.204819l0.614502,0.256042l0.563324,0.256027l0.665741,0.307236l0.614502,0.358429l0.66571,0.307251l0.66571,0.307236l0.614532,0.307236l0.66571,0.256027l0.563324,0.256042l0.563293,0.256027l0.512085,0.256027l0.563324,0.204834l0.460876,0.256027l0.460876,0.307236l0.409668,0.256027l0.460907,0.307236l0.409668,0.358459l0.460876,0.358429l0.460907,0.409668l0.512085,0.409637l0.512085,0.409653l0.563293,0.409637l0.563324,0.409668l0.512085,0.358429l0.460876,0.409653l0.460907,0.307236l0.409668,0.409653l0.460876,0.307236l0.35849,0.409668l0.358459,0.358429l0.358459,0.358444l0.358459,0.307251l0.409698,0.307236l0.358429,0.358429l0.512115,0.307236l0.409668,0.358459l0.563293,0.358429l0.614532,0.358459l0.614502,0.307236l0.768158,0.358429l0.819336,0.358459l0.819366,0.460846l0.819336,0.563278l0.819366,0.614471l0.768127,0.614471l0.768127,0.614487l0.665741,0.563263l0.614532,0.614471l0.614502,0.563278l0.563293,0.563263l0.66571,0.563263l0.614532,0.51207l0.614502,0.512054l0.563293,0.409668l0.512115,0.409637l0.460876,0.409653l0.460907,0.307236l0.409668,0.460861l0.358459,0.358444l0.460876,0.460846l0.409698,0.460861l0.460876,0.460861l0.460876,0.51207l0.512085,0.512054l0.460907,0.51207l0.512085,0.512054l0.512085,0.460846l0.563324,0.460861l0.512085,0.460861l0.563293,0.460861l0.512085,0.460861l0.512115,0.512054l0.512085,0.409653l0.512085,0.460846l0.460907,0.460861l0.512085,0.409653l0.460876,0.358444l0.563324,0.409637l0.512085,0.358459l0.614502,0.409637l0.716949,0.409653l0.563293,0.409653l0.716949,0.512054l0.563293,0.307251l0.66571,0.460846l0.563324,0.358459l0.66571,0.307236l0.614532,0.30722l0.563293,0.307236l0.563293,0.256042l0.512115,0.204819l0.512085,0.204834l0.512085,0l0.563293,0.256027l0.512115,0.153625l0.512085,0.102402l0.512085,0.102417l0.512085,0.102417l0.512115,0.051208l0.460876,0.102402l0.563324,0l0.563293,0l0.614502,0.102417l0.665741,0l0.614502,0l0.819366,0l0.768127,0l0.921783,-0.204819l0.819336,-0.051208l0.921753,-0.051208l0.870575,-0.153625l0.972992,-0.102402l0.972961,-0.153625l1.075409,-0.153625l1.075409,-0.15361l1.126587,-0.153625l1.075409,-0.15361l1.0242,-0.102417l1.177795,-0.102402l0.921829,-0.051208l1.229004,-0.051224l1.126587,-0.051193l1.177856,-0.102417l1.331421,-0.051193l1.38269,-0.051224l1.382629,-0.051208l1.433838,-0.051193l1.433899,-0.051208l1.433838,-0.051193l1.536316,-0.051224l1.433838,-0.051208l1.485107,0l1.485046,-0.051193l1.433899,0l1.382629,0l1.433899,0l1.433838,0l1.280212,0l1.536316,-0.051208l1.382629,-0.051208l1.485107,-0.051208l1.536255,-0.051208l1.536316,-0.051208l1.485046,0l1.536255,0l1.536316,0l1.485046,0l1.536316,0l1.485046,0l1.638733,0l1.587463,0l1.638733,-0.051193l1.536255,-0.051208l1.587524,-0.051224l1.536255,0l1.331421,-0.051193l1.433899,0l1.229004,-0.102417l1.280273,0l1.280212,-0.051193l1.280273,-0.051224l1.229004,0l1.280212,-0.102402l1.229065,-0.051208l1.280212,-0.102417l1.331421,-0.051208l1.229065,-0.15361l1.433838,-0.051208l1.331482,-0.256042l1.433838,-0.102402l1.433838,-0.153625l1.485107,-0.15361l1.536316,-0.102417l1.638672,-0.15361l1.689941,-0.153625l1.68988,-0.15361l1.843567,-0.153625l1.741089,-0.102402l1.792358,-0.153625l1.792297,-0.102417l1.792358,-0.102417l1.741089,-0.102402l1.689941,-0.051208l1.689941,-0.051208l1.536255,0l1.587524,-0.051208l1.485046,0l1.433899,0l1.331421,-0.051208l1.382629,0l1.382629,-0.051208l1.280273,0l1.485046,0l1.280273,0l1.280212,-0.051193l1.331421,-0.051208l1.177856,-0.051224l1.177795,-0.051193l1.177795,0l1.126648,-0.102417l1.126587,0l1.126648,-0.051193l1.126587,-0.051224l1.229004,-0.051208l1.126648,-0.051193l1.126587,-0.102402l1.075378,-0.102432l1.075439,-0.102402l0.921753,-0.153625l0.870544,-0.102402l0.819397,-0.153625l0.768066,-0.102417l0.71698,-0.153625l0.768127,-0.15361l0.768188,-0.153625l0.870483,-0.15361l0.973022,-0.204819l0.768188,-0.153625l1.02417,-0.153625l0.819336,-0.204819l0.973022,-0.153625l0.9729,-0.153625l0.973022,-0.15361l0.972961,-0.153625l0.921753,-0.204819l0.972961,-0.15361l0.921814,-0.153625l0.819397,-0.204834l0.819336,-0.102402l0.768127,-0.153625l0.716858,-0.102402l0.665771,-0.051208l0.614502,-0.102417l0.665771,-0.051208l0.563232,-0.102402l0.614502,-0.051208l0.614563,-0.102417l0.614502,-0.051208l0.66571,-0.102402l0.716919,-0.051224l0.71698,-0.102402l0.819336,-0.102402l0.819397,-0.102432l0.870544,-0.102402l0.870544,-0.051208l0.768127,-0.102417l0.71698,-0.051208l0.716919,0l0.66571,-0.051193l0.614441,0l0.71698,0l0.563293,0l0.819336,0l0.716919,0l0.921814,0l1.024231,0.358429l1.02417,0.153625l1.075378,0.204834l1.075378,0.307236l1.075439,0.307236l1.075378,0.358429l1.024231,0.307251l1.02417,0.307236l0.921753,0.307236l0.972961,0.256027l0.972961,0.256042l0.921753,0.307236l0.973022,0.307236l0.921753,0.307236l0.819336,0.307236l0.819397,0.358444l0.768127,0.358459l0.716919,0.409637l0.768188,0.512054l0.819336,0.51207l0.819336,0.614471l0.819336,0.66568l0.870605,0.614471l0.819336,0.716888l0.716919,0.614487l0.870544,0.768097l0.614563,0.768097l0.716919,0.81929l0.563232,0.921707l0.614563,0.819305l0.563293,0.819305l0.563354,0.81929l0.563232,0.921722l0.512085,0.972916l0.512085,0.972916l0.460938,0.921722l0.512085,0.972916l0.409668,0.921707l0.307251,0.870514l0.256104,0.716873l0.153564,0.716888l0.102417,0.563278l0,0.512054l0,0.460861l0,0.409653l-0.307251,0.409653l-0.153564,0.409653l-0.204834,0.409653l-0.204956,0.460846l-0.255981,0.563278l-0.307251,0.563263l-0.307251,0.614471l-0.307251,0.665695l-0.358521,0.563263l-0.358398,0.563263l-0.460938,0.51207l-0.512085,0.460861l-0.512085,0.409653l-0.614502,0.409637l-0.614502,0.358459l-0.614502,0.358429l-0.768188,0.358444l-0.716919,0.409653l-0.870605,0.460861l-0.768066,0.409637l-0.768188,0.51207l-0.614502,0.358444l-0.66571,0.409637l-0.66571,0.358459l-0.665771,0.307236l-0.665649,0.358444l-0.71698,0.256027l-0.716858,0.204819l-0.819458,0.256042l-0.921753,0.307236l-1.02417,0.256027l-1.075378,0.358459l-1.075378,0.204819l-1.126587,0.256027l-1.024292,0.204819l-1.02417,0l-0.870544,0.307251l-0.819336,0.102402l-0.768127,0.102417l-0.768188,0.102417l-0.716919,0.15361l-0.870544,0.153625l-0.819336,0.102402l-0.921814,0.153625l-0.9729,0.153625l-1.075439,0.15361l-1.177856,0.153625l-1.126587,0.204819l-1.229004,0.204819l-1.075439,0.256027l-1.177734,0.153625l-1.024231,0.204834l-1.075378,0.15361l-1.02417,0.102417l-0.973022,0.102417l-1.075378,0.051193l-1.075378,0l-1.280273,0.102432l-1.331421,0l-1.485107,0.102402l-1.485107,0l-1.382629,0.102402l-1.382629,0.102432l-1.177856,0.102402l-1.02417,0.102417l-1.02417,0.102402l-0.973022,0.153625l-1.02417,0.102417l-1.02417,0.153625l-1.02417,0.15361l-1.075439,0.153625l-0.921753,0.15361l-1.075439,0.153625l-0.921753,0.15361l-0.972961,0.102417l-1.024231,0.102402l-0.9729,0.153625l-1.02417,0.051208l-1.024292,0.102417l-1.075317,0.102402l-1.075439,0.102417l-1.177795,0.102417l-1.177795,0.102402l-1.280273,0.102432l-1.229004,0.102402l-1.229065,0l-1.280212,0.102402l-1.280273,0.102432l-1.280212,0l-1.177795,0.153595l-1.229065,0.102432l-1.228943,0.051193l-1.229065,0l-1.280212,0.102417l-1.280273,0.102417l-1.229004,0.102402l-1.38269,0.153625l-1.433838,0.204834l-1.485107,0.204819l-1.587463,0.204819l-1.587463,0.204834l-1.689941,0.153625l-1.741089,0.15361l-1.946045,0.204819l-2.04834,0.153625l-2.150818,0.204819l-2.304382,0.204834l-2.355652,0.256027l-2.509277,0.307236l-2.509277,0.358444l-2.560486,0.256042l-2.560425,0.307236l-2.560486,0.256027l-2.714111,0.204819l-2.560486,0.102417l-2.662842,0.102417l-2.509338,0l-2.509216,0l-2.458069,0l-2.304443,0l-2.253174,-0.204834l-2.150818,-0.153625l-1.997192,-0.051193l-1.997131,-0.153625l-1.945984,-0.102402l-1.945923,-0.102417l-1.894775,-0.153625l-1.894714,-0.204819l-1.792358,-0.15361l-1.638733,-0.153625l-1.68988,-0.153625l-1.587524,-0.15361l-1.587463,-0.153625l-1.485107,-0.102402l-1.433838,-0.051208l-1.331421,-0.051224l-1.331482,0l-1.331421,0l-1.280212,0l-1.280273,0l-1.280212,0l-1.229065,0l-1.177795,0l-1.229004,0l-1.075439,0l-1.126587,0l-1.075378,0l-0.921814,0l-0.921753,-0.051193l-0.768127,-0.051208l-0.716919,-0.102402l-0.665771,-0.051224l-0.563293,-0.051208l-0.563293,-0.102402l-0.409668,-0.102417l-0.460876,-0.15361l-0.512146,-0.102432l-0.512085,-0.15361l-0.563293,-0.102417l-0.614502,-0.15361l-0.614502,-0.051208l-0.66571,-0.15361l-0.716934,-0.102417l-0.66571,-0.153625l-0.768188,-0.153625l-0.665741,-0.102402l-0.716919,-0.102402l-0.665741,-0.153625l-0.614471,-0.102417l-0.665771,-0.102417l-0.66571,-0.102402l-0.716949,-0.153625l-0.768097,-0.102402l-0.870575,-0.153625l-0.921783,-0.15361l-0.921753,-0.153625l-0.870544,-0.051208l-0.870575,0l-0.768158,0l-0.819336,0l-0.768158,0.307236l-0.768127,0.153625l-0.768158,0.204803l-0.66571,0.204834l-0.614532,0.204834l-0.563293,0.256027l-0.460876,0.204834l-0.409668,0.204819l-0.409668,0.256027l-0.409698,0.307236l-0.358459,0.307236l-0.460876,0.409668l-0.460907,0.409637l-0.460876,0.512054l-0.460876,0.51207l-0.512085,0.563263l-0.35849,0.563278l-0.409668,0.66568l-0.358459,0.563263l-0.358459,0.614487l-0.35849,0.614471l-0.409668,0.512054l-0.358459,0.614487l-0.460876,0.563263l-0.409698,0.614471l-0.358459,0.614487l-0.409668,0.563263l-0.358459,0.51207l-0.307251,0.563263l-0.307281,0.51207l-0.358459,0.512054l-0.256042,0.563263l-0.409668,0.460861l-0.307251,0.51207l-0.460907,0.614471l-0.409668,0.512054l-0.512085,0.614487l-0.665741,0.460861l-0.614502,0.460846l-0.665741,0.460861l-0.66571,0.460846l-0.66571,0.460861l-0.614532,0.409653l-0.66571,0.460861l-0.665741,0.460846l-0.66571,0.51207l-0.819366,0.460861l-0.819336,0.460861l-0.870544,0.512054l-0.921783,0.51207l-0.921783,0.512054l-1.02417,0.51207l-0.921783,0.460846l-0.972961,0.512054l-0.972992,0.460861l-0.921753,0.409653l-1.0242,0.51207l-0.921753,0.409653l-0.972992,0.51207l-1.0242,0.460846l-0.972961,0.512054l-1.0242,0.409653l-0.972992,0.460846l-0.921753,0.409668l-0.819366,0.307251l-0.716919,0.358429l-0.768158,0.256027l-0.66571,0.358444l-0.870575,0.307251l-0.972961,0.409622l-1.075409,0.358475l-1.229034,0.460846l-1.177795,0.409653l-1.126617,0.409653l-1.02417,0.460846l-0.921783,0.409653l-0.921783,0.409653l-0.870544,0.358429l-0.768158,0.30722l-0.819336,0.307251l-0.819366,0.256042l-0.972961,0.256042l-1.075409,0.307251l-1.126617,0.30722l-1.433838,0.358429l-1.485077,0.409668l-1.638702,0.358429l-1.74115,0.307251l-1.638672,0.307251l-1.485077,0.256012l-1.485077,0l-1.229034,0.358459l-1.177826,0.153625l-1.126587,0.153595l-1.0242,0.102417l-1.177826,0.102417l-1.177795,0.153625l-1.38269,0.153595l-1.382629,0.153625l-1.485077,0.153625l-1.433868,0.102417l-1.433838,0.102386l-1.331482,0.051239l-1.280212,0l-1.229034,0l-1.229034,0l-1.280212,0l-1.331451,0l-1.536285,0l-1.485077,0l-1.638702,0l-1.689941,-0.256042l-1.68988,-0.153625l-1.741119,-0.153625l-1.792328,-0.153595l-1.894775,-0.153625l-1.792328,-0.204834l-1.945953,-0.102417l-1.843536,-0.051178l-1.945953,-0.051239l-1.843567,-0.051208l-1.997124,-0.051178l-1.792358,-0.153625l-1.843536,-0.102417l-1.843536,-0.204834l-1.485046,-0.256042l-1.485107,-0.256042l-1.229004,-0.30722l-1.075401,-0.30722l-1.177826,-0.409668l-1.075378,-0.358429l-1.075409,-0.358459l-1.126617,-0.409637l-1.177795,-0.460846l-1.177826,-0.409668l-1.485077,-0.204803l-1.280243,-0.51207l-1.485077,-0.307251l-1.433838,-0.307251l-1.126648,-0.512054l-1.229004,-0.30722l-0.921753,-0.563278l-0.768158,-0.51207l-0.870575,-0.30722l-0.768127,-0.614502l-0.716919,-0.409622l-0.819366,-0.614502l-0.563324,-0.716873l-0.819336,-0.307251l-0.66571,-0.614471l-0.614502,-0.358429l-0.665741,-0.563293l-0.614532,-0.716873l-0.870544,-0.614471l-0.819336,-0.716888l-0.870575,-0.768097l-0.921783,-0.66568l-0.921753,-0.66568l-0.870544,-0.614471l-0.819366,-0.614471l-0.819351,-0.614471l-0.716934,-0.716888l-0.256042,-0.614487l-0.563309,-0.614471l0,-0.460861l-0.460876,-0.358429l-0.256058,-0.307236l-0.307251,-0.256042l-0.204834,-0.256027l-0.153641,-0.102417l-0.204834,-0.204834l-0.153625,-0.102402l-0.204834,-0.307236l0.307251,-0.358459l0,-0.358429l0.204834,-0.409653l-0.051208,-0.256042l0,-0.307236l0,-0.307236l0,-0.307236l-0.256042,-0.256027l0,-0.307236l0,-0.307251l0,-0.307236l0,-0.30722l0.204834,-0.358444l0.153625,-0.358459l0.204834,-0.460861l0.204849,-0.409637l0.307251,-0.512054l0.358475,-0.460861l0.358459,-0.51207l0.409668,-0.460861l0.460892,-0.460861l0.409668,-0.460831l0.512085,-0.460861l0.512115,-0.460861l0.563293,-0.563263l0.563324,-0.563278l0.614502,-0.66568l0.66571,-0.614471l0.870575,-0.819305l0.716949,-0.66568l0.819336,-0.768097l0.563293,-0.512054l0.563293,-0.460861l0.409668,-0.358444l0.409698,-0.256027l0.409668,-0.256027l0.35849,-0.204834l0.614502,-0.460861l0.409668,-0.256027l0.716919,-0.51207l0.409668,-0.256027l0.614532,-0.307236l0.614532,-0.307236l0.716919,-0.307251l0.716919,-0.307236l0.768158,-0.256027l0.66571,-0.307236l0.614532,-0.153625l0.512085,-0.15361l0.512085,-0.102417l0.512085,-0.102402l0.512115,-0.102417l0.614532,-0.102417l0.716919,-0.15361l0.819336,-0.153625l0.972961,-0.153625l0.973022,-0.204819l1.075378,-0.204819l1.126617,-0.204834l0.972961,-0.102402l1.075409,-0.102417l0.921753,0l0.921783,0l0.819366,0l0.819336,0.256027l0.870544,0.153625l0.921783,0.102402l0.921776,0.102417l1.02417,0.051208l1.0242,0l1.075409,0l1.126587,0.102402l1.0242,0l1.229034,0.102432l1.075378,0.15361l1.126617,0.102417l1.177826,0.15361l1.126579,0.102417l1.126617,0.102417l1.075409,0.051193l1.075378,0l1.0242,0.102432l1.075409,0l1.02417,0l1.075409,0.204803l1.075409,0.102432l1.126587,0.153595l1.126617,0.102432l1.177826,0.15361l1.075378,0.102417l1.075409,0.102402l1.075409,0.102432l1.02417,0.102402l1.0242,0.051208l1.075409,0.102417l1.229004,0l1.126617,0.102402l1.433868,0l1.38266,0l1.433868,0l1.485046,0l1.38269,0l1.331421,-0.204819l1.280243,0l1.229034,-0.051208l1.177795,0l1.280243,0l1.229034,0l1.280212,0l1.280273,-0.051208l1.280212,-0.102417l1.126617,-0.102402l1.126617,-0.102417l0.921753,-0.102417l0.716919,-0.102402l0.563324,0l0.512115,-0.102432l0.307251,0l0.307251,0l0.307251,-0.051193l0.307251,0l0.256042,-0.051208l0.204834,-0.051193l0.256042,-0.051208l0.204834,-0.102417l0.153625,-0.15361l0.153625,-0.153625l0.102417,-0.204834l0,-0.15361l0.051239,-0.204834l0,-0.204819l0.051208,-0.307236l0.051178,-0.358444l0.204865,-0.460861l0.102417,-0.512054l0.35849,-0.614487l0.204834,-0.716873l0.460876,-0.768097l0.358459,-0.819305l0.409668,-0.870514l0.409668,-0.81929l0.307251,-0.972916l0.409698,-0.870514l0.204834,-0.870514l0.256073,-0.81929l0.102386,-0.819305l0.102417,-0.768082l0.051239,-0.768097l0.102417,-0.819305l0.153625,-0.819305l0.153625,-0.870499l0.204834,-0.972931l0.153625,-0.921707l0.153625,-0.921707l0.256042,-0.972931l0.102417,-0.81929l0.204834,-0.870499l0.051208,-0.819321l0,-0.870499l0.102417,-0.81929l0,-0.870529l0.051208,-0.81929l0.051208,-0.921707l0.102417,-0.819305l0.051208,-0.870499l0.102417,-0.768097l0.102417,-0.716888l0.051208,-0.66568l0.051208,-0.716888l0.051239,-0.614487l0,-0.563263l0,-0.460861l0,-0.409637l-0.35849,-0.409668l-0.153625,-0.358429l-0.153625,-0.409653l-0.051208,-0.256042l-0.204834,-0.409637l-0.051208,-0.307251l-0.102417,-0.358429l-0.153625,-0.358444l-0.153625,-0.256027l-0.153625,-0.307251l-0.204834,-0.204819l-0.153625,-0.256027l-0.307251,-0.153625l-0.35849,-0.15361l-0.35849,-0.153625l-0.409668,-0.204834l-0.409668,-0.204819l-0.460876,-0.15361l-0.460876,-0.153625l-0.460876,-0.15361l-0.563324,-0.102417l-0.460876,-0.15361l-0.614532,-0.051224l-0.563293,-0.102402l-0.716919,-0.051208l-0.716919,-0.051208l-0.768158,-0.051208l-0.768158,0l-0.66571,0l-0.66571,0l-0.614532,0l-0.66571,0.256027l-0.614532,0l-0.716919,0.153625l-0.614502,0.153625l-0.716919,0.15361l-0.71698,0.204834l-0.768127,0.153625l-0.716919,0.153595l-0.768127,0.153625l-0.614532,0.102417l-0.716949,0.102417l-0.563293,0.051208l-0.66571,0l-0.66571,0l-0.665741,0.15361l-0.768158,0l-0.819336,0.102417l-0.870544,0.102402l-0.972992,0.102432l-0.921783,0.15361l-0.972961,0.204819l-1.0242,0.15361l-0.972992,0.153625l-0.972961,0.153625l-0.819336,0.102402l-0.870575,0.051208l-0.614532,0.102417l-0.819336,0l-0.614502,0l-0.716919,0.102417l-0.768158,0l-0.768158,0.102402l-0.819336,0.102417l-0.819336,0.102417l-0.870575,0l-0.819366,0.153625l-0.819336,0.051193l-0.716919,0l-0.71698,0l-0.66571,0l-0.716919,0l-0.66571,-0.204819l-0.819336,-0.051208l-0.768158,0l-1.0242,-0.051208l-1.02417,0l-1.177826,0l-1.229034,0l-1.331421,0l-1.331482,0.256042l-1.331413,0l-1.229034,0l-1.0242,0l-0.870544,0l-0.768158,0l-0.768158,-0.204834l-0.614502,-0.204834l-0.870544,-0.256027l-0.768158,-0.307236l-0.819336,-0.307236l-0.870575,-0.358429l-0.768127,-0.256042l-0.76812,-0.307251l-0.768158,-0.256027l-0.768158,-0.256027l-0.819336,-0.204819l-1.02417,-0.204819l-1.075409,-0.204834l-1.229034,-0.153625l-1.177795,-0.15361l-1.331482,-0.153625l-1.126587,-0.204819l-1.177826,-0.204819l-1.075409,-0.204834l-0.972961,-0.204819l-0.921753,-0.256042l-0.819366,-0.256027l-0.716949,-0.204834l-0.716919,-0.256027l-0.614502,-0.15361l-0.563324,-0.153625l-0.614502,-0.153625l-0.665741,-0.102402l-0.66571,-0.102402l-0.768127,-0.051224l-0.716949,0l-0.614502,-0.051208l-0.716949,0l-0.512085,0l-0.563293,-0.051193l-0.358459,-0.102417l-0.460907,-0.102417l-0.409668,-0.204819l-0.409698,-0.204819l-0.409668,-0.153625l-0.409668,-0.256027l-0.460876,-0.153625l-0.460876,-0.15361l-0.460876,-0.153625l-0.512115,-0.204834l-0.614532,-0.15361l-0.512085,-0.204819l-0.563293,-0.153625l-0.409668,-0.204819l-0.358459,-0.204834l-0.204834,-0.204819l-0.204865,-0.204834l-0.102417,-0.204819l0,-0.15361l0,-0.153625l-0.102417,-0.15361l0,-0.102432l0,-0.15361l-0.102417,-0.204819l0,-0.204834l0,-0.256027l-0.102417,-0.307236l0,-0.358459l0,-0.460846l0,-0.460846l0,-0.563278l0,-0.66568l0.256042,-0.716888l0.102448,-0.819305l0.153625,-0.81929l0.204834,-0.921722l0.307251,-0.921707l0.460876,-1.024124l0.563293,-1.280151l0.870544,-1.331375l0.870605,-1.433777l0.870544,-1.433777l0.870544,-0.921707l-0.460876,-1.638611l0,-0.256027l-2.40686,-1.741013"/>
  <path id="svg_2" stroke="#000000" stroke-linejoin="round" stroke-linecap="round" fill="none" d="m130.194656,137.505234l0.512085,0.409637l-0.614532,-0.512054l0.102448,0l-0.256073,0l-0.153625,0l-0.102417,0l0,0.051208l-0.051208,0l0,-0.051208l-0.102417,0l-0.102417,0l-0.102448,0.307236l-0.153625,0.153625l-0.153625,0.307236l-0.358459,0.307236l-0.358459,0.512054l-0.512077,0.614487l-0.614502,0.819305l-0.768158,0.870499l-0.870575,1.075333l-1.075378,1.126541l-1.177826,1.228958l-1.126617,1.228943l-1.177795,1.024124l-0.972992,0.921707l-0.921783,0.665695l-0.716919,0.665665l-0.66571,0.460861l-0.563316,0.460861l-0.460846,0.307236l-0.35849,0.204819l-0.256042,0.153625l0,0.15361l-0.204865,0.102432l0,0.102402l-0.102417,0l0,0.051208l-0.102417,0l0,-0.204834l0,-0.051208l0.204834,0l0.051239,0l0.051178,0.256042l0,0.102417l0.051208,0.102402l0.051239,0.153625l0.051178,0.204819l0.102448,0.256027l0.102417,0.307251l0.153625,0.256027l0.204865,0.358444l0.256042,0.358429l0.256042,0.460861l0.307243,0.51207l0.358459,0.563263l0.358459,0.614487l0.358459,0.614471l0.307251,0.614487l0.307281,0.665665l0.256042,0.563263l0.307251,0.563293l0.256042,0.512054l0.256042,0.51207l0.256073,0.460846l0.307251,0.460846l0.409668,0.51207l0.358459,0.460861l0.563293,0.512054l0.460907,0.460861l0.563293,0.460861l0.614532,0.409637l0.563293,0.51207l0.66571,0.358459l0.460876,0.409637l0.512115,0.358444l0.358459,0.307236l0.35849,0.307236l0.307251,0.204834l0.256042,0.256027l0.256042,0l0.204834,0.307236l0.204834,0.153625l0.153618,0.051208l0.153625,0.102402l0.102417,0l0.051208,0l0.051208,0l-0.256042,-0.204834l-0.102417,0l-0.153618,0l0.40966,0.870529l-1.024162,-0.665695l0.307251,0.460861"/>
  <path id="svg_3" stroke="#000000" stroke-linejoin="round" stroke-linecap="round" fill="none" d="m123.486229,163.057159l0.256042,0.460861l-0.35849,-0.358444l0.512115,0l-0.716949,-0.870514l0.102417,0l0,-0.15361l0,0.307236l0,0.102402l0.153625,0l0.153656,0.102432l0.256042,0.15361l0.307251,0.256027l0.409668,0.256027l0.358459,0.409653l0.460876,0.409668l0.460907,0.409637l0.409668,0.358444l0.409668,0.358444l0.35849,0.358444l0.358459,0.307236l0.307251,0.307236l0.256042,0.204834l0.256035,0.204819l0.256042,0l0.204834,0.409653l0.256042,0.256027l0.204865,0.358444l0.256042,0.409653l0.204834,0.358444l0.256042,0.460846l0.256042,0.51207l0.204865,0.409653l0.256042,0.409637l0.204834,0.307236l0.102417,0.204834l0.153625,0.153625l0.102417,0.102402l0.051208,0.051208l0.051208,0l0.051208,0.102417l0,-0.512054l0.358459,0.563263l-0.716919,-1.024124"/>
  <path id="svg_4" stroke="#000000" stroke-linejoin="round" stroke-linecap="round" fill="none" d="m153.546158,136.737137l-0.921783,-0.819305l0.102417,0.409653l0.665741,0.716888l0.102417,0l0.051208,0l0.102417,0l0.102417,0l0.102417,0l0.102417,0l0.153625,0.358444l0.153625,0.204834l0.204834,0.409653l0.256042,0.409637l0.307251,0.563263l0.358459,0.563278l0.35849,0.614471l0.358459,0.665695l0.35849,0.614471l0.409668,0.66568l0.409668,0.66568l0.460876,0.716888l0.460876,0.768097l0.460876,0.768082l0.512115,0.768097l0.460876,0.665695l0.460907,0.665665l0.512085,0.614487l0.460876,0.614471l0.563293,0.665695l0.512085,0.614456l0.512115,0.563278l0.460907,0.512054l0.409668,0.460861l0.358459,0.307236l0.256042,0.256027l0.153625,0.204834l0.102417,0.153625l0.102417,0.102402l0,-0.256027l0,-0.051208l0,-0.051193l0,0.256027l0.051208,0.102402l0.102417,0l0.102417,0.204834l0.102417,0.102402l0.204834,0.153625l0.204834,0.307236l0.256073,0.307236l0.307251,0.460861l0.307281,0.409653l0.30722,0.409637l0.204865,0.409653l0.204834,0.307236l0.153625,0.204834l0.102417,0.15361l0.051208,0.102417l0,0.051208l0,-0.204834l0,-0.051193l-0.256042,-0.051208l0,-0.051208l-0.102417,-0.051208l-0.153625,0l-0.051208,0l-0.102417,0l0,0.256027l-0.153625,0.102417l-0.204834,0.204834l-0.256073,0.256027l-0.358459,0.358444l-0.460907,0.563263l-0.614502,0.66568l-0.768127,0.819305l-0.819336,0.921722l-0.921783,0.9729l-0.870575,1.075348l-0.921753,1.024124l-0.819366,1.024124l-0.716949,0.870499l-0.66571,0.716888l-0.512085,0.614471l-0.409668,0.563263l-0.409668,0.51207l-0.35849,0.460861l-0.35849,0.512054l-0.409668,0.460861l-0.409668,0.409653l-0.409668,0.409653l-0.409668,0.460861l-0.409668,0.358429l-0.409668,0.409653l-0.409668,0.409653l-0.35849,0.307251l-0.358459,0.307236l-0.409698,0.256027l-0.307251,0.204819l-0.307251,0.102417l-0.256042,0.102402l-0.153625,0.051224l-0.153625,0l-0.051208,0l-0.102417,0l0,-0.204834l-0.102417,0l-0.102417,0l-0.102417,0l-0.102417,0l0,0.256027l-0.102417,0.102417l0,0.102417l0.66571,0.102402l0,-1.126526l1.177795,0l0,-1.741013"/>
  <path id="svg_5" stroke="#000000" stroke-linejoin="round" stroke-linecap="round" fill="none" d="m144.277237,150.358017l0.256042,0.716888l-0.870544,-0.256042l-0.35849,0l-0.972961,-0.819305l-0.256042,0l-0.307281,-0.204819l-0.256042,-0.102417l-0.307251,-0.102402l-0.204834,-0.051208l-0.307251,-0.102417l-0.307251,-0.051208l-0.35849,0l-0.409668,0l-0.409668,0l-0.512115,0l-0.512085,0l-0.512085,0l-0.563293,0l-0.409668,0l-0.460907,0l-0.35849,0.256027l-0.307251,0.102417l-0.307251,0.153625l-0.256042,0.153625l-0.256042,0.204803l-0.256042,0.256027l0,0.256042l-0.358459,0.307251l-0.102417,0.409637l-0.102417,0.460861l-0.102417,0.563263l0,0.665695l0,0.614456l0,0.614487l0.307251,0.563263l0.256042,0.51207l0.358459,0.51207l0.409668,0.512054l0.460876,0.460861l0.563324,0.51207l0.563293,0.358429l0.665741,0.409653l0.768127,0.307236l0.819336,0.204834l0.870575,0.102402l0.819366,0.102402l0.716919,0l0.716919,0l0.665741,0l0.614532,-0.256027l0.563293,-0.204803l0.512085,-0.256042l0.512085,-0.307251l0.512085,-0.358429l0.460907,-0.358444l0.358459,-0.460861l0.35849,-0.460861l0.256042,-0.512054l0.153625,-0.563263l0.153625,-0.614487l0.051208,-0.614471l0,-0.716888l0,-0.614471l0,-0.768097l-0.307251,-0.716888l-0.256042,-0.768097l-0.307281,-0.716888l-0.460876,-0.716888l-0.512115,-0.51207l-0.66571,-0.409637l-0.66571,-0.204834l-0.768127,-0.102402l-0.768158,0l-0.665741,0l-0.66571,-0.409653l0.153625,0.614471l-0.819336,-1.228943"/>
  <path id="svg_6" stroke="#000000" stroke-linejoin="round" stroke-linecap="round" fill="none" d="m400.734192,152.25264l0.204834,0l-0.870605,-0.51207l0.102417,0l0,-0.102402l0,0.256027l0,0.204834l0,0.102402l0,0.153625l0,0.256027l0.05127,0.409653l0.204834,0.66568l0.255981,0.870499l0.307312,1.075333l0.307251,1.228958l0.307251,1.280151l0.256042,1.33136l0.204834,1.433777l0.153687,1.33136l0.204773,1.382584l0.153625,1.280151l0.204834,1.382568l0.256104,1.382568l0.204834,1.433777l0.255981,1.484985l0.153687,1.48497l0.153564,1.433777l0.153687,1.484985l0.102417,1.484985l0.153625,1.48497l0.102417,1.638611l0.102417,1.638596l0.051208,1.741013l0,1.84343l0,1.84343l0,1.894638l0,1.792221l-0.358459,1.741013l-0.204834,1.587387l-0.307251,1.382568l-0.307312,1.433777l-0.409668,1.382568l-0.460876,1.382584l-0.512085,1.484985l-0.614502,1.587372l-0.614563,1.485001l-0.665649,1.536179l-0.665771,1.382568l-0.614502,1.33136l-0.716919,1.280151l-0.716919,1.33136l-0.819336,1.33139l-0.870605,1.433746l-0.921753,1.484985l-1.075439,1.382568l-1.075317,1.382568l-1.126648,1.33139l-1.126587,1.126526l-0.972961,1.126526l-1.024231,0.870514l-0.870544,0.819305l-0.973022,0.614471l-0.768127,0.563263l-0.768127,0.409668l-0.66571,0.358429l-0.563293,0.30722l-0.460876,0.204834l-0.358459,0.153625l-0.204834,0.153595l-0.204834,0l0,-1.126526l0.563232,0l-0.768127,-1.433777"/>
  <path id="svg_7" stroke="#000000" stroke-linejoin="round" stroke-linecap="round" fill="none" d="m376.973022,201.871521l0.153625,1.433777l-1.331421,-0.460876l-0.409729,0l-0.972961,-0.716873l0,0.716873l0,1.126541l0,1.587402l0,1.945847l0.153625,2.253052l0.102417,2.355499l0.153625,2.611511l0.102417,2.611542l0.051208,2.509094l0.051208,2.304291l0,2.048248l0.102417,1.945831l0.102417,1.741028l0.204834,1.740997l0.204834,1.689819l0.358459,1.740997l0.409729,1.587402l0.563293,1.484985l0.716919,1.024109l0.870544,0.716919l1.02417,0l1.229004,-0.102448l1.485107,-0.768097l1.894775,-1.177704l2.202026,-1.536194l2.406799,-1.741028l2.662903,-1.843414l2.611694,-1.741028l2.560425,-1.536194l2.304443,-1.433777l1.945984,-1.945801l2.201965,-0.563293l0.409668,-1.99704"/>
  <path id="svg_8" stroke="#000000" stroke-linejoin="round" stroke-linecap="round" fill="none" d="m233.484085,154.812943l2.150787,0.716904l0.512115,-0.563278l0.102417,-0.256027l0,-1.17775l0.358459,-0.256027l0.409668,-0.307236l0.409668,-0.204834l0.204865,-0.256027l0.256042,-0.204834l0.051208,-0.204803l0.051208,-0.102432l0,-0.102402l-0.256042,-0.051193l-0.256042,0l-0.35849,0l-0.512085,0l-0.716949,0l-1.02417,0.256027l-1.229034,0.256027l-1.280243,0.256027l-1.280212,0.358444l-1.0242,0.307236l-0.563293,0.307236l-0.35849,0.256027l-0.051208,0.204834l0,0.204819l0.307281,0.204834l0.358459,0.409637l0.563293,0.358459l0.716949,0.512054l0.921753,0.563263l0.921783,0.51207l0.921783,0.51207l0.819336,0.460846l0.614502,0.409653l0.512085,0.358444l0.35849,0.307236l0.153625,0.307236l0,0.307236l0,0.307251l-0.35849,0.409637l-0.256042,0.409653l-0.358459,0.409653l-0.307251,0.307251l-0.358459,0.307236l-0.307251,0l-0.307281,0.204819l-0.358459,0l-0.460876,0l-0.614502,0l-0.716949,0l-0.768127,0l-0.563324,0.15361l-1.177795,-0.563263l0.409668,0.563263l-0.614532,-0.665665"/>
  <path id="svg_9" stroke="#000000" stroke-linejoin="round" stroke-linecap="round" fill="none" d="m243.777176,155.581039l-0.307251,-0.460861l0.563293,0l0,-0.614456l0.153656,-0.256042l0.153625,-0.153625l0.153625,0l0.102417,0l0.102417,0.358459l0.102417,0.409637l0.153625,0.614487l0.153625,0.665665l0.153625,0.819321l0.051208,0.870499l0,0.768097l0,0.66568l0,0.614471l-0.256012,0.563263l-0.204865,0.460861l-0.204834,0.460861l-0.256073,0.51207l-0.307251,0.409637l-0.204834,0.358459l-0.204803,0.256027l0,-0.256027l0.153625,-0.256042l0,-1.280151l0.921753,-0.153625l-0.256042,-1.484985"/>
  <path id="svg_10" stroke="#000000" stroke-linejoin="round" stroke-linecap="round" fill="none" d="m247.310623,153.481583l1.587494,0.614471l0.204865,-0.665665l0.460846,-0.102432l-0.460846,-0.921692l0.204834,0l0.204834,0l0.256042,0l0.307251,0l0.409668,0.204819l0.460876,0.102417l0.460907,0.153625l0.512115,0.15361l0.409637,0.204819l0.409698,0.256027l0.256042,0.256042l0.153625,0.256027l0.051208,0.256027l0,0.256042l0,0.30722l-0.614502,0.358459l-0.409698,0.409637l-0.614502,0.409668l-0.716919,0.512054l-0.870575,0.51207l-0.819336,0.460861l-0.768158,0.409637l-0.66571,0.256027l-0.512115,0.204834l-0.307251,0.051193l-0.153625,0.051208l-0.153625,-0.563263l0.512115,0.409653l-0.819397,-0.972916l0.35849,0.204819"/>
  <path id="svg_11" stroke="#000000" stroke-linejoin="round" stroke-linecap="round" fill="none" d="m254.070267,163.261978l0.35849,0.204834l-0.563293,-0.409653l0.512085,0l0.204834,-0.563263l0.409668,-0.66568l0.460876,-0.768097l0.614578,-0.819305l0.66571,-0.972916l0.768127,-0.921707l0.768127,-0.921722l0.71698,-0.819305l0.716919,-0.768082l0.614502,-0.614471l0.614502,-0.563263l0.512085,-0.409668l0.460876,-0.256027l0.358521,-0.051208l0.204834,0l0.102417,0.460861l0,0.51207l0,0.665665l0,0.768097l0,0.819305l0,0.819305l0,0.768097l0,0.716873l0,0.665695l0,0.66568l0,0.614471l0,0.563263l0,0.563263l0.870544,1.075348l-0.921814,-0.256027l0.256104,1.024124"/>
  <path id="svg_12" stroke="#000000" stroke-linejoin="round" stroke-linecap="round" fill="none" d="m256.630798,160.548065l0.614502,0.102402l-0.512085,-0.409653l0.512085,0.358444l0.256042,0l0.307251,0l0.358459,0l0.460876,0l0.563354,-0.307236l0.563293,-0.15361l0.66571,-0.102417l0.512085,-0.204819l1.280212,0.512054l0,-0.768097l1.229065,0.409653"/>
  <path id="svg_13" stroke="#000000" stroke-linejoin="round" stroke-linecap="round" fill="none" d="m270.66217,156.605164l0.256042,0.153625l-0.614502,-0.358444l0.153625,0.512054l0,0.358459l0,0.614471l0,0.66568l0,0.716888l0,0.716888l0,0.614471l0,0.563278l0,0.563263l-0.409668,0.512054l-0.153625,0.563278l-0.204834,0.409653l-0.102417,0.358429l-0.153625,0.256042l0,-0.204819l0,-0.358459l0.307251,-0.460846l0.102417,-0.66568l0.051208,-0.716888l0.051208,-0.870499l0.051208,-0.819321l0.051208,-0.768097l0.051208,-0.768082l0.102417,-0.614471l0.153625,-0.51207l0.204834,-0.256027l0.256042,-0.153625l0.307251,0l0.307251,0l0.409668,0.51207l0.460938,0.409653l0.460876,0.563263l0.460876,0.614487l0.409668,0.614471l0.409668,0.563263l0.358459,0.512054l0.358521,0.460861l0.409607,0.358444l0.409729,0.307251l0.358459,0l0.307251,0.256027l0.204834,0l0.204834,0l0.153625,-0.409653l0.102417,-0.204834l0.051208,-0.358429l0.102417,-0.409668l0,-0.512054l0,-0.716888l0,-0.819305l0.051208,-0.972916l0.153625,-0.972916l0.204834,-0.819305l0.307251,-1.433762l0.972961,0l0,-1.228958"/>
  <path id="svg_14" stroke="#000000" stroke-linejoin="round" stroke-linecap="round" fill="none" d="m282.901245,155.273804l0.921753,1.126541l-0.307251,-0.307236l0.614502,0.051193l-1.02417,-0.870499l0,0.409668l0,0.563263l0.153625,0.716888l0.051208,0.9729l0.102417,1.075348l0.051208,1.075333l0.051208,1.024124l0,0.972916l0,0.870514l0,0.768082l0,0.563278l0,0.460846l0,0.256042l0,0.102402l0.102417,0l0.051208,-0.358444l0.153625,-0.460846l0.204834,-0.614471l0.204834,-0.921722l0.256042,-0.921707l0.256104,-1.075348l0.153625,-1.024124l0.102356,-0.9729l0.153625,-0.921722l0.102478,-0.716888l0.204834,-0.563263l0.204773,-0.307236l0.204895,-0.102432l0.204834,0l0.204834,0l0.204834,0.51207l0.256042,0.409653l0.204834,0.51207l0.256042,0.563263l0.256042,0.614487l0.307251,0.563263l0.307251,0.460861l0.358459,0.460846l0.409729,0.256027l0.358459,0.204834l0.358459,0.051193l0.358459,0l0.256042,0l0.256042,-0.358429l0.153625,-0.256027l0.204834,-0.307236l0.153625,-0.563278l0.102417,-0.563278l0.102417,-0.81929l0.153625,-0.972931l0.204895,-0.9729l0.153625,-1.126556l0.358459,-0.921692l0.307251,-0.768097l0.409668,-0.51207l0.512085,0l-0.307251,-0.512054l0.972961,0.870499l-0.409668,-0.153625"/>
  <path id="svg_15" stroke="#000000" stroke-linejoin="round" stroke-linecap="round" fill="none" d="m298.92981,155.990707l-0.460938,0.153595l0.665771,0.716904l-0.358521,0l-0.102356,0.460861l-0.256042,0.563263l0,0.716888l-0.409729,0.768097l0,0.768097l-0.256042,0.768082l0,0.768097l0,0.614471l0.256042,0.563278l0.153625,0.409637l0.204895,0.204834l0.358459,0.307236l-0.358459,-0.768097l0.870544,0.307236l-0.358459,-1.177734"/>
  <path id="svg_16" stroke="#000000" stroke-linejoin="round" stroke-linecap="round" fill="none" d="m300.978149,155.888275l0.768127,0.358459l0,-0.51207l0.307312,-0.153625l0.358459,0l0.460876,-0.051193l0.563293,-0.051208l0.66571,-0.051208l0.768127,-0.051208l0.665771,-0.102417l2.253174,0.51207l0,-0.768097l0.870605,0.358444"/>
  <path id="svg_17" stroke="#000000" stroke-linejoin="round" stroke-linecap="round" fill="none" d="m299.288269,159.88237l-1.075378,-0.921722l0.563232,0.409668l0.256104,-0.256042l1.331421,0.768097l0.409668,-0.153625l0.512085,-0.204803l0.614502,-0.153625l0.71698,-0.153625l0.819336,-0.102417l0.819336,-0.051193l0.921753,0l0.665771,0l1.177795,0.665665l0,-0.563263l0.66571,0.614487"/>
  <path id="svg_18" stroke="#000000" stroke-linejoin="round" stroke-linecap="round" fill="none" d="m298.776123,164.337311l0.409729,0.409653l-0.460876,-0.256027l0.563293,0.563263l0.409668,0l0.409668,0.204834l0.512085,0l0.66571,0l0.819397,-0.256027l0.870544,-0.256042l1.075378,0l0.307251,-0.81929l1.38269,0.204834l0.256042,-1.126556"/>
  <path id="svg_19" stroke="#000000" stroke-linejoin="round" stroke-linecap="round" fill="none" d="m313.114807,157.066025l1.075378,1.17775l-0.409668,-0.307251l0,0.051224l-0.870544,-0.819305l0.102417,0.358444l0.051208,0.307236l0.051208,0.460861l0.102417,0.614471l0.051208,0.563263l0.051208,0.563278l0.051208,0.563263l0,0.409653l0.051208,0.409653l0,0.307236l0,0.256027l0,0.204834l0,0.153625l0,0.051193l0,-0.358444l0,-0.204819l0,-0.460861l-0.256042,-0.460861l0,-0.563263l0,-0.716888l0,-0.768097l0.204834,-0.768097l0.256042,-0.768082l0.358459,-0.716904l0.460938,-0.614456l0.66571,-0.614487l0.819336,-0.563278l0.870544,-0.512054l1.02417,-0.460861l0.921814,-0.409637l0.870544,-0.256027l0.819336,-0.256042l0.66571,-0.102417l0.66571,-0.102402l0.614563,-0.051208l0.512085,0l0.409668,0l0.307251,0l0.153625,0l0,0.307236l0,0.204834l-0.307251,0.256027l-0.307251,0.409637l-0.512085,0.563278l-0.563293,0.768097l-0.716919,0.921707l-0.66571,0.921722l-0.563354,0.921692l-0.358459,0.819321l-0.204834,0.716873l0,0.563278l0,0.563263l0.153625,0.51207l0.256042,0.51207l0.307251,0.512054l0.460876,0.51207l0.512085,0.512054l0.71698,0.358444l0.819336,0.358444l1.02417,0.204819l1.024231,0.153625l1.075378,0.204834l0.204834,-0.665695l1.075378,0.665695l-0.563293,-1.024139"/>
  <path id="svg_20" stroke="#000000" stroke-linejoin="round" stroke-linecap="round" fill="none" d="m143.201859,62.129601l-0.307281,-0.460854l0.716949,0.409645l-0.358459,-0.358444l0,0.051216l0,0.307228l0,0.153618l0.204834,0.204834l0.102417,0.204819l0.102417,0.358444l0.051208,0.307243l0,0.460854l0.051208,0.512062l0,0.614471l0,0.716896l0,0.921707l0,0.921715l0,1.126541l0,1.126541l0,1.126526l0,1.126541l0,1.075333l0,1.075325l0,0.921722l-0.307251,0.819298l-0.102417,0.819298l-0.153625,0.819305l-0.204865,0.870506l-0.256042,0.870499l-0.204865,0.870522l-0.30722,0.870499l-0.204865,1.024124l-0.256042,1.024124l-0.204834,1.228958l0,1.228943l-0.307251,1.280167l-0.102417,1.33136l-0.051208,1.228943l0,1.228958l-0.102417,1.177734l0,1.075333l-0.102417,1.126541l0,1.075333l-0.256042,1.075333l-0.204834,1.17775l-0.256042,1.126526l-0.307281,1.228958l-0.256042,1.177734l-0.256042,1.17775l0,1.17775l-0.256042,1.280151l-0.051208,1.17775l0,1.17775l0,1.126526l0,1.024124l0,1.075333l0,0.921722l0,1.024124l0,1.024124l-0.153656,1.075333l-0.102386,1.17775l-0.102448,1.177734l-0.051208,1.17775l0,1.228943l0,1.228958l0.204834,1.228943l0.153625,1.17775l0.051239,1.126526l0.051208,1.17775l0,1.024124l0,1.126541l0,1.024124l-0.409698,1.126541l-0.153625,1.075333l-0.153625,1.126526l-0.153625,1.024139l-0.102417,1.024124l-0.051208,1.024124l0,0.870514l0,0.870499l-0.102417,0.716888l-0.102417,0.614471l0,0.614487l-0.153625,0.512054l-0.051208,0.51207l0,0.460846l-0.102417,0.512054l0,0.460861l0,0.409653l0,0.307236l0,0.256042l0,0.256027l0,0.051208l-0.153625,0.204819l-0.051208,0.307236l-0.256042,-0.409637l0.716919,0.81929l-0.358459,-1.17775"/>
  <path id="svg_21" stroke="#000000" stroke-linejoin="round" stroke-linecap="round" fill="none" d="m405.189392,76.723396l0,-0.204826l-0.768127,-1.945847l0.409668,-0.665672l-0.358459,-1.228958l-0.051208,-0.716888l-0.051208,-0.870499l0,-0.716888l0,-0.716896l0,-0.358444l0.204834,-0.307236l0.102417,0l0.051208,0.614479l0.051208,0.716881l0.102417,1.228951l0,1.638611l0.051208,2.201859l0,2.457909l0,2.816345l0,2.867538l-0.256042,2.969971l-0.153625,2.867554l-0.256042,2.918747l-0.256042,2.765152l-0.307251,2.765137l-0.409729,2.713928l-0.358398,2.560303l-0.460938,2.509125l-0.409668,2.355484l-0.358459,2.201874l-0.256042,2.253082l-0.256042,2.15065l-0.204834,2.201874l-0.102417,2.048248l-0.102417,1.84343l-0.102478,1.792221l-0.153564,1.433777l-0.153687,1.433777l-0.153564,1.17775l-0.204834,1.126526l-0.256104,0.972916l-0.255981,0.870514l-0.256104,0.768082l-0.256042,0.716888l-0.256042,0.563278l-0.204834,0.614487l-0.153564,0.563263l-0.256104,0.716888l-0.256042,0.972916l-0.307251,0.921707l-0.409668,1.075333l-0.307251,0.768097l-0.256042,0.563263l0,0.256027l0.204834,0.358459l-0.460938,-2.048248l0.768188,-0.972931"/>
  <path id="svg_22" stroke="#000000" stroke-linejoin="round" stroke-linecap="round" fill="none" d="m147.657059,77.84993l0.972961,0.614464l-0.204834,-0.819298l0.204834,-0.358437l-0.870544,-1.126549l0.153625,-0.102402l0,-0.102409l0.153625,-0.051216l0.204834,-0.102409l0.256042,0l0.409668,0l0.614532,0l0.870575,-0.051201l1.229004,0l1.485107,0l1.792297,-0.051201l1.997192,-0.102425l2.304413,-0.051201l2.40683,-0.102409l2.509277,-0.153625l2.611694,-0.153625l2.40683,-0.204811l2.458038,-0.204826l2.611694,-0.204826l2.509277,-0.153625l2.714111,-0.15361l2.662872,-0.051208l2.714081,0l2.816528,0l2.816528,0.358444l3.021362,0.204826l3.021362,0.256027l3.072571,0.204834l3.379822,0.15361l3.482239,0.153618l3.840698,0.102409l4.096741,0l4.14798,0.051201l4.250397,0l4.250366,0.102425l4.352814,0l4.608856,0.204826l4.81366,0.204811l5.018555,0.307251l5.120911,0.307236l5.223434,0.409645l5.069702,0.409653l5.018555,0.40966l4.967285,0.460838l4.711304,0.40966l4.557617,0.409653l4.455261,0.460846l4.250366,0.460861l4.147949,0.512054l4.096741,0.614487l3.943115,0.716873l3.78949,0.768097l3.78949,0.870514l3.635925,0.66568l3.687073,0.66568l3.738281,0.614471l3.482239,0.409668l3.43103,0.30722l3.174988,0.102432l2.918945,0l2.970154,0l2.714111,0l2.71405,-0.307251l2.458069,-0.15361l2.150879,-0.051208l1.945923,0l1.689941,0l1.843506,0l1.894775,0l2.253174,0.409637l2.458069,0.204834l2.406799,0.153625l2.45813,0.102402l2.201965,0l1.997131,0l1.843628,0l1.587402,0l1.433899,0l1.382629,-0.256027l1.331421,0l1.280273,-0.051208l1.433899,0l1.382629,0l1.433838,0l1.280273,0l1.126587,-0.051193l0.973022,-0.102432l0.716919,-0.102402l0.563293,-0.153625l0.614563,-0.102402l0.512085,-0.153625l0.512085,-0.102402l0.614502,-0.051208l0.409668,-0.051224l0.460876,-0.051193l0.358459,0l0.409668,0l0.307251,0l0.358521,0l0.307251,0.358444l0.255981,0l0.256104,0.051208l0.256042,0l0.204834,0l0.256042,0l0.204834,0l0.204834,0l0.204834,0l0.102417,0l0.153625,0l0.051208,0l0.102417,0l0.05127,-1.484985l0.819336,0.768097l-0.512085,-0.563263l0.972961,0.665665"/>
  <path id="svg_23" stroke="#000000" stroke-linejoin="round" stroke-linecap="round" fill="none" d="m386.344299,80.51265l-1.382629,-1.945831l0,-0.40966l-0.512146,-0.102402l1.075439,0.665672l0.102417,0l0.102417,0l0.153687,0l0.307251,0l0.409668,0.204826l0.819336,0.358452l0.870544,0.460846l1.331421,0.614487l1.485107,0.716888l1.485046,0.716873l1.485107,0.716888l1.229004,0.768097l1.02417,0.665695l0.921753,0.768097l0.665771,0.614456l0.563293,0.768097l0.256042,0.768097l0.102417,0.81929l0,0.870529l-0.460815,0.768082l-0.665771,0.819305l-1.02417,0.768097l-1.331482,0.81929l-1.68988,0.716888l-1.843506,0.665695l-1.894775,0.614471l-1.792358,0.614471l-2.04834,0l-0.921814,1.280151l-1.997131,-0.51207"/>
  <path id="svg_24" stroke="#000000" stroke-linejoin="round" stroke-linecap="round" fill="none" d="m163.78804,74.67514l1.02417,0l0.307251,-1.07534l0.819366,-0.204811l0.204865,-0.512062l0.256042,-0.307251l0.051178,-0.409645l0.051239,-0.358452l0,-0.460846l0.051208,-0.358452l0.051208,-0.460854l0.051208,-0.307228l0,-0.307243l0,-0.204819l0,-0.153625l0,-0.102409l-0.307251,-0.051208l-0.204834,-0.102417l-0.256073,-0.102409l-0.358459,-0.051208l-0.563324,-0.051201l-0.768127,0l-1.229004,0l-1.433899,0.563263l-1.68988,0.460861l-1.74115,0.563263l-1.485046,0.716896l-1.433899,0.563263l-1.331421,0.716888l-1.126617,0.716896l-1.177826,0.716873l-1.075378,0.665688l-0.921783,0.665688l-0.819336,0.563271l-0.563324,0.460854l-0.512085,0.409645l-0.256042,0.409653l-0.256042,0.256035l0,0.256027l0,0.204834l0.460876,0.102402l0.614502,0.204826l1.229034,0.307236l1.843536,1.075333l1.74115,-0.204826l3.635864,0.921722"/>
  <path id="svg_25" stroke="#000000" stroke-linejoin="round" stroke-linecap="round" fill="none" d="m148.834854,78.515617l-0.460876,-0.460861l0.307251,0l-0.614502,-0.563271l-0.204834,-0.204826l-0.102417,-0.204826l-0.153625,-0.051201l-0.102417,-0.051208l-0.102417,-0.051216l-0.051208,0l0,0.256035l0.307251,0.153625l0.409668,0.256027l0.460876,0.358437l0.921783,0.460861l1.126617,0.512062l1.485046,0.460861l1.638733,0.409653l1.741119,0.358437l1.689911,0.256042l1.689911,0.256027l1.536285,0.204819l1.382629,0.256042l1.229065,0.256027l1.02417,0.204834l0.921753,0.358429l0.716949,0.307236l0.870575,0.614487l0.256042,-0.358459l1.587463,0.716904l0.358459,-0.870514"/>
  <path id="svg_26" stroke="#000000" stroke-linejoin="round" stroke-linecap="round" fill="none" d="m192.055649,57.316216l0,-0.563278l0.614502,0l-0.409668,-0.460846l0,-0.307236l0,-0.102417l0,0.358437l0,0.256035l0,0.716888l0.102417,0.768097l0.051208,1.228951l0,1.33136l0,1.382576l-0.307251,1.484978l-0.307251,1.331367l-0.256042,1.228943l-0.307281,1.228951l-0.256042,0.972923l-0.204834,0.716888l-0.051208,0.614471l-0.102417,-0.153618l0.716919,0.66568l-0.460876,-1.075325l0.716949,0"/>
  <path id="svg_27" stroke="#000000" stroke-linejoin="round" stroke-linecap="round" fill="none" d="m191.185074,54.807106l-0.716919,-2.304283l0.716919,-1.075333l0,-1.075325l1.638702,0l0.819366,-0.256035l0.921783,-0.153625l1.02417,-0.051201l1.0242,0l1.229034,0l1.177795,0.512062l1.177826,0.358444l1.075409,0.460854l0.819336,0.512062l0.768158,0.563271l0.358459,0.614479l0.307251,0.66568l0.102417,0.819298l0,1.024124l-0.409668,1.024132l-0.563324,1.33136l-0.716919,1.280151l-1.0242,1.433784l-1.126587,1.484978l-1.485077,1.536186l-1.587494,1.587402l-1.741119,1.484978l-1.741119,1.331367l-1.38266,1.024124l-1.0242,0.716881l-0.512085,0l0,0.358444l0,-1.280151l1.229034,-0.204834l0.307251,-1.741005"/>
  <path id="svg_28" stroke="#000000" stroke-linejoin="round" stroke-linecap="round" fill="none" d="m209.876541,63.460968l0.563293,0.614479l-0.358459,-0.307243l-0.051208,0l-0.102417,0.819305l-0.204834,0.870499l-0.204834,0.972923l-0.204865,1.177742l-0.204834,1.075333l-0.153625,0.972916l-0.153625,0.870506l0,0.563278l0,0.512062l-0.153625,-0.512062l0.870575,0.563263l-0.460907,-1.280151"/>
  <path id="svg_29" stroke="#000000" stroke-linejoin="round" stroke-linecap="round" fill="none" d="m212.64183,56.343292l0.768158,1.177742l-1.177826,-0.614471l-0.512085,-0.307243l-1.0242,-1.024124l0.256042,0l-0.358459,-0.307236l1.177826,0.819298l0,-0.460846"/>
  <path id="svg_30" stroke="#000000" stroke-linejoin="round" stroke-linecap="round" fill="none" d="m224.983322,60.593414l1.280243,1.638596l-0.716949,-0.256027l-1.075409,0l-1.331421,-0.716881l-0.563324,0.307228l-0.614502,0.409653l-0.66571,0.460861l-0.563293,0.358444l-0.307281,0.307236l-0.102417,0.256027l0,0.256035l0.460876,0.358444l0.563324,0.512062l0.768127,0.563263l0.972992,0.716896l1.126587,0.66568l1.0242,0.66568l1.0242,0.614471l0.870544,0.614479l0.512115,0.563271l0.358459,0.512062l-0.051208,0.512062l-0.35849,0.563271l-0.563293,0.716881l-0.921783,0.768097l-1.126587,0.819298l-1.229034,0.716888l-1.229034,0.512062l-1.177795,0.307236l-1.075409,0.102425l-0.870575,0l-0.819336,0l-0.716919,-0.512062l-0.512115,-0.358452l-1.075378,-1.280159l0.409668,-0.204826l-0.614502,-1.587387"/>
  <path id="svg_31" stroke="#000000" stroke-linejoin="round" stroke-linecap="round" fill="none" d="m239.219559,57.060181l2.201996,-0.358444l0.563293,-1.587395l0.409698,-0.768089l-0.768158,-1.024124l0,0.358444l-0.460876,0.563263l-0.35849,1.075333l-0.512085,1.228951l-0.563293,1.689804l-0.716949,1.74102l-0.768127,1.792221l-0.870575,1.945831l-0.819336,1.84343l-0.716919,1.84343l-0.512115,1.638596l-0.256042,1.536186l0,1.126541l0.256042,1.024124l0.409668,0.819298l0.614532,0.614479l0.768127,0.409645l0.768158,0.256027l0.921753,0l0.921783,0l0.870575,-0.512062l1.075378,-0.409637l0.204834,-1.280159l1.38266,-0.256027l-0.256042,-1.587402"/>
  <path id="svg_32" stroke="#000000" stroke-linejoin="round" stroke-linecap="round" fill="none" d="m233.893753,65.458008l0.921783,1.382568l-0.358459,-0.512062l0.460876,-0.256027l0,-1.228951l0.716919,-0.102409l1.075409,-0.102417l1.331451,0l1.485077,-0.051201l1.638702,0l1.689911,-0.102417l1.536255,-0.102417l1.587524,0.921715l0.614502,-0.819298l1.485077,0.512062"/>
  <path id="svg_33" stroke="#000000" stroke-linejoin="round" stroke-linecap="round" fill="none" d="m253.660629,65.97007l0.358459,0l-1.0242,-0.716881l-0.307281,0.460846l-0.768097,0l-0.512115,0.665688l-0.614532,0.51207l-0.66571,0.716881l-0.512085,0.716888l-0.409668,0.768097l-0.204834,0.768089l0,0.716888l0,0.66568l0.460876,0.512062l0.358459,0.512062l0.512085,0.256035l0.512115,0.204826l0.563293,0.051201l0.614502,0l0.66571,-0.409637l0.768158,-0.40966l0.819366,-0.563263l0.768188,-0.768097l0.870544,-0.870506l0.716934,-0.972923l0.66571,-0.972916l0.512085,-0.921707l0.307251,-0.768097l0.153625,-0.716888l0,-0.563271l0,-0.358444l-0.512085,-0.153618l-0.307251,0l-0.256042,0l-0.256042,0.358437l0,0.460861l-0.307251,0.512062l-0.051208,0.819298l0,0.870506l0,0.972923l0,1.024124l0.256042,0.921715l0.358459,0.870506l0.66571,0.614471l0.870544,0.512062l0.973022,0.204826l1.331421,0.153625l0.563293,-0.921715l1.792358,0.204826l0.307251,-1.228958"/>
  <path id="svg_34" stroke="#000000" stroke-linejoin="round" stroke-linecap="round" fill="none" d="m268.306519,65.97007l-0.512085,-0.102409l0.307251,1.33136l-0.870544,0.204834l-0.358459,0.66568l-0.256042,0.512062l-0.256042,0.563263l-0.204834,0.512062l-0.102417,0.358444l0,0.307236l0,0.204826l0.358459,0l0.256042,0l0.307251,-0.358444l0.512085,-0.358444l0.614502,-0.614471l0.870605,-0.716888l0.921753,-0.870506l1.02417,-0.870506l0.921753,-0.66568l0.819397,-0.512062l0.563293,-0.256035l0.409668,-0.102417l0.204834,0l0.153625,0.358452l0.102417,0.358444l0.051208,0.460854l0.051208,0.66568l0,0.66568l0,0.819298l0,0.716896l0,0.66568l-0.307251,0.512062l0,0.358444l0.204834,0.307243l0.256042,0l0.409729,0.204811l0.255981,-0.716881l1.126648,0.51207l-0.204834,-1.07534"/>
  <path id="svg_35" stroke="#000000" stroke-linejoin="round" stroke-linecap="round" fill="none" d="m291.862915,65.253189l0.819336,0.870506l-0.409668,-0.40966l0.512085,0l-0.972961,-0.870499l0,-0.102409l0,-0.204834l-0.204895,-0.102409l-0.153625,-0.204826l-0.102417,-0.102409l-0.153625,-0.153618l-0.153625,-0.051208l-0.204834,0l-0.256042,0l-0.307251,0l-0.358459,0.256027l-0.563293,0.204826l-0.71698,0.358452l-0.870544,0.512062l-1.02417,0.614471l-1.126587,0.614471l-1.02417,0.768097l-0.870605,0.665688l-0.768127,0.716881l-0.460876,0.819305l-0.358459,0.716881l-0.256104,0.768097l0,0.716888l0,0.716896l0,0.716873l0.153625,0.665688l0.256104,0.563263l0.307251,0.460861l0.409668,0.358437l0.563293,0.256035l0.819336,0l1.126587,0l1.485107,-0.204811l1.945923,0.819298l1.075439,-1.382584l2.304443,-0.102402"/>
  <path id="svg_36" stroke="#000000" stroke-linejoin="round" stroke-linecap="round" fill="none" d="m293.604004,73.548599l0.409668,0.307236l-0.409668,-0.358444l0.614502,0.460861l0.409668,0l0.460938,0l0.614502,0l0.768127,0l0.972961,-0.256027l1.075439,-0.256035l1.126587,-0.307236l1.177795,-0.358452l1.075378,-0.460861l1.075439,-0.409637l1.02417,-0.460861l0.921814,-0.512062l0.921753,-0.563263l0.819336,-0.563278l0.563293,-0.563263l0.512146,-0.460861l0.204773,-0.460854l0.051208,-0.358444l0,-0.307236l-0.358459,-0.204826l-0.307251,-0.153618l-0.460876,-0.153618l-0.358459,-0.102417l-0.512085,-0.051208l-0.460876,0l-0.614502,0l-0.665771,0l-0.716919,0.563278l-0.819336,0.409645l-0.819397,0.66568l-0.870544,0.768097l-0.870544,0.921707l-0.921753,1.07534l-0.819336,1.024124l-0.71698,1.024124l-0.563293,0.768097l-0.358459,0.665672l-0.153625,0.563278l0,0.409645l0,0.409653l0.66571,0.307236l0.819336,0.358437l1.38269,0.256035l1.945923,0.204826l2.662903,0.204826l2.40686,-0.921715l3.840698,0l2.253235,-1.433769"/>
  <path id="svg_37" stroke="#000000" stroke-linejoin="round" stroke-linecap="round" fill="none" d="m404.165222,58.698784l-0.409668,-0.921715l0.409668,-0.819298l-0.307251,-1.433777l0,-1.126541l0,-0.819298l0,-0.768089l0,-0.716896l0.358459,-0.768089l0.307251,-0.768097l0.307251,-0.768097l0.307312,-0.768089l0.255981,-0.716888l0.204834,-0.665688l0.102417,-0.563263l0,-0.768097l0,-0.563263l-0.307251,-0.768097l0,-0.665688l-0.255981,-0.819298l-0.102478,-0.66568l-0.102417,-0.870506l0,-0.819298l-0.051208,-0.870506l0,-0.819305l0,-0.870499l0,-0.614479l0,-0.512062l0.256104,-0.204826l0,-0.153618l0.051147,0l0.051208,0l0,0.409645l0.051208,0.153625l0,0.307236l0.051208,0.358444l0.051208,0.66568l0.102417,0.768097l0.102417,1.024124l0.05127,1.126541l0.102417,1.228943l0.051147,1.331367l0.102417,1.280159l0.102417,1.280159l0.05127,1.280151l0.102417,1.280159l0.051147,1.33136l0.102417,1.33136l0,1.433784l0.05127,1.433769l0.051147,1.638596l0,1.638603l0,1.689804l0,1.74102l-0.307251,1.638603l-0.153564,1.587387l-0.204834,1.484985l-0.153687,1.382576l-0.153564,1.228943l-0.153687,1.177742l-0.204834,0.972916l0,1.075348l-0.358459,0.9729l-0.204834,1.024132l-0.204834,1.07534l-0.153625,1.075333l-0.153625,1.126526l-0.102417,1.177757l-0.102478,1.177727l-0.051147,1.126556l0,1.177734l-0.102417,1.024124l0,1.024124l-0.102417,0.972916l0,0.921722l-0.102417,0.921707l-0.102417,0.819305l0,0.819305l-0.102417,0.81929l0,0.819305l0,0.81929l0,0.819321l0,0.921707l0,0.81929l0,0.870514l0,0.921707l-0.102417,0.870514l0,0.819305l-0.153687,0.81929l-0.102417,0.870514l-0.153564,0.819305l-0.153687,1.024124l-0.204834,1.024124l-0.102417,1.177734l-0.153625,1.228958l-0.153625,1.280151l-0.102417,1.33136l-0.051208,1.228958l0,1.17775l0,1.024124l0,0.870499l0,0.870499l-0.102417,0.716888l0,0.768097l-0.153625,0.81929l-0.102417,0.819321l-0.102417,0.921707l-0.102417,0.972916l-0.102417,0.972931l0,0.972916l-0.051208,0.921707l0,0.81929l0,0.665695l0,0.563263l0,0.51207l0,0.460846l0,0.409668l0,0.460846l-0.102417,0.460846l-0.102417,0.563278l-0.153625,0.512054l-0.102417,0.665695l-0.153625,0.563263l-0.102478,0.563263l-0.102356,0.460861l-0.051208,0.409653l0,0.307236l-0.102417,0.204834l0,0.102402l0,0.102417l0,0.051208l0,0.102402l0,0.153625l-0.102417,0.15361l0,0.204834l0,0.256027l-0.102417,0.256027l0,0.358459l0,0.256027l0,0.307236l0,0.204834l0,0.15361l0,0.102417l0,0.102402l0,0.102417l0,0.051208l0,0.15361l0,0.102432l0,0.102402l0,0.153625l0,0.15361l0,0.153625l0,0.102402l0,0.153625l0,0.102402l0,0.051208l0,0.102417l0,-0.204819l0,-0.102417l-0.153687,-0.153625l-0.051147,-0.051193l-0.153687,-0.153625l-0.102417,-0.15361l-0.204834,-0.307251l-0.256042,-0.256027l-0.307251,-0.409653l-0.358459,-0.409653l-0.563293,-0.512054l-0.512146,-0.66568l-0.614502,-0.66568l-0.716919,-0.768097l-0.665649,-0.768097l-0.71698,-0.768097l-0.71698,-0.81929l-0.716919,-0.819305l-0.716919,-0.819305l-0.716919,-0.819305l-0.665771,-0.768082l-0.614502,-0.716904l-0.512085,-0.614471l-0.409668,-0.563263l-0.358459,-0.409653l-0.256042,-0.358444l0,-0.256027l-0.256042,-0.153625l-0.102417,-0.102402l-0.051208,-0.051208l0.358459,0.307236l0.102478,0.15361l0.307251,0.358459l0.307251,0.358429l0.409668,0.563278l0.512085,0.614471l0.512085,0.716904l0.614502,0.768082l0.614502,0.819305l0.563293,0.81929l0.665771,0.768097l0.66571,0.819305l0.614502,0.716888l0.716919,0.66568l0.614502,0.614471l0.512085,0.460861l0.460938,0.358444l0.358459,0.307236l0.256042,0.204819l0.204834,0.102417l0.102417,0l0.051208,0l0,-0.204819l0,-0.153625l-0.256042,-0.256027l-0.102417,-0.307236l-0.256042,-0.460861l-0.307312,-0.563263l-0.409668,-0.768097l-0.512085,-0.870499l-0.563232,-0.870514l-0.614502,-0.972931l-0.512146,-0.921707l-0.563293,-0.921707l-0.563354,-0.921707l-0.512085,-0.870514l-0.512085,-0.870514l-0.512085,-0.870514l-0.460876,-0.921692l-0.512085,-0.972931l-0.460876,-0.921722l-0.460938,-0.870499l-0.460815,-0.870499l-0.409668,-0.819305l-0.358521,-0.66568l-0.307251,-0.614487l-0.256042,-0.358429l-0.153625,-0.256042l-0.102417,-0.102402l0,0.256027l0,0.204819l0,0.204834l0.256042,0.256027l0.153625,0.460861l0.307251,0.614471l0.307251,0.819305l0.460938,1.126541l0.563232,1.280151l0.614502,1.382568l0.71698,1.382568l0.66571,1.382568l0.716919,1.33136l0.665771,1.17775l0.614502,1.126526l0.614502,0.921722l0.614502,0.870499l0.460938,0.768097l0.512085,0.716888l0.409668,0.665695l0.358459,0.512054l0.358459,0.409653l0.307251,0.409653l0.256042,0.256027l0.204834,0.204834l0.204834,0.15361l0.153625,0.153625l0.153625,0.153625l0.153625,0.153595l0.102417,0.153625l0.153687,0.15361l0.102356,0.102432l0.102478,0.15361l0.153564,0.102417l0.102417,0.051208l0.102417,0.102402l0.102417,0l0.05127,0l0,0.102417l0,-0.204819l0,-0.051208l0,-0.051208l0.051147,-0.051208l0.05127,-0.051208l0.153564,-0.102402l0.204834,-0.204834l0.307251,-0.307236l0.512146,-0.460861l0.716919,-0.66568l0.921814,-0.819305l1.075378,-1.024124l1.177795,-1.075333l1.229004,-1.126526l1.177856,-1.126541l1.126587,-1.024124l1.02417,-0.921707l0.870605,-0.716888l0.665649,-0.563278l0.512146,-0.409653l0.358459,-0.256027l0.153625,-0.153625l0.153625,-0.15361l0.051208,-0.051208l0,-0.051208l-0.358459,0.358444l-0.153625,0.204834l-0.307251,0.307236l-0.409729,0.409637l-0.512085,0.614487l-0.665649,0.768097l-0.819336,0.921707l-0.870605,0.972916l-0.921753,0.972916l-1.02417,1.024124l-1.024231,1.024139l-1.177795,1.075317l-1.177856,1.075333l-1.229004,0.972916l-1.126587,0.768097l-0.973022,0.716888l-0.716919,0.358444l-0.512085,0.256027l-0.256042,0l-0.102417,0l0,-0.204803l0,-0.153625l0.307312,-0.307236l0.307251,-0.409653l0.409607,-0.563278l0.614563,-0.81929l0.768066,-0.972931l0.921814,-1.126526l1.126648,-1.228958l1.229004,-1.280151l1.485046,-1.280151l1.485046,-1.280167l1.587524,-1.33136l1.485107,-1.17775l1.433838,-1.126526l1.229004,-0.921722l1.075439,-0.921722l0.819336,-0.665665l0.614502,-0.563263l0.460938,-0.358459l0.204834,-0.256027l0.153564,-0.15361l0.051208,0l0,0.307236l-0.358459,0.256027l-0.204834,0.307236l-0.256042,0.460861l-0.409668,0.665665l-0.614563,0.921722l-0.665649,1.126526l-0.973022,1.331375l-1.02417,1.33136l-1.177856,1.382568l-1.382629,1.484985l-1.485046,1.382568l-1.536255,1.382568l-1.485107,1.280167l-1.536316,1.126526l-1.331421,0.972931l-1.229065,0.870499l-0.9729,0.614487l-0.71698,0.512054l-0.512085,0.307236l-0.256042,0.204834l-0.102417,0.102402l0.512085,-0.409637l0.358459,-0.358459l0.563293,-0.563263l0.768188,-0.81929l0.921753,-1.126556l1.229004,-1.33136l1.331421,-1.587387l1.536316,-1.741013l1.536316,-1.84343l1.638672,-1.792221l1.536255,-1.638596l1.433899,-1.433777l1.075378,-1.17775l0.973022,-0.972916l0.716919,-0.66568l0.512085,-0.614471l0.358459,-0.256027l0.153625,-0.204834l0.051208,-0.051208l-0.256042,0l0,0.460846l-0.358459,0.204834l-2.099609,-0.204834l0,1.075348l-1.280212,-0.512054"/>
  <path id="svg_38" stroke="#000000" stroke-linejoin="round" stroke-linecap="round" fill="none" d="m419.937683,44.668266l-0.512085,-0.256035l0.204834,0.409645l-0.665649,-0.512062l-0.204834,0l0,0.256035l0,0.204826l0,0.358444l0.204834,0.460854l0.102417,0.819305l0.102417,1.024124l0.102417,1.280159l0.102417,1.382568l0.102417,1.433777l0,1.484978l0,1.484985l0,1.382568l-0.307251,1.280159l-0.153687,1.024124l-0.102417,0.921715l-0.051147,0.716881l0,0.563271l0,0.409653l0,0.256027l0,-1.89463l0.665649,0l-0.614502,-1.587395l0.665771,-0.66568"/>
  <path id="svg_39" stroke="#000000" stroke-linejoin="round" stroke-linecap="round" fill="none" d="m418.862366,46.050835l0.307251,0l-0.665771,-0.512062l0.358521,0.204826l0.153564,0l0.307312,-0.256035l0.409607,-0.102409l0.614563,-0.153618l0.768127,-0.256035l0.921753,-0.256027l1.02417,-0.358444l1.126648,-0.307243l1.126648,-0.307236l1.126587,-0.307236l1.126587,-0.204826l0.921753,-0.153618l0.870605,-0.102417l0.614502,-0.153618l0.563293,0l0.307251,-0.153618l0.358459,0l-0.409668,-0.563271l0.512085,0.66568l-0.972961,-0.563263"/>
  <path id="svg_40" stroke="#000000" stroke-linejoin="round" stroke-linecap="round" fill="none" d="m418.196594,53.270912l0.819336,1.536194l-0.358459,-0.307236l0.614563,-0.153618l-0.460938,-1.126541l0.563354,-0.102417l0.563232,-0.15361l0.665771,-0.102417l0.716919,-0.102417l0.768127,-0.051201l0.768127,-0.051201l0.819336,-0.051216l0.71698,-0.102409l0.768127,-0.102409l0.819336,-0.153625l0.819336,-0.358437l1.229065,0.256035l0.153625,-0.921722l1.331421,0.307243"/>
  <path id="svg_41" stroke="#000000" stroke-linejoin="round" stroke-linecap="round" fill="none" d="m437.195313,53.9366l0.716919,0l0.409668,-0.972916l0.921814,-0.153618l0.307251,-0.460861l0.102417,0l0,-0.204819l0,-0.051216l-0.460938,-0.051201l-0.255981,0l-0.409729,0l-0.409607,0.307236l-0.512146,0.204826l-0.614502,0.358444l-0.614502,0.358437l-0.66571,0.40966l-0.665771,0.512062l-0.563293,0.716881l-0.512085,0.716896l-0.358459,0.972908l-0.256104,0.921715l0,0.921722l0,0.921707l0,0.716881l0.204895,0.716896l0.307251,0.563263l0.358459,0.358444l0.512085,0.256035l0.614502,0l0.665771,0l0.768066,-0.102417l0.71698,-0.307236l0.716919,-0.409645l0.71698,-0.563271l0.614502,-0.66568l0.614502,-0.716888l0.460876,-0.819305l0.358459,-0.768089l0.204834,-0.716888l0,-0.768089l0,-0.716896l-0.409668,-0.66568l-0.409668,-0.512062l-0.512085,-0.409645l-0.358459,-0.204826l-0.409729,-0.102417l-0.255981,-0.051201l-0.307312,-0.460861l0.819397,0.665688l0,-0.563278"/>
  <path id="svg_42" stroke="#000000" stroke-linejoin="round" stroke-linecap="round" fill="none" d="m446.720276,54.49987l0,-0.307236l0.512085,0.972916l-0.409668,0l0,0.614479l0,0.512062l0,0.563263l0,0.563271l0,0.563271l0,0.512062l0,0.614479l0,0.563263l0,0.512062l0,0.563271l-0.204834,0.358444l0,0.358444l-0.102417,0.307243l0,0.102402l0,0.051216l0,-0.307243l0,-0.307236l0,-0.563271l0,-0.716888l0,-0.921707l0,-0.972923l0,-0.972916l0,-0.870506l0.204834,-0.768097l0.05127,-0.563263l0.051147,-0.460861l0.102417,-0.307236l0.051147,-0.153625l0.102539,-0.204819l0.204834,-0.102417l0.204712,-0.102409l0.307373,-0.153618l0.512085,-0.153618l0.614502,-0.204834l0.819336,-0.256027l0.973022,-0.153618l1.02417,-0.153618l1.075317,-0.102417l0.973022,-0.051201l0.973022,0l0.870483,0l0.614502,0l0.563354,0.307236l-0.614502,-0.358444l0.307251,1.126541l-1.38269,-0.102417"/>
  <path id="svg_43" stroke="#000000" stroke-linejoin="round" stroke-linecap="round" fill="none" d="m467.101624,55.93364l1.689941,1.126541l0,-0.512062l0,-0.102409l-0.973022,-1.075333l0,-0.102417l-0.204834,0l-0.153564,-0.051201l-0.153687,0l-0.204834,-0.051208l-0.358521,0l-0.409668,0l-0.563232,0.256027l-0.614502,0.204834l-0.665771,0.358444l-0.716919,0.409645l-0.716919,0.460854l-0.716919,0.460861l-0.716919,0.512062l-0.665771,0.460854l-0.563232,0.563271l-0.460938,0.563263l-0.358521,0.563278l-0.204834,0.614471l0,0.563271l0,0.614479l0,0.614464l0.153687,0.614479l0.204834,0.614479l0.358398,0.512062l0.460938,0.307236l0.665771,0.204826l0.921753,0l1.075317,-0.358444l1.177856,-0.460854l1.229004,-0.460861l1.126587,-0.460861l0.921875,-0.409645l0.819336,-0.358444l0.563232,-0.256035l-0.204834,-1.075325l0.973022,0.307236l-0.614502,-1.126534"/>
  <path id="svg_44" stroke="#000000" stroke-linejoin="round" stroke-linecap="round" fill="none" d="m471.35199,64.894737l2.253174,0.921715l0.614624,-0.512062l0.358398,-0.409653l0.409668,-1.382568l1.126587,-0.409645l0.973022,-0.358444l0.921753,-0.307236l0.716919,-0.358452l0.716919,-0.307228l0.512085,-0.460861l0.512085,-0.358444l0.358521,-0.409653l0.307251,-0.358444l0.153687,-0.460854l0.051147,-0.358444l0,-0.460861l0,-0.358444l-0.512085,-0.358437l-0.358521,-0.358444l-0.512085,-0.358444l-0.512085,-0.256035l-0.614502,-0.153618l-0.614502,0l-0.665649,0l-0.768188,0.563271l-0.819336,0.512062l-0.870605,0.66568l-0.870483,0.768089l-0.768188,0.819305l-0.665771,0.870514l-0.563232,0.81929l-0.409668,0.819298l-0.307251,0.768097l-0.153687,0.768097l0,0.665688l0,0.66568l0.460938,0.512062l0.563232,0.460854l0.768188,0.307236l1.02417,0.256035l1.229004,0l1.485107,0l1.689941,0l1.792358,-0.256035l1.741089,-0.204826l1.638672,-0.153618l1.433838,-0.153618l1.38269,0l0.460938,-0.819305l1.484985,0.40966l0,-0.972923"/>
  <path id="svg_45" stroke="#000000" stroke-linejoin="round" stroke-linecap="round" fill="none" d="m499.61969,67.19902l0,-0.409645l0.921753,0l0.409668,-0.563271l-0.460938,-1.84343l0.870575,-0.409645"/>
  <path id="svg_46" stroke="#000000" stroke-linejoin="round" stroke-linecap="round" fill="none" d="m130.088226,150.959457l-0.514252,-0.247269l0,0.082413l-0.393234,0l0.241989,0.247284l-0.241989,0l-0.211746,0.115387l-0.242004,0.065948l-0.15126,0l-0.120972,0l0.151245,0l0.120987,0l0.151245,-0.032974l0.181503,-0.049454l0.211746,-0.032974l0.211746,-0.049454l0.181488,-0.032959l0.090744,-0.016495l0.060501,0l-0.241989,0l-0.121002,0l-0.181488,0l-0.151245,0l-0.151245,0.098907l-0.121002,0.016479l-0.060501,0.032974l0,0.032974l0,0.032974l0,0.049454l0.181503,0.016479l0.060501,0l0.060486,0.032974l0.060501,0l0.030258,0.032974l0.030243,0l0.030258,0l0.030243,0l0,-0.065948l-0.151245,0l0,-0.016479l0,-0.016479l0,-0.016495l0,-0.016479l0.121002,0l0,0.082428l-0.15126,0l-0.090744,0l-0.060501,0l-0.090744,-0.082428l-0.090744,-0.016495l-0.090744,-0.016479l-0.060501,0l-0.060501,0l0.151245,0.082428l0.121002,0.032974l0.151245,0.065933l0.241989,0.049454l0.272247,0.049454l0.302505,0.032974l0.362976,0l0.302536,0l0.272232,0l0.181503,0l0.121002,-0.098907l0.060486,-0.049454l0.030258,-0.032974l0,-0.049454l0,-0.032974l0,-0.049454l-0.151245,-0.049454l-0.060501,-0.065948l-0.090744,-0.049438l-0.090759,-0.049469l-0.060486,-0.032959l-0.060501,-0.016479l-0.060501,0l-0.090744,0l-0.090775,0l-0.121002,0.115387l-0.120987,0.032959l-0.121017,0.032974l-0.090744,0.032974l-0.060501,0.016479l0,-0.065933l-0.030258,0l-0.060501,0l-0.060486,0l-0.060501,0l-0.060501,0l0,-0.016495l-0.060501,0l-0.060501,0l-0.060501,0l-0.060486,0l-0.060501,0l-0.060501,0l-0.090744,0l-0.090744,0l-0.121002,0l-0.121002,-0.016479l-0.151245,0l-0.211761,-0.016479l-0.211761,-0.016479l-0.302498,-0.049469l-0.362991,-0.032959l-0.393242,-0.065948l-0.453743,-0.049454l-0.423508,-0.049454l-0.453758,-0.049454l-0.453743,-0.049454l-0.483986,-0.065948l-0.393265,-0.065933l-0.484001,-0.098907l-0.483994,-0.098907l-0.514236,-0.115402l-0.605003,-0.148361l-0.635254,-0.148361l-0.72599,-0.131882l-0.756248,-0.115387l-0.877251,-0.131897l-0.847,-0.049454l-0.967995,-0.065933l-0.907501,-0.032974l-0.907501,0l-0.967995,0l-0.907501,0l-0.907501,0l-0.937744,0l-0.937737,0l-0.877266,-0.049454l-0.99823,-0.082428l-0.907516,-0.082413l-1.088974,-0.098923l-1.08902,-0.065933l-1.240242,-0.049454l-1.421745,-0.065933l-1.451996,-0.049454l-1.663742,-0.049469l-1.633507,-0.032959l-1.663742,-0.032974l-1.724251,-0.032974l-1.451996,-0.032974l-1.512497,-0.016479l-1.300751,0l-1.270493,0.098907l-1.209999,0.148376l-1.088997,0.197815l-1.209991,0.247269l-1.149498,0.346191l-1.361259,0.37915l-1.421738,0.478058l-1.512505,0.560486l-1.724243,0.609955l-1.633492,0.642914l-1.935997,0.675873l-1.633499,0.675903l-1.754501,0.725327l-1.603233,0.741821l-1.361259,0.824249l-1.270493,0.840729l-1.14949,0.79129l-0.937752,0.758301l-0.81675,0.576981l-0.695755,0.527527l-0.48399,0.39563l-0.363003,0.296722l-0.242004,0.230789l-0.151245,0.148376l-0.120998,0.115387l-0.030251,0.065948l0.151249,0l0.120998,0.065933l0,-0.098907l0.302502,0.329697l-0.121006,-0.148361"/>
  <path id="svg_47" stroke="#000000" stroke-linejoin="round" stroke-linecap="round" fill="none" d="m37.862785,173.33078l0.358475,0.460846l-0.716949,-0.870514l-0.563293,-0.460861l-0.921783,-1.177734l-0.307251,-0.204819l-0.204834,-0.102417l-0.102417,-0.051208l-0.102417,-0.051208l-0.051208,0l0,0.358459l0,0.409637l0,0.563263l-0.153625,0.870514l-0.153641,1.075333l-0.153625,1.126541l-0.307266,1.280167l0,1.126526l-0.307251,1.126541l-0.153625,1.024124l0,0.819305l0,0.614471l0.409668,0.51207l0.256058,0l0.256042,0.307205l0.153641,0.051224l0.204834,0l0.051208,0l0.102417,0l0,-0.204803l0,-0.102448l0,-0.051178l0,-0.102417l0,-0.153625l0,-0.307251l0,-0.409653l0,-0.563248l0,-0.819321l0,-0.921707l0,-0.972916l0,-0.921722l0,-0.716873l0,-0.563278l0,-0.460846l0,-0.358444l0,-0.358444l0,-0.358444l0.051208,-0.460846l0.102417,-0.51207l0.153625,-0.51207l0.153625,-0.563263l0.102417,-0.460861l0.102417,-0.460861l0.102432,-0.256027l0.051208,-0.204819l0.051208,0l0,0.307236l0.102417,0.256027l0.204849,0.358444l0.358459,0.460861l0.512085,0.66568l0.614517,0.716888l0.614517,0.768097l0.716919,0.81929l0.614532,0.716873l0.716919,0.716919l0.665726,0.512054l0.614517,0.614471l0.563293,0.409653l0.5121,0.563248l0.460892,0.614502l0.204834,0.409622l0.460876,0.460876l0.256058,0l0.051208,0l0.051208,-0.204834l0.051208,-0.30722l0.051208,-0.460876l0.102417,-0.716873l0.102417,-1.126541l0.409683,-1.17775l0.256042,-1.484985l0.460892,-1.33136l0.256042,-1.382553l0.204834,-1.382584l0.153641,-1.177734l0.102417,-1.280151l-0.460892,-0.768097l0,-0.716888l-0.358475,-0.204834l0.102432,0l0.102417,0.307236l0.5121,2.048248l0.66571,0.358459l0.972992,1.894623"/>
  <path id="svg_48" stroke="#000000" stroke-linejoin="round" stroke-linecap="round" fill="none" d="m56.400612,174.047668l0.307251,0.512054l0,-0.870514l0.307251,-0.358429l0,-0.614487l0.204834,-0.460846l0,-0.614487l0.102417,-0.460861l0,-0.768097l0,-0.358429l0,-0.563278l0,-0.102417l-0.256042,-0.102402l-0.153625,0l-0.102417,0l-0.153625,0.358429l-0.153625,0.204834l-0.102417,0.204834l-0.102417,0.409653l-0.102432,0.512054l-0.051208,0.614471l0,0.819305l0,0.81929l0,0.921722l0.307251,0.819305l0.153641,0.716873l0.256042,0.512054l0.256042,0.665695l0.358459,0.307251l0.409683,0.358429l0.563309,0l0.614502,0l0.768158,-0.204803l0.819336,-0.307251l0.870575,-0.409668l0.870544,-0.563248l0.870575,-0.66568l0.716919,-0.870514l0.716949,-0.921707l0.563293,-1.17775l0.563293,-1.126541l0.460907,-1.433777l0.204834,-1.024124l0.153625,-1.177734l0,-0.768097l0,-0.563278l0,-0.614471l-0.409683,-0.256027l-0.051208,-0.051208l-0.204834,0.460861l0,0.307236l0,0.614471l-0.102417,0.81929l-0.204849,1.280167l-0.256042,1.638611l0,1.433762l-0.358459,1.741013l0,1.17775l0,1.024124l0,0.665695l0,0.460846l0.204834,0.204803l0.256042,0.153625l0.409683,0l0.563309,0l0.204834,-0.870499l0.972977,0.256027l0,-0.819305"/>
  <path id="svg_49" stroke="#000000" stroke-linejoin="round" stroke-linecap="round" fill="none" d="m78.727913,164.472076l0.5121,0.665695l-0.204849,-0.409653l0.409683,-0.102417l-0.665726,-0.66568l0,0.256027l0,0.358459l-0.204834,0.716873l-0.204834,0.563278l-0.102417,1.075333l-0.153625,0.972916l-0.204834,0.819305l-0.051208,1.024124l-0.153641,0.716888l-0.051208,0.614471l0,0.614471l-0.153625,0.512054l-0.102432,0.409653l0,0.563278l-0.153625,0.204819l0,0.460861l-0.153625,-0.204834l0.409683,0.409668l-0.460892,-0.819321"/>
  <path id="svg_50" stroke="#000000" stroke-linejoin="round" stroke-linecap="round" fill="none" d="m69.86869,162.270218l0.409668,0.307236l-0.563293,-0.460861l0.256042,0l0.358459,-0.153625l0.768143,-0.102402l0.768143,-0.204834l1.331451,-0.102402l1.331451,-0.153625l1.741119,-0.15361l1.843536,-0.102417l1.792328,-0.102417l1.997162,-0.051193l1.843536,-0.153625l2.150803,0l1.485077,-0.819305l2.04837,0l0.716934,-1.280151"/>
 </g>
</svg>