<svg xmlns="http://www.w3.org/2000/svg" xmlns:xlink="http://www.w3.org/1999/xlink" width="1080.0" height="1845.0" background="#FFFFFF"><g type="COMPO" id="CompositeShape_2"><path rough-pts="394.35168,200.71753 374.00467,177.85114 351.37143,169.7468 779.26294,169.7468 810.9274,244.63557 829.3452,321.68146 834.95215,399.46582 828.18365,476.5699 809.47534,551.57495 779.26294,623.0624 351.37143,623.0624 374.0049,614.95935 394.3517,592.09265 411.59695,556.63367 424.92477,510.75293 433.5198,456.61926 436.5657,396.40414 433.5195,336.18924 424.9247,282.05652 411.59692,236.17601 402.32626,221.93375 403.4088,216.9997 402.32626,214.80916 400.25797,216.43106 " stroke-linejoin="round" id="Polygon_52" d="M394.35168 200.71753 C381.73032 181.0348,  367.04108 169.7468,  351.37143 169.7468L779.26294 169.7468 C856.129 316.4215,  850.9014 484.55093,  779.26294 623.0624L351.37143 623.0624 C398.3804 623.0624,  436.5657 521.4712,  436.5657 396.40414C436.5657 323.44434,  423.57028 258.47302,  403.4088 216.99971L402.32626 214.80916 L400.25797 216.43106 C399.93967 210.02289,  397.19827 205.15671,  394.35168 200.71753" stroke-linecap="round" path-type="area" fill-opacity="0.0"/><path rough-pts="411.59692,236.17601 424.9247,282.05652 433.5195,336.18924 436.5657,396.40414 433.5198,456.61926 424.92477,510.75293 411.59695,556.63367 394.3517,592.09265 374.0049,614.95935 351.37143,623.0624 328.73813,614.95935 308.3909,592.09265 291.1456,556.63367 294.15924,554.22876 292.96292,551.0461 403.4088,216.9997 402.32626,214.80916 402.32626,221.93375 " stroke-linejoin="round" id="Polygon_54" d="M411.59692 236.176 C427.01938 277.20718,  436.5657 333.87152,  436.5657 396.40414C436.5657 521.4712,  398.3804 623.0624,  351.37143 623.0624C327.04248 623.0624,  305.0768 595.8517,  289.54465 552.2586L402.32626 214.80916 L402.32626 221.93375 C407.38538 225.52559,  409.54327 230.71219,  411.59695 236.176" stroke-linecap="round" path-type="area" fill-opacity="0.0"/><path rough-pts="403.4088,216.9997 400.25797,216.43106 394.35168,200.71753 374.00467,177.85114 351.37143,169.7468 328.73813,177.85086 308.3909,200.7172 291.1456,236.17722 277.81772,282.05765 269.2227,336.1909 266.1766,396.4041 269.2227,456.61926 277.8176,510.75293 291.1456,546.2111 292.96292,551.0461 " stroke-linejoin="round" id="Polygon_59" d="M403.4088 216.99971 C389.01016 187.38087,  370.9566 169.7468,  351.37143 169.7468C304.3624 169.7468,  266.1766 271.3389,  266.1766 396.40414C266.1766 456.74432,  275.06512 511.62,  289.54465 552.2586L403.4088 216.9997 " stroke-linecap="round" path-type="area" fill-opacity="0.0"/><path rough-pts="291.1456,546.2111 292.96292,551.0461 291.1456,556.63336 " stroke-linejoin="round" id="Polygon_56" d="M287.8375 547.32416 C288.3975 548.9913,  288.9666 550.6363,  289.54465 552.2586L291.1456 556.63336 L291.1456 546.2111 " stroke-linecap="round" path-type="area" fill-opacity="0.0"/><path rough-pts="294.15924,554.22876 292.96292,551.0461 291.1456,556.592 " stroke-linejoin="round" id="Polygon_60" d="M290.72437 555.5048 C290.32712 554.43317,  289.93387 553.3511,  289.54465 552.25867L291.1456 556.592 L294.15924 554.22876 " stroke-linecap="round" path-type="area" fill-opacity="0.0"/><path rough-pts="400.25797,216.43106 403.4088,216.9997 402.32626,214.80916 " stroke-linejoin="round" id="Polygon_51" d="M402.56342 215.2829 C402.8466 215.85059,  403.1284 216.42287,  403.4088 216.9997L402.32626 214.80916 L400.25797 216.43106 " stroke-linecap="round" path-type="area" fill-opacity="0.0"/><ellipse stroke-linejoin="round" ry="85.194756" id="EllipseShape_0" sc="-85.194756,0.0" stroke-linecap="round" transform="matrix(0.0,1.0,-1.0,0.0,747.7756,45.032715)" pc="0.0,226.65858" cy="396.40414" cx="351.37143" average="351.37143,396.40414" rx="226.65858" fill="none" stroke-width="6.0" stroke="#000000" stroke-opacity="1.0"/><line x1="351.37155" y1="169.7468" x2="779.26294" id="StraightLine_24" stroke-linecap="round" y2="169.7468" fill="none" stroke-width="6.0" stroke="#000000" stroke-opacity="1.0"/><line x1="310.02646" y1="396.4041" x2="165.55203" id="StraightLine_32" stroke-linecap="round" y2="396.4041" fill="none" stroke-width="6.0" stroke="#000000" stroke-opacity="1.0"/><line x1="165.55205" y1="396.40414" x2="193.99675" id="StraightLine_99" stroke-linecap="round" y2="360.5383" fill="none" stroke-width="6.0" stroke="#000000" stroke-opacity="1.0"/><line x1="833.88055" y1="520.2245" x2="834.6408" id="StraightLine_135" stroke-linecap="round" y2="812.5251" fill="none" stroke-width="6.0" stroke="#000000" stroke-opacity="1.0"/><line x1="834.64075" y1="748.3893" x2="351.37122" id="StraightLine_138" stroke-linecap="round" y2="748.3893" fill="none" stroke-width="6.0" stroke="#000000" stroke-opacity="1.0"/><line x1="834.64075" y1="748.3893" x2="765.2645" id="StraightLine_153" stroke-linecap="round" y2="706.3894" fill="none" stroke-width="6.0" stroke="#000000" stroke-opacity="1.0"/><line x1="402.32626" y1="214.80916" x2="291.14563" id="StraightLine_254" stroke-linecap="round" y2="556.63336" fill="none" stroke-width="6.0" stroke="#000000" stroke-opacity="1.0"/><line x1="402.32626" y1="214.80916" x2="360.0" id="StraightLine_265" stroke-linecap="round" y2="248.0" fill="none" stroke-width="6.0" stroke="#000000" stroke-opacity="1.0"/><line x1="402.32626" y1="214.80916" x2="402.32626" id="StraightLine_267" stroke-linecap="round" y2="268.59714" fill="none" stroke-width="6.0" stroke="#000000" stroke-opacity="1.0"/><line x1="291.1456" y1="556.63336" x2="291.1456" id="StraightLine_269" stroke-linecap="round" y2="502.84537" fill="none" stroke-width="6.0" stroke="#000000" stroke-opacity="1.0"/><line x1="291.1456" y1="556.592" x2="323.84396" id="StraightLine_271" stroke-linecap="round" y2="530.9511" fill="none" stroke-width="6.0" stroke="#000000" stroke-opacity="1.0"/><line x1="834.64075" y1="748.38934" x2="763.5547" id="StraightLine_170" stroke-linecap="round" y2="787.42535" fill="none" stroke-width="6.0" stroke="#000000" stroke-opacity="1.0"/><line x1="351.37143" y1="623.0624" x2="779.26294" id="StraightLine_27" stroke-linecap="round" y2="623.0624" fill="none" stroke-width="6.0" stroke="#000000" stroke-opacity="1.0"/><line x1="165.55206" y1="396.40414" x2="195.269" id="StraightLine_130" stroke-linecap="round" y2="431.22314" fill="none" stroke-width="6.0" stroke="#000000" stroke-opacity="1.0"/><line x1="351.37122" y1="748.38934" x2="422.4573" id="StraightLine_171" stroke-linecap="round" y2="709.35333" fill="none" stroke-width="6.0" stroke="#000000" stroke-opacity="1.0"/><path stroke-linejoin="round" id="CircleArc_2" path-type="circle-arc" stroke-linecap="round" end-point="779.26294,623.0624" start-point="779.26294,169.7468" circle-center="346.7581,396.40457" d="M779.26294 169.7468 C856.129 316.4215,  850.9014 484.55093,  779.26294 623.0624" middle-point="834.6406,416.52493" fill="none" stroke-width="6.0" stroke="#000000" stroke-opacity="1.0"/><line x1="351.37122" y1="525.4651" x2="351.3712" id="StraightLine_132" stroke-linecap="round" y2="824.2964" fill="none" stroke-width="6.0" stroke="#000000" stroke-opacity="1.0"/><line x1="351.37125" y1="748.3894" x2="420.74744" id="StraightLine_175" stroke-linecap="round" y2="790.3892" fill="none" stroke-width="6.0" stroke="#000000" stroke-opacity="1.0"/></g><text width="576" y="522.1806" id="TextShape_0" gravity="17" x="305.13678" transform="rotate(0.0,305.13678,522.1806)" font-family="Default" font-name="Default-Regular" font-size="72.0" boxheight="360" fill="#000000" fill-opacity="1.0" stroke="#000000"><tspan id="TextShape_0_0" y="712.9931" x="593.1368" text-anchor="middle">200mm</tspan></text><text width="576" y="281.79633" id="TextShape_1" gravity="17" x="-172.86484" transform="rotate(0.0,-172.86484,281.79633)" font-family="Default" font-name="Default-Regular" font-size="72.000275" boxheight="360" fill="#000000" fill-opacity="1.0" stroke="#000000"><tspan id="TextShape_1_0" y="474.60867" x="115.13516" text-anchor="middle">10kN</tspan></text><text width="304" y="517.3095" id="TextShape_2" gravity="17" x="234.10378" transform="rotate(-71.983345,234.10378,517.3095)" font-family="Default" font-name="Default-Regular" font-size="40.597763" boxheight="192" fill="#000000" fill-opacity="1.0" stroke="#000000"><tspan id="TextShape_2_0" y="619.5217" x="386.10376" text-anchor="middle">11.25mm</tspan></text><g type="COMPO" id="CompositeShape_18"/><g type="COMPO" id="CompositeShape_19"/></svg>