<svg xmlns="http://www.w3.org/2000/svg" xmlns:xlink="http://www.w3.org/1999/xlink" width="1080.0" height="1845.0" background="#FFFFFF"><g id="CompositeShape_0" type="COMPO"><path stroke-linecap="round" id="Polygon_4" stroke-linejoin="round" d="M610.8547 1010.92804 L540.5001 922.5002 L430.33356 1010.92804 L610.8546 1010.92804 " rough-pts="610.8547,1010.92804 540.5001,922.5002 430.33356,1010.92804 " path-type="area" fill-opacity="0.0"/><path stroke-linecap="round" id="Polygon_6" stroke-linejoin="round" d="M796.0 833.7811 C780.3949 833.7811,  767.7189 821.1051,  767.7189 805.5C767.7189 789.8949,  780.3949 777.2189,  796.0 777.2189C811.6051 777.2189,  824.2811 789.8949,  824.2811 805.5C824.2811 821.1051,  811.6051 833.7811,  796.0 833.7811" rough-pts="796.00006,833.7812 788.48663,832.7699 781.7322,829.9167 776.0075,825.4925 771.58325,819.76776 768.7301,813.0133 767.7189,805.5 768.73,797.9865 771.5831,791.2322 776.0075,785.5075 781.73224,781.08325 788.48663,778.23004 796.0,777.2189 803.5133,778.23004 810.2677,781.08307 815.9925,785.5075 820.41675,791.23224 823.2699,797.98663 824.2811,805.5 823.26984,813.0133 820.4167,819.76764 815.9925,825.4925 810.26776,829.91675 803.5133,832.7699 " path-type="area" fill-opacity="0.0"/><path stroke-linecap="round" id="Polygon_5" stroke-linejoin="round" d="M851.4381 922.5 L796.0001 878.2818 L768.0 922.5 L851.4381 922.5 " rough-pts="851.4381,922.5 796.0001,878.2818 768.0,922.5 " path-type="area" fill-opacity="0.0"/><path stroke-linecap="round" id="Polygon_9" stroke-linejoin="round" d="M527.22955 922.49994 L540.49994 922.49994 L527.22955 933.1521 L527.22955 922.49994 " rough-pts="527.22955,922.49994 540.49994,922.49994 527.22955,933.1521 " path-type="area" fill-opacity="0.0"/><line id="StraightLine_0" x1="229.5619" y2="922.5" x2="851.4381" stroke-linecap="round" y1="922.49994" stroke="#000000" fill="none" stroke-width="6.0" stroke-opacity="1.0"/><line id="StraightLine_1" x1="540.5001" y2="1010.92804" x2="430.33356" stroke-linecap="round" y1="922.5002" stroke="#000000" fill="none" stroke-width="6.0" stroke-opacity="1.0"/><line id="StraightLine_2" x1="430.33356" y2="1010.92804" x2="610.8546" stroke-linecap="round" y1="1010.92804" stroke="#000000" fill="none" stroke-width="6.0" stroke-opacity="1.0"/><line id="StraightLine_3" x1="610.8547" y2="922.5002" x2="540.5001" stroke-linecap="round" y1="1010.92804" stroke="#000000" fill="none" stroke-width="6.0" stroke-opacity="1.0"/><line id="StraightLine_4" x1="796.0001" y2="922.5" x2="851.4381" stroke-linecap="round" y1="878.2818" stroke="#000000" fill="none" stroke-width="6.0" stroke-opacity="1.0"/><ellipse id="EllipseShape_0" cy="805.5" stroke-linejoin="round" cx="796.0" transform="matrix(1.0,0.0,-0.0,1.0,0.0,0.0)" pc="28.28115,0.0" sc="0.0,-28.28115" stroke-linecap="round" rx="28.28115" average="796.0,805.5" ry="28.28115" stroke="#000000" fill="none" stroke-width="6.0" stroke-opacity="1.0"/><line id="StraightLine_5" x1="796.00006" y2="878.2818" x2="796.00006" stroke-linecap="round" y1="833.7812" stroke="#000000" fill="none" stroke-width="6.0" stroke-opacity="1.0"/><line id="StraightLine_6" x1="796.0001" y2="922.5" x2="768.00006" stroke-linecap="round" y1="878.2818" stroke="#000000" fill="none" stroke-width="6.0" stroke-opacity="1.0"/><line id="StraightLine_63" x1="527.22955" y2="800.931" x2="527.2296" stroke-linecap="round" y1="981.4522" stroke="#000000" fill="none" stroke-width="6.0" stroke-opacity="1.0"/></g><g id="CompositeShape_1" type="COMPO"><path stroke-linecap="round" id="Polygon_7" stroke-linejoin="round" d="M281.0 819.7811 C265.3949 819.7811,  252.71884 807.1051,  252.71884 791.5C252.71884 775.8949,  265.3949 763.2189,  281.0 763.2189C296.6051 763.2189,  309.28116 775.8949,  309.28116 791.5C309.28116 807.1051,  296.6051 819.7811,  281.0 819.7811" rough-pts="281.0,819.7811 273.48663,818.76984 266.7322,815.9167 261.0075,811.4925 256.5832,805.76776 253.73004,799.0133 252.71884,791.5 253.73003,783.9867 256.58316,777.2322 261.0075,771.5075 266.73224,767.08325 273.48663,764.2301 281.0,763.2189 288.51334,764.23004 295.26773,767.0831 300.9925,771.5075 305.4168,777.2323 308.26996,783.98663 309.28116,791.5 308.26993,799.0133 305.4168,805.76764 300.9925,811.4925 295.26776,815.9168 288.51334,818.7699 282.47546,818.30566 " path-type="area" fill-opacity="0.0"/><ellipse id="EllipseShape_1" cy="791.5" stroke-linejoin="round" cx="281.0" transform="matrix(1.0,0.0,-0.0,1.0,0.0,0.0)" pc="28.28115,0.0" sc="0.0,-28.28115" stroke-linecap="round" rx="28.28115" average="281.0,791.5" ry="28.28115" stroke="#000000" fill="none" stroke-width="6.0" stroke-opacity="1.0"/><path id="CircleArc_0" stroke-linejoin="round" middle-point="283.0,893.0" start-point="280.9994,791.4983" circle-center="151.47783,844.8217" path-type="circle-arc" stroke-linecap="round" d="M280.9994 791.4983 C305.93692 852.07104,  285.20483 920.17645,  234.0 958.0" end-point="234.0,958.0" stroke="#000000" fill="none" stroke-width="6.0" stroke-opacity="1.0"/><line id="StraightLine_7" x1="282.43573" y2="970.0" x2="343.0" stroke-linecap="round" y1="894.13477" stroke="#000000" fill="none" stroke-width="6.0" stroke-opacity="1.0"/></g><line id="StraightLine_8" x1="247.0" y2="841.0" x2="329.0" stroke-linecap="round" y1="891.0" stroke="#000000" fill="none" stroke-width="6.0" stroke-opacity="1.0"/><line id="StraightLine_9" x1="755.0" y2="845.00006" x2="850.0" stroke-linecap="round" y1="888.00006" stroke="#000000" fill="none" stroke-width="6.0" stroke-opacity="1.0"/><g id="CompositeShape_2" type="COMPO"><line id="StraightLine_10" x1="287.5" y2="1052.1288" x2="287.5" stroke-linecap="round" y1="956.87134" stroke="#000000" fill="none" stroke-width="6.0" stroke-opacity="1.0"/><path stroke-linecap="round" id="ConsecLine_0" stroke-linejoin="round" d="M275.0 1022.0 C271.75763 1020.18695,  270.2423 1021.92926,  269.9837 1025.4481C269.53995 1028.3098,  270.35287 1032.9481,  271.95224 1037.5841C275.24353 1047.1847,  281.68036 1056.7764,  287.5 1052.1288" stroke="#000000" fill="none" stroke-width="6.0" stroke-opacity="1.0"/><path stroke-linecap="round" id="ConsecLine_1" stroke-linejoin="round" d="M287.5 1052.1288 C291.33698 1058.8619,  318.66644 1012.3012,  318.0 1013.0" stroke="#000000" fill="none" stroke-width="6.0" stroke-opacity="1.0"/></g><g id="CompositeShape_3" type="COMPO"><line id="StraightLine_11" x1="805.0" y2="1005.9999" x2="798.0" stroke-linecap="round" y1="936.0001" stroke="#000000" fill="none" stroke-width="6.0" stroke-opacity="1.0"/><line id="StraightLine_12" x1="781.8438" y2="1005.9999" x2="798.0" stroke-linecap="round" y1="972.1339" stroke="#000000" fill="none" stroke-width="6.0" stroke-opacity="1.0"/><line id="StraightLine_13" x1="798.0" y2="976.0038" x2="820.5424" stroke-linecap="round" y1="1005.99994" stroke="#000000" fill="none" stroke-width="6.0" stroke-opacity="1.0"/></g><text boxheight="360" id="TextShape_0" y="867.3865" gravity="17" transform="rotate(0.0,212.76642,867.3865)" x="212.76642" font-size="50.58626" font-name="Default-Regular" width="576" font-family="Default" fill-opacity="1.0" stroke="#000000" fill="#000000"><tspan id="TextShape_0_0" y="1065.7461" x="500.76642" text-anchor="middle">Support</tspan></text><g id="CompositeShape_5" type="COMPO"><path stroke-linecap="round" id="ConsecLine_6" stroke-linejoin="round" d="M481.0 841.0 C506.20532 841.5599,  523.8001 764.59717,  539.0 744.0C558.9956 776.32556,  563.4005 817.84534,  567.0 855.0C564.3333 849.6667,  567.03107 845.8724,  565.58356 840.88885" stroke="#000000" fill="none" stroke-width="6.0" stroke-opacity="1.0"/></g><text boxheight="255" id="TextShape_1" y="585.0" gravity="17" transform="rotate(0.0,358.10968,585.0)" x="358.10968" font-size="50.5728" font-name="Default-Regular" width="405" font-family="Default" fill-opacity="1.0" stroke="#000000" fill="#000000"><tspan id="TextShape_1_0" y="732.8675" x="560.1097" text-anchor="middle">Support reaction</tspan></text><g id="CompositeShape_6" type="COMPO"/><g id="CompositeShape_7" type="COMPO"/></svg>