<svg width="400" height="250" xmlns="http://www.w3.org/2000/svg" stroke="null" style="vector-effect: non-scaling-stroke;">
 <!-- Created with Method Draw - http://github.com/duopixel/Method-Draw/ -->
 <g stroke="null">
  <title stroke="null">background</title>
  <rect stroke="null" fill="#fff" id="canvas_background" height="252" width="402" y="-1" x="-1"/>
  <g stroke="null" style="vector-effect: non-scaling-stroke;" display="none" overflow="visible" y="0" x="0" height="100%" width="100%" id="canvasGrid">
   <rect stroke="null" fill="url(#gridpattern)" stroke-width="0" y="0" x="0" height="100%" width="100%"/>
  </g>
 </g>
 <g stroke="null">
  <title stroke="null">Layer 1</title>
  <g id="svg_63">
   <line stroke="#000" stroke-linecap="null" stroke-linejoin="null" id="svg_6" y2="179.758777" x2="329.621587" y1="179.758777" x1="47.223432" fill-opacity="null" stroke-opacity="null" stroke-width="1.5" fill="none"/>
   <line stroke="#000" stroke-linecap="null" stroke-linejoin="null" id="svg_9" y2="56.427675" x2="116.845812" y1="180.100718" x1="47.201435" fill-opacity="null" stroke-opacity="null" stroke-width="1.5" fill="none"/>
   <line stroke="#000" stroke-linecap="null" stroke-linejoin="null" id="svg_10" y2="180.100718" x2="188.41009" y1="56.100718" x1="117.201435" fill-opacity="null" stroke-opacity="null" stroke-width="1.5" fill="none"/>
   <line stroke="#000" stroke-linecap="null" stroke-linejoin="null" id="svg_11" y2="179.797238" x2="329.201435" y1="56.100718" x1="117.201435" fill-opacity="null" stroke-opacity="null" stroke-width="1.5" fill="none"/>
   <g stroke="null" id="svg_16">
    <line stroke="#000" stroke-linecap="null" stroke-linejoin="null" id="svg_13" y2="225.378536" x2="328.677108" y1="178.727444" x1="328.677108" fill-opacity="null" stroke-opacity="null" stroke-width="1.5" fill="none"/>
    <line stroke="#000" stroke-linecap="null" stroke-linejoin="null" id="svg_14" y2="193.512231" x2="324.547726" y1="179.597" x1="328.677108" fill-opacity="null" stroke-opacity="null" stroke-width="1.5" fill="none"/>
    <line stroke="#000" stroke-linecap="null" stroke-linejoin="null" id="svg_15" y2="193.944674" x2="332.59011" y1="179.162222" x1="328.677108" fill-opacity="null" stroke-opacity="null" stroke-width="1.5" fill="none"/>
   </g>
   <g stroke="null" transform="rotate(180 117.30812072753906,33.410667419433594) " id="svg_20">
    <line stroke="#000" stroke-linecap="null" stroke-linejoin="null" id="svg_17" y2="56.736215" x2="117.416303" y1="10.085124" x1="117.416303" fill-opacity="null" stroke-opacity="null" stroke-width="1.5" fill="none"/>
    <line stroke="#000" stroke-linecap="null" stroke-linejoin="null" id="svg_18" y2="24.869911" x2="113.286921" y1="10.95468" x1="117.416303" fill-opacity="null" stroke-opacity="null" stroke-width="1.5" fill="none"/>
    <line stroke="#000" stroke-linecap="null" stroke-linejoin="null" id="svg_19" y2="25.302354" x2="121.329305" y1="10.519902" x1="117.416303" fill-opacity="null" stroke-opacity="null" stroke-width="1.5" fill="none"/>
   </g>
   <g stroke="null" id="svg_24">
    <line stroke="#000" stroke-linecap="null" stroke-linejoin="null" id="svg_21" y2="225.967022" x2="47.330818" y1="179.315931" x1="47.330818" fill-opacity="null" stroke-opacity="null" stroke-width="1.5" fill="none"/>
    <line stroke="#000" stroke-linecap="null" stroke-linejoin="null" id="svg_22" y2="194.100718" x2="43.201435" y1="180.185487" x1="47.330818" fill-opacity="null" stroke-opacity="null" stroke-width="1.5" fill="none"/>
    <line stroke="#000" stroke-linecap="null" stroke-linejoin="null" id="svg_23" y2="194.53316" x2="51.24382" y1="179.750709" x1="47.330818" fill-opacity="null" stroke-opacity="null" stroke-width="1.5" fill="none"/>
   </g>
   <text stroke="#000" transform="translate(189.2425079345703,123.67181396484375) scale(1) translate(-189.2425079345703,-123.67181396484375) translate(181.6785125732422,123.67181396484375) scale(1) translate(-181.6785125732422,-123.67181396484375) translate(181.6785125732422,123.67181396484375) scale(1) translate(-181.6785125732422,-123.67181396484375) translate(181.6785125732422,123.67181396484375) scale(1) translate(-181.6785125732422,-123.67181396484375) translate(181.6785125732422,123.67181396484375) scale(1) translate(-181.6785125732422,-123.67181396484375) translate(132.89161682128906,220.2466278076172) scale(1) translate(-132.89161682128906,-220.2466278076172) translate(132.89161682128906,220.2466278076172) scale(1) translate(-132.89161682128906,-220.2466278076172) translate(132.89161682128906,220.2466278076172) scale(1) translate(-132.89161682128906,-220.2466278076172) translate(192.47076416015625,220.2466278076172) scale(1) translate(-192.47076416015625,-220.2466278076172) translate(132.89161682128906,220.3391571044922) scale(1) translate(-132.89161682128906,-220.3391571044922) matrix(0.4555534422397613,0,0,0.4555534422397613,57.58523236587643,127.53210268029942) " xml:space="preserve" text-anchor="start" font-family="Helvetica, Arial, sans-serif" font-size="24" id="svg_26" y="37.135791" x="209.058722" fill-opacity="null" stroke-opacity="null" stroke-width="0" fill="#000000">4</text>
   <text stroke="#000" xml:space="preserve" text-anchor="start" font-family="Helvetica, Arial, sans-serif" font-size="24" id="svg_27" y="141.051153" x="136.406439" fill-opacity="null" stroke-opacity="null" stroke-width="0" fill="#000000">F</text>
   <text stroke="#000" xml:space="preserve" text-anchor="start" font-family="Helvetica, Arial, sans-serif" font-size="24" id="svg_30" y="31.851505" x="121.648429" fill-opacity="null" stroke-opacity="null" stroke-width="0" fill="#000000">20</text>
   <text stroke="#000" xml:space="preserve" text-anchor="start" font-family="Helvetica, Arial, sans-serif" font-size="24" id="svg_44" y="202.100718" x="335.808357" fill-opacity="null" stroke-opacity="null" stroke-width="0" fill="#000000">R</text>
   <text stroke="#000" transform="matrix(0.4555534422397613,0,0,0.4555534422397613,57.58523236587643,127.53210268029942) " xml:space="preserve" text-anchor="start" font-family="Helvetica, Arial, sans-serif" font-size="24" id="svg_45" y="171.147653" x="647.315647" fill-opacity="null" stroke-opacity="null" stroke-width="0" fill="#000000">2</text>
   <text stroke="#000" xml:space="preserve" text-anchor="start" font-family="Helvetica, Arial, sans-serif" font-size="24" id="svg_46" y="202.100718" x="335.808357" fill-opacity="null" stroke-opacity="null" stroke-width="0" fill="#000000">R</text>
   <text stroke="#000" xml:space="preserve" text-anchor="start" font-family="Helvetica, Arial, sans-serif" font-size="24" id="svg_47" y="202.100718" x="57.237343" fill-opacity="null" stroke-opacity="null" stroke-width="0" fill="#000000">R</text>
   <text stroke="#000" transform="translate(132.89161682128906,220.2466278076172) scale(1) translate(-132.89161682128906,-220.2466278076172) translate(132.89161682128906,220.2466278076172) scale(1) translate(-132.89161682128906,-220.2466278076172) translate(132.89161682128906,220.2466278076172) scale(1) translate(-132.89161682128906,-220.2466278076172) translate(192.47076416015625,220.2466278076172) scale(1) translate(-192.47076416015625,-220.2466278076172) translate(132.89161682128906,220.3391571044922) scale(1) translate(-132.89161682128906,-220.3391571044922) matrix(0.4555534422397613,0,0,0.4555534422397613,57.58523236587643,127.53210268029942) " xml:space="preserve" text-anchor="start" font-family="Helvetica, Arial, sans-serif" font-size="24" id="svg_48" y="171.147653" x="35.815461" fill-opacity="null" stroke-opacity="null" stroke-width="0" fill="#000000">1</text>
   <text stroke="#000" xml:space="preserve" text-anchor="start" font-family="Helvetica, Arial, sans-serif" font-size="24" id="svg_49" y="202.100718" x="57.237343" fill-opacity="null" stroke-opacity="null" stroke-width="0" fill="#000000">R</text>
   <text stroke="#000" transform="translate(132.89161682128906,220.2466278076172) scale(1) translate(-132.89161682128906,-220.2466278076172) translate(132.89161682128906,220.2466278076172) scale(1) translate(-132.89161682128906,-220.2466278076172) translate(132.89161682128906,220.2466278076172) scale(1) translate(-132.89161682128906,-220.2466278076172) translate(192.47076416015625,220.2466278076172) scale(1) translate(-192.47076416015625,-220.2466278076172) translate(132.89161682128906,220.3391571044922) scale(1) translate(-132.89161682128906,-220.3391571044922) matrix(0.4555534422397613,0,0,0.4555534422397613,57.58523236587643,127.53210268029942) " xml:space="preserve" text-anchor="start" font-family="Helvetica, Arial, sans-serif" font-size="24" id="svg_50" y="-33.822277" x="32.645034" fill-opacity="null" stroke-opacity="null" stroke-width="0" fill="#000000">1</text>
   <text stroke="#000" xml:space="preserve" text-anchor="start" font-family="Helvetica, Arial, sans-serif" font-size="24" id="svg_51" y="108.72596" x="56.288109" fill-opacity="null" stroke-opacity="null" stroke-width="0" fill="#000000">F</text>
   <text stroke="#000" transform="translate(189.2425079345703,123.67181396484375) scale(1) translate(-189.2425079345703,-123.67181396484375) translate(181.6785125732422,123.67181396484375) scale(1) translate(-181.6785125732422,-123.67181396484375) translate(181.6785125732422,123.67181396484375) scale(1) translate(-181.6785125732422,-123.67181396484375) translate(181.6785125732422,123.67181396484375) scale(1) translate(-181.6785125732422,-123.67181396484375) translate(181.6785125732422,123.67181396484375) scale(1) translate(-181.6785125732422,-123.67181396484375) translate(132.89161682128906,220.2466278076172) scale(1) translate(-132.89161682128906,-220.2466278076172) translate(132.89161682128906,220.2466278076172) scale(1) translate(-132.89161682128906,-220.2466278076172) translate(132.89161682128906,220.2466278076172) scale(1) translate(-132.89161682128906,-220.2466278076172) translate(192.47076416015625,220.2466278076172) scale(1) translate(-192.47076416015625,-220.2466278076172) translate(132.89161682128906,220.3391571044922) scale(1) translate(-132.89161682128906,-220.3391571044922) matrix(0.4555534422397613,0,0,0.4555534422397613,57.58523236587643,127.53210268029942) " xml:space="preserve" text-anchor="start" font-family="Helvetica, Arial, sans-serif" font-size="24" id="svg_52" y="-59.785308" x="329.031346" fill-opacity="null" stroke-opacity="null" stroke-width="0" fill="#000000">2</text>
   <text stroke="#000" xml:space="preserve" text-anchor="start" font-family="Helvetica, Arial, sans-serif" font-size="24" id="svg_53" y="96.898412" x="191.060381" fill-opacity="null" stroke-opacity="null" stroke-width="0" fill="#000000">F</text>
   <text stroke="#000" transform="translate(189.2425079345703,123.67181396484375) scale(1) translate(-189.2425079345703,-123.67181396484375) translate(181.6785125732422,123.67181396484375) scale(1) translate(-181.6785125732422,-123.67181396484375) translate(181.6785125732422,123.67181396484375) scale(1) translate(-181.6785125732422,-123.67181396484375) translate(181.6785125732422,123.67181396484375) scale(1) translate(-181.6785125732422,-123.67181396484375) translate(181.6785125732422,123.67181396484375) scale(1) translate(-181.6785125732422,-123.67181396484375) translate(132.89161682128906,220.2466278076172) scale(1) translate(-132.89161682128906,-220.2466278076172) translate(132.89161682128906,220.2466278076172) scale(1) translate(-132.89161682128906,-220.2466278076172) translate(132.89161682128906,220.2466278076172) scale(1) translate(-132.89161682128906,-220.2466278076172) translate(192.47076416015625,220.2466278076172) scale(1) translate(-192.47076416015625,-220.2466278076172) translate(132.89161682128906,220.3391571044922) scale(1) translate(-132.89161682128906,-220.3391571044922) matrix(0.4555534422397613,0,0,0.4555534422397613,57.58523236587643,127.53210268029942) " xml:space="preserve" text-anchor="start" font-family="Helvetica, Arial, sans-serif" font-size="24" id="svg_54" y="166.014676" x="357.84573" fill-opacity="null" stroke-opacity="null" stroke-width="0" fill="#000000">3</text>
   <text stroke="#000" xml:space="preserve" text-anchor="start" font-family="Helvetica, Arial, sans-serif" font-size="24" id="svg_55" y="199.762372" x="204.186873" fill-opacity="null" stroke-opacity="null" stroke-width="0" fill="#000000">F</text>
   <ellipse ry="17.094623" rx="17.094623" id="svg_56" cy="177.099371" cx="25.554606" fill-opacity="null" stroke-opacity="null" stroke-width="1.5" stroke="#000" fill="none"/>
   <text xml:space="preserve" text-anchor="start" font-family="Helvetica, Arial, sans-serif" font-size="24" id="svg_58" y="185.219317" x="18.716756" fill-opacity="null" stroke-opacity="null" stroke-width="0" stroke="#000" fill="#000000">1</text>
   <ellipse ry="17.094623" rx="17.094623" id="svg_59" cy="51.453888" cx="148.208525" fill-opacity="null" stroke-opacity="null" stroke-width="1.5" stroke="#000" fill="none"/>
   <text xml:space="preserve" text-anchor="start" font-family="Helvetica, Arial, sans-serif" font-size="24" id="svg_60" y="60.855926" x="142.225403" fill-opacity="null" stroke-opacity="null" stroke-width="0" stroke="#000" fill="#000000">3</text>
   <ellipse ry="17.094623" rx="17.094623" id="svg_61" cy="161.286845" cx="340.950401" fill-opacity="null" stroke-opacity="null" stroke-width="1.5" stroke="#000" fill="none"/>
   <text xml:space="preserve" text-anchor="start" font-family="Helvetica, Arial, sans-serif" font-size="24" id="svg_62" y="170.261519" x="334.11255" fill-opacity="null" stroke-opacity="null" stroke-width="0" stroke="#000" fill="#000000">2</text>
  </g>
 </g>
</svg>