<?xml version="1.0" encoding="utf-8"?><svg width="100%" height="100%" version="1.1" viewBox="37.13516 123.5799 807.834 710.7167" style="background-color:#FFFFFF" xmlns:xlink="http://www.w3.org/1999/xlink" xmlns:inkscape="http://www.inkscape.org/namespaces/inkscape" xmlns="http://www.w3.org/2000/svg"><defs /><g id="layer1" inkscape:label="CompositeShape_2" inkscape:groupmode="layer"><g><path d="M384.3517 200.7175 C371.7302 181.0348 357.0412 169.7468 341.3713 169.7468 L769.2629 169.7468 C846.129 316.4214 840.9014 484.551 769.2629 623.0624 L341.3713 623.0624 C388.3803 623.0624 426.5658 521.4713 426.5658 396.4041 C426.5658 323.4443 413.5703 258.473 393.4088 216.9997 L392.3263 214.8092 L390.2581 216.4311 C389.9397 210.0229 387.1982 205.1567 384.3517 200.7175" opacity="1" fill="#FFFFFF" fill-opacity="0" /><path d="M401.5969 236.176 C417.0194 277.2072 426.5658 333.8715 426.5658 396.4041 C426.5658 521.4713 388.3803 623.0624 341.3713 623.0624 C317.0425 623.0624 295.0768 595.8519 279.5446 552.2586 L392.3263 214.8092 L392.3263 221.9337 C397.3854 225.5256 399.5434 230.7122 401.597 236.176" opacity="1" fill="#FFFFFF" fill-opacity="0" /><path d="M403.4088 206.9997 C389.0103 177.3809 370.9566 159.7468 351.3715 159.7468 C304.3625 159.7468 110 19.99999 266.1766 386.4041 C289.8365 441.9122 275.0651 501.6201 289.5446 542.2585 L403.4088 206.9997" opacity="1" fill="#FFFFFF" fill-opacity="0" /><path d="M287.8375 547.3242 C288.3975 548.9912 288.9666 550.6362 289.5446 552.2586 L291.1456 556.6334 L291.1456 546.2111" opacity="1" fill="#FFFFFF" fill-opacity="0" /><path d="M290.7244 555.5048 C290.3271 554.4332 289.9339 553.351 289.5446 552.2587 L291.1456 556.5919 L294.1592 554.2289" opacity="1" fill="#FFFFFF" fill-opacity="0" /><path d="M402.5634 215.2829 C402.8467 215.8506 403.1283 216.4229 403.4088 216.9997 L402.3263 214.8092 L400.258 216.4311" opacity="1" fill="#FFFFFF" fill-opacity="0" /><ellipse cx="351.3713" cy="396.4042" rx="85.19475" ry="226.6586" opacity="1" stroke="#000000" stroke-opacity="1" stroke-width="6" stroke-linecap="round" stroke-linejoin="round" stroke-dasharray="none" fill-opacity="0" /><line x1="351.3717" y1="169.7468" x2="779.2629" y2="169.7468" opacity="1" stroke="#000000" stroke-opacity="1" stroke-width="6" stroke-linecap="round" stroke-linejoin="miter" stroke-dasharray="none" /><line x1="310.0265" y1="396.4041" x2="165.552" y2="396.4041" opacity="1" stroke="#000000" stroke-opacity="1" stroke-width="6" stroke-linecap="round" stroke-linejoin="miter" stroke-dasharray="none" /><line x1="165.552" y1="396.4041" x2="193.9967" y2="360.5384" opacity="1" stroke="#000000" stroke-opacity="1" stroke-width="6" stroke-linecap="round" stroke-linejoin="miter" stroke-dasharray="none" /><line x1="833.8806" y1="520.2246" x2="834.6407" y2="812.5254" opacity="1" stroke="#000000" stroke-opacity="1" stroke-width="6" stroke-linecap="round" stroke-linejoin="miter" stroke-dasharray="none" /><line x1="834.6407" y1="748.3893" x2="351.3711" y2="748.3893" opacity="1" stroke="#000000" stroke-opacity="1" stroke-width="6" stroke-linecap="round" stroke-linejoin="miter" stroke-dasharray="none" /><line x1="834.6407" y1="748.3893" x2="765.2646" y2="706.3896" opacity="1" stroke="#000000" stroke-opacity="1" stroke-width="6" stroke-linecap="round" stroke-linejoin="miter" stroke-dasharray="none" /><line x1="402.3263" y1="214.8092" x2="291.1456" y2="556.6334" opacity="1" stroke="#000000" stroke-opacity="1" stroke-width="6" stroke-linecap="round" stroke-linejoin="miter" stroke-dasharray="none" /><line x1="402.3263" y1="214.8092" x2="360" y2="248" opacity="1" stroke="#000000" stroke-opacity="1" stroke-width="6" stroke-linecap="round" stroke-linejoin="miter" stroke-dasharray="none" /><line x1="402.3263" y1="214.8092" x2="402.3263" y2="268.5971" opacity="1" stroke="#000000" stroke-opacity="1" stroke-width="6" stroke-linecap="round" stroke-linejoin="miter" stroke-dasharray="none" /><line x1="291.1456" y1="556.6334" x2="291.1456" y2="502.8454" opacity="1" stroke="#000000" stroke-opacity="1" stroke-width="6" stroke-linecap="round" stroke-linejoin="miter" stroke-dasharray="none" /><line x1="291.1456" y1="556.5919" x2="323.844" y2="530.9512" opacity="1" stroke="#000000" stroke-opacity="1" stroke-width="6" stroke-linecap="round" stroke-linejoin="miter" stroke-dasharray="none" /><line x1="834.6407" y1="748.3893" x2="763.5547" y2="787.4255" opacity="1" stroke="#000000" stroke-opacity="1" stroke-width="6" stroke-linecap="round" stroke-linejoin="miter" stroke-dasharray="none" /><line x1="351.3715" y1="623.0624" x2="779.2629" y2="623.0624" opacity="1" stroke="#000000" stroke-opacity="1" stroke-width="6" stroke-linecap="round" stroke-linejoin="miter" stroke-dasharray="none" /><line x1="165.5521" y1="396.4041" x2="195.2689" y2="431.2232" opacity="1" stroke="#000000" stroke-opacity="1" stroke-width="6" stroke-linecap="round" stroke-linejoin="miter" stroke-dasharray="none" /><line x1="351.3711" y1="748.3893" x2="422.4572" y2="709.3534" opacity="1" stroke="#000000" stroke-opacity="1" stroke-width="6" stroke-linecap="round" stroke-linejoin="miter" stroke-dasharray="none" /><path d="M779.2629 169.7468 C856.129 316.4214 850.9015 484.551 779.2629 623.0624" opacity="1" stroke="#000000" stroke-opacity="1" stroke-width="6" stroke-linecap="round" stroke-linejoin="round" stroke-dasharray="none" fill-opacity="0" /><line x1="351.3711" y1="525.4651" x2="351.3711" y2="824.2965" opacity="1" stroke="#000000" stroke-opacity="1" stroke-width="6" stroke-linecap="round" stroke-linejoin="miter" stroke-dasharray="none" /><line x1="351.3711" y1="748.3895" x2="420.7474" y2="790.3894" opacity="1" stroke="#000000" stroke-opacity="1" stroke-width="6" stroke-linecap="round" stroke-linejoin="miter" stroke-dasharray="none" /><text x="475.1368" y="726.5807" font-size="72" fill="#000000" fill-opacity="1" font-family="Default" font-weight="normal" font-style="normal">200mm</text><text x="47.13516" y="496.1964" font-size="72.00027" fill="#000000" fill-opacity="1" font-family="Default" font-weight="normal" font-style="normal">10kN</text><g transform="rotate(-71.98335 384.9999 329.9999)"><text x="234.1609" y="347.5977" font-size="40.59775" fill="#000000" fill-opacity="1" font-family="Arimo" font-weight="normal" font-style="normal">11.25mm</text></g></g></g><g id="layer2" inkscape:label="CompositeShape_18" inkscape:groupmode="layer" /><g id="layer3" inkscape:label="CompositeShape_19" inkscape:groupmode="layer" /></svg>