<?xml version="1.0" encoding="utf-8"?><svg width="100%" height="100%" version="1.1" viewBox="7.542711 -4.094509 1160.923 552.2649" style="background-color:#FFFFFF" xmlns:xlink="http://www.w3.org/1999/xlink" xmlns:inkscape="http://www.inkscape.org/namespaces/inkscape" xmlns="http://www.w3.org/2000/svg"><defs /><g id="layer1" inkscape:label="CompositeShape_1" inkscape:groupmode="layer"><path d="M678.819 183.4646 L588.0042 298.1303 L385.8877 460.364 L717.0798 460.364" opacity="1" fill="#FFFFFF" fill-opacity="0" /><path d="M1056.756 135.3622 C1028.126 135.3622 1004.87 112.1062 1004.87 83.47639 C1004.87 54.84656 1028.126 31.59053 1056.756 31.59053 C1085.386 31.59053 1108.642 54.84656 1108.642 83.47639 C1108.642 112.1062 1085.386 135.3622 1056.756 135.3622" opacity="1" fill="#FFFFFF" fill-opacity="0" /><path d="M1158.465 298.13 L1005.386 298.13 L1056.756 217.0052 L1158.465 298.13" opacity="1" fill="#FFFFFF" fill-opacity="0" /><line x1="17.54271" y1="298.1298" x2="1158.465" y2="298.13" opacity="1" stroke="#000000" stroke-opacity="1" stroke-width="6" stroke-linecap="round" stroke-linejoin="miter" stroke-dasharray="none" /><line x1="588.0042" y1="298.1303" x2="385.8877" y2="460.364" opacity="1" stroke="#000000" stroke-opacity="1" stroke-width="6" stroke-linecap="round" stroke-linejoin="miter" stroke-dasharray="none" /><line x1="385.8877" y1="460.364" x2="717.0798" y2="460.364" opacity="1" stroke="#000000" stroke-opacity="1" stroke-width="6" stroke-linecap="round" stroke-linejoin="miter" stroke-dasharray="none" /><line x1="717.08" y1="460.364" x2="588.0042" y2="298.1303" opacity="1" stroke="#000000" stroke-opacity="1" stroke-width="6" stroke-linecap="round" stroke-linejoin="miter" stroke-dasharray="none" /><line x1="1056.756" y1="217.0052" x2="1158.465" y2="298.13" opacity="1" stroke="#000000" stroke-opacity="1" stroke-width="6" stroke-linecap="round" stroke-linejoin="miter" stroke-dasharray="none" /><ellipse cx="1056.756" cy="83.47645" rx="51.88592" ry="51.88592" opacity="1" stroke="#000000" stroke-opacity="1" stroke-width="6" stroke-linecap="round" stroke-linejoin="round" stroke-dasharray="none" fill-opacity="0" /><line x1="1056.756" y1="135.3624" x2="1056.756" y2="217.0052" opacity="1" stroke="#000000" stroke-opacity="1" stroke-width="6" stroke-linecap="round" stroke-linejoin="miter" stroke-dasharray="none" /><line x1="1056.756" y1="217.0052" x2="1005.386" y2="298.13" opacity="1" stroke="#000000" stroke-opacity="1" stroke-width="6" stroke-linecap="round" stroke-linejoin="miter" stroke-dasharray="none" /><line x1="49.53544" y1="240.3386" x2="199.9764" y2="148.6063" opacity="1" stroke="#000000" stroke-opacity="1" stroke-width="6" stroke-linecap="round" stroke-linejoin="miter" stroke-dasharray="none" /><line x1="981.5356" y1="234.8349" x2="1155.827" y2="155.945" opacity="1" stroke="#000000" stroke-opacity="1" stroke-width="6" stroke-linecap="round" stroke-linejoin="miter" stroke-dasharray="none" /></g><g id="layer2" inkscape:label="CompositeShape_4" inkscape:groupmode="layer"><path d="M111.9134 5.905491 C140.5432 5.905491 163.7993 29.16151 163.7993 57.79135 C163.7993 86.42118 140.5432 109.6772 111.9134 109.6772 C83.28358 109.6772 60.02749 86.42118 60.02749 57.79135 C60.02749 29.16151 83.28358 5.905491 111.9134 5.905491" opacity="1" fill="#FFFFFF" fill-opacity="0" /><ellipse cx="111.9134" cy="57.79141" rx="51.88589" ry="51.88592" opacity="1" stroke="#000000" stroke-opacity="1" stroke-width="6" stroke-linecap="round" stroke-linejoin="round" stroke-dasharray="none" fill-opacity="0" /><path d="M111.9123 57.78821 C157.6638 168.9178 119.6278 293.8672 25.68504 363.2599" opacity="1" stroke="#000000" stroke-opacity="1" stroke-width="6" stroke-linecap="round" stroke-linejoin="round" stroke-dasharray="none" fill-opacity="0" /><line x1="114.5475" y1="246.0899" x2="225.6615" y2="385.2757" opacity="1" stroke="#000000" stroke-opacity="1" stroke-width="6" stroke-linecap="round" stroke-linejoin="miter" stroke-dasharray="none" /></g><g id="layer3" inkscape:label="CompositeShape_6" inkscape:groupmode="layer"><line x1="123.8386" y1="361.1891" x2="123.8386" y2="535.9529" opacity="1" stroke="#000000" stroke-opacity="1" stroke-width="6" stroke-linecap="round" stroke-linejoin="miter" stroke-dasharray="none" /><path d="M100.9055 480.6772 C94.95692 477.351 92.17685 480.5475 91.70239 487.0033 C90.88828 492.2535 92.37969 500.7631 95.31396 509.2686 C101.3523 526.8823 113.1616 544.4796 123.8386 535.9529" opacity="1" stroke="#000000" stroke-opacity="1" stroke-width="6" stroke-linecap="round" stroke-linejoin="round" stroke-dasharray="none" fill-opacity="0" /><path d="M123.8386 535.9529 C130.8781 548.3058 181.018 462.8834 179.7953 464.1654" opacity="1" stroke="#000000" stroke-opacity="1" stroke-width="6" stroke-linecap="round" stroke-linejoin="round" stroke-dasharray="none" fill-opacity="0" /></g><g id="layer4" inkscape:label="CompositeShape_8" inkscape:groupmode="layer"><line x1="1073.268" y1="322.8979" x2="1060.425" y2="451.3227" opacity="1" stroke="#000000" stroke-opacity="1" stroke-width="6" stroke-linecap="round" stroke-linejoin="miter" stroke-dasharray="none" /><line x1="1030.785" y1="389.1906" x2="1060.425" y2="451.3227" opacity="1" stroke="#000000" stroke-opacity="1" stroke-width="6" stroke-linecap="round" stroke-linejoin="miter" stroke-dasharray="none" /><line x1="1060.425" y1="451.3227" x2="1101.783" y2="396.2905" opacity="1" stroke="#000000" stroke-opacity="1" stroke-width="6" stroke-linecap="round" stroke-linejoin="miter" stroke-dasharray="none" /></g></svg>